<svg version="1.2" xmlns="http://www.w3.org/2000/svg" viewBox="0 0 14 14" width="14" height="14"><defs><clipPath clipPathUnits="userSpaceOnUse" id="cp1"><path d="m-435-1417h960v4094h-960z"/></clipPath></defs><style>.a{fill:#fff}</style><g clip-path="url(#cp1)"><path fill-rule="evenodd" class="a" d="m0 13.5v-10.4h3.1v-3.1h7.2v6.2h3.1v7.3h-5.7v-3.1h-2v3.1zm1.1-1.2h2v-1.9h-2zm0-3.1h2v-1.9h-2zm0-3.1h2v-2h-2zm3.1 3.1h2v-2h-2zm0-3h2v-2h-2zm0-3.1h2v-1.9h-2zm3.1 6.1h1.9v-1.9h-1.9zm0-3.1h1.9v-2h-1.9zm0-3h1.9v-2h-1.9zm3.1 9.2h1.9v-1.9h-1.9zm0-3.1h1.9v-1.9h-1.9z"/></g></svg>