<svg version="1.2" xmlns="http://www.w3.org/2000/svg" viewBox="0 0 824 557" width="824" height="557"><defs><clipPath clipPathUnits="userSpaceOnUse" id="cp1"><path d="m-69-2811h960v4094h-960z"/></clipPath><clipPath clipPathUnits="userSpaceOnUse" id="cp2"><path d="m32.5 267.21h263.67v3.01h-263.67z"/></clipPath></defs><style>.a{fill:#1d1d1e}.b{fill:#1d1d1e;stroke:#000;stroke-miterlimit:100}.c{fill:#ea9a00}</style><g clip-path="url(#cp1)"><path fill-rule="evenodd" class="a" d="m26.1 472.8c1.8-0.8 3.3-1.1 4.5-1.1 11.9 0 21.9 10.2 21.9 23.3 0 16.3-13 27.9-27.9 27.9-4.5 0-10.2-1.1-16.3-4v-61.7c0-6.9-0.2-7.6-7.3-8.3v-2.5c5.2-0.7 12-2.5 16.1-3.9v34.2zm-9 35.8c0 1.7 0.2 2.8 0.7 3.8 0.6 2.2 4 6.1 9.8 6.2 9.3 0 15.1-7.8 15.1-20.7 0-12.7-7.7-20-16.9-20-3.1 0-6.7 0.9-8.7 2.1z"/><path fill-rule="evenodd" class="b" d="m801.1 56.7c-1.1-1.2-1.6-2.3-2-3.8-3.4 2.3-7.4 5.4-9.9 5.4-5.9 0-10-4.9-10-10.2 0-4.1 2.2-6.7 6.8-8.2 5-1.7 11.1-4 12.9-5.5v-1.5c0-6-2.8-9.4-7-9.4-1.7 0-2.9 0.7-3.8 1.7-1 1.1-1.8 2.9-2.5 5.5-0.3 1.3-1.2 1.9-2.4 1.9-1.5 0-3.7-1.7-3.7-3.6 0-1.2 1.1-2.1 2.7-3.3 2.3-1.7 7.8-4.9 12.5-5.8 2.5 0 5.1 0.7 6.9 2.2q0.6 0.5 1 1c3.9-5.8 7.5-11.6 11.3-17.7-1.9 0-3.6 0-4.8 0-3.9 0-4.6 0.9-6.1 3.9l-0.8 1.5-1.3-0.5c0.6-2.1 1.4-5.5 1.8-7.8h1.2c0.3 0.9 0.9 1.2 2.9 1.2h12.4l0.3 0.7c-4.4 6.9-8.7 13.7-13.1 20.9h5.3c4.1 0 5.2-1.1 7.2-4.3l0.7-1.3 1.4 0.6c-0.8 2.1-1.7 4.6-2.5 6.8h-13.7c0.4 1.5 0.6 3.3 0.6 5.2v15.5c0 3.7 1.5 5 2.9 5 1 0 2.1-0.4 3-0.9l0.8 2.1-7.1 4.3c-1.2 0-3-0.8-3.9-1.6zm-9.7-15.9c-3.3 1.5-5.1 3.1-5.1 6.1 0 4.3 3.3 6.4 5.9 6.4 2.2-0.1 5.1-1.5 6.7-3v-13c-1.7 0.9-5.7 2.6-7.5 3.5z"/><path class="a" d="m425.7 343.6c-1.1 3.2-2.4 5.4-3.5 6.8-1.6 1.8-4 2.1-7.8 2.1-2.9 0-5.2-0.1-6.6-0.9-1.2-0.7-1.6-2.1-1.6-5.8v-27.2c0-5.9 0.6-6.3 6.1-6.7v-1.9h-18v1.9c5.6 0.4 6 0.8 6 6.7v27.6c0 5.8-0.5 6.3-6.3 6.7v1.9h31.3c0.6-2.1 2-8.6 2.4-10.8z"/><path fill-rule="evenodd" class="a" d="m130.2 97.8c-1-1.1-1.5-2.1-1.9-3.4-3.1 2-6.8 4.9-9.1 4.9-5.4 0-9.2-4.6-9.2-9.4 0-3.8 2-6.2 6.2-7.6 4.6-1.6 10.3-3.7 12-5v-1.4c0-5.6-2.7-8.7-6.5-8.7-1.5 0-2.7 0.6-3.5 1.5-1 1-1.7 2.7-2.3 5.1-0.3 1.2-1.1 1.8-2.2 1.8-1.4 0-3.4-1.6-3.4-3.3 0-1.2 1-2.1 2.5-3.1 2.1-1.6 7.1-4.6 11.5-5.4 1.7 0 3.4 0.4 4.9 1.1v-41c0-4.8-0.2-5.3-5.1-5.7v-1.8c3.6-0.5 8.3-1.7 11.1-2.7v23.7l6.3-2.7c1.2-0.5 2.3-0.7 3.1-0.7 8.3 0 15.2 7.1 15.2 16.1 0 11.4-9 19.4-19.3 19.4-2.3 0-5-0.4-8-1.4 1.2 1.9 1.6 4.3 1.6 7.2v14.3c0 3.4 1.4 4.6 2.7 4.6 0.9 0 2-0.4 2.7-0.8l0.8 2-6.5 3.9c-1.2 0-2.8-0.7-3.6-1.5zm-9-14.7c-3 1.4-4.7 2.9-4.7 5.6 0 4 3.1 6 5.5 6 2-0.1 4.7-1.4 6.2-2.8v-12c-1.7 0.8-5.4 2.4-7 3.2zm14-43.4v19.9c0 1.2 0.2 1.9 0.5 2.6 0.5 1.6 2.8 4.3 6.9 4.4 6.3 0 10.4-5.5 10.4-14.4 0-8.8-5.4-13.9-11.8-13.9-2.1 0-4.6 0.6-6 1.4z"/><g clip-path="url(#cp2)"><path class="c" d="m293 269q-0.3 0-0.4 0-0.2 0-0.3 0-0.3 0-0.1 0 0.2 0.1 0.4 0 0.1 0 0.2 0 0.1 0 0.1 0 0 0 0.1 0c0.2 0 0.4 0 0.7 0-0.2 0-0.4 0-0.7 0z"/><path class="c" d="m291.6 269q0 0 0.1 0 0 0 0 0-0.3 0-0.5 0c-0.1 0 0.2 0 0.4 0z"/><path class="c" d="m295.9 269.1c0 0-0.1 0-0.1 0q0 0 0.3 0c0 0 0.1 0 0.1 0 0 0-0.2 0-0.3 0z"/><path class="c" d="m294.5 269.1q0 0 0 0z"/><path class="c" d="m291.1 269.6c-0.2 0.1 0 0.1 0.4 0.1-0.1 0-0.3-0.1-0.4-0.1z"/><path class="c" d="m294 269.1c-0.1 0-0.2 0-0.1 0 0.1 0 0.2 0 0.3 0q0.2 0 0.3 0c-0.1 0-0.2-0.1-0.5 0z"/><path class="c" d="m225 269.2c0 0-0.1 0-0.1 0-0.1 0 0 0 0.1 0q0 0 0.1 0 0 0-0.1 0z"/><path class="c" d="m294.7 269c0 0-0.1 0-0.1 0q0.1 0.1 0.2 0.1 0.1 0 0.1 0c0-0.1-0.1-0.1-0.2-0.1z"/><path class="c" d="m292.5 269.7c-0.2 0 0 0 0 0q0.1 0 0.2 0c0 0-0.1 0-0.2 0z"/><path class="c" d="m293.4 269.7q0 0.1 0.2 0.1 0 0 0.1 0-0.1-0.1-0.1-0.1-0.1 0-0.2 0z"/><path class="c" d="m254.6 269.6q-0.2 0-0.1 0 0 0 0.2 0 0 0 0 0c0 0 0 0-0.1 0z"/><path class="c" d="m278.1 270c0 0 0.2 0 0.3 0 0 0-0.1 0-0.3 0z"/><path class="c" d="m290.2 269h0.4q-0.2-0.1-0.4 0z"/><path class="c" d="m221.3 269.1q0 0 0.1 0.1 0.1-0.1 0.1-0.1c0 0-0.1 0-0.1 0 0 0-0.1 0-0.1 0z"/><path class="c" d="m290 269.1q0 0 0 0c-0.2 0-0.2 0 0 0z"/><path class="c" d="m293.7 269.3q-0.1 0-0.1 0 0 0 0 0 0 0 0.1 0 0.1 0 0 0z"/><path class="c" d="m201.5 267.4q0.1 0 0.2 0c-0.1 0-0.1 0-0.2 0z"/><path class="c" d="m294.5 269.1q0 0 0.1 0 0 0-0.1 0z"/><path class="c" d="m294.6 269.1q0 0 0.1 0-0.1 0-0.1 0 0 0 0 0z"/><path class="c" d="m242.1 268.7z"/><path class="c" d="m186.1 267.8h0.1-0.1q0 0 0 0z"/><path class="c" d="m225.1 268.1q0 0-0.1 0 0.1 0 0.1 0 0 0 0 0z"/><path class="c" d="m290.1 269.7q0 0 0 0 0 0-0.1-0.1 0 0.1-0.1 0.1 0.1 0 0.2 0z"/><path class="c" d="m288 269.6q0.2 0 0.4 0-0.2 0-0.4 0z"/><path class="c" d="m289.6 269.7h-0.1z"/><path class="c" d="m288.9 269.6h-0.1z"/><path class="c" d="m288.9 268.9q0 0 0 0 0 0 0.1 0-0.2 0-0.4 0 0 0 0 0c0 0 0.1 0 0.2 0 0.2 0.1 0.5 0.1 0.9 0.1q0 0 0 0 0.2 0 0.4 0c-0.1-0.1-0.2-0.1-0.6-0.1q-0.1 0.1-0.2 0-0.2 0-0.4 0 0 0 0 0z"/><path class="c" d="m291.7 269q0 0-0.1 0c0.1 0 0.3 0 0.3 0 0.2 0-0.1 0-0.2 0q0 0 0 0z"/><path class="c" d="m292.9 269h-0.1q0.1 0 0.1 0z"/><path class="c" d="m291.1 269h0.1 0.1q-0.1 0-0.2 0z"/><path class="c" d="m290.7 269q0.4 0 0.1 0c0 0-0.2 0-0.1 0z"/><path class="c" d="m290 269.1q0 0 0.2 0 0.2 0 0.1 0-0.2 0-0.3 0z"/><path class="c" d="m198 267.4z"/><path class="c" d="m213.6 268.1z"/><path class="c" d="m284.7 269.5c-0.1 0 0 0 0.1 0q0 0 0 0 0 0 0 0-0.1 0-0.1 0z"/><path class="c" d="m286.6 269.5q0 0 0 0 0 0-0.1 0-0.2 0-0.4 0 0 0 0 0c-0.1 0.1 0.2 0.1 0.3 0.1 0.1 0 0.2 0 0.3 0q0.1 0 0.1 0 0 0 0 0-0.1 0-0.1 0 0 0-0.1 0 0 0 0 0 0 0 0-0.1z"/><path class="c" d="m191.3 267.9z"/><path class="c" d="m271.1 268.9z"/><path class="c" d="m258.8 268.6q0 0 0 0z"/><path class="c" d="m228.6 268.3z"/><path class="c" d="m225.1 268.1q0 0 0.1 0-0.1 0-0.1 0 0 0 0 0z"/><path class="c" d="m287.4 268.9v0.1z"/><path class="c" d="m286.1 268.7q0.1 0 0.1 0 0 0 0 0 0 0 0 0-0.2 0-0.1 0z"/><path class="c" d="m216.4 268.1c-0.1 0-0.1 0-0.1 0 0 0 0.2 0 0.3 0q-0.1 0-0.2 0z"/><path class="c" d="m216.6 268.1q0 0 0 0 0 0 0 0z"/><path class="c" d="m216.7 268.1q0 0-0.1 0 0 0 0 0 0 0 0 0 0 0 0 0 0 0 0.1 0 0 0 0 0h0.1q-0.1 0-0.1 0z"/><path class="c" d="m208.9 268q0 0-0.1 0 0.1 0 0.1 0 0 0 0 0 0 0 0 0z"/><path class="c" d="m186.2 267.9q-0.1 0-0.1 0-0.1 0-0.1 0 0 0 0 0 0 0 0 0 0 0 0.1 0 0.1 0 0.1 0z"/><path class="c" d="m186.1 267.9q0 0 0 0z"/><path class="c" d="m186.2 267.9q0 0 0 0 0 0 0 0 0 0 0 0z"/><path class="c" d="m186.1 267.9q0 0 0.1 0 0 0-0.1 0z"/><path class="c" d="m198.4 268z"/><path class="c" d="m198.3 268q0 0 0.1 0 0 0-0.1 0 0 0 0 0z"/><path class="c" d="m219.6 268.1q0 0 0 0 0 0 0 0 0 0 0 0 0 0 0 0z"/></g><path fill-rule="evenodd" class="a" d="m804.9 556.6c-2.4 0-5.7-1.4-7.4-3-2-2.2-3-4.4-3.8-7-6.2 4.2-13.7 10-18.4 10-11.1 0-18.8-9.3-18.8-19.1 0-7.7 4.1-12.5 12.7-15.5 9.4-3.1 20.8-7.4 24.2-10.2v-2.8c0-11.3-5.3-17.7-13.1-17.7-3.1 0-5.5 1.3-7.1 3.1-2 2.1-3.4 5.5-4.6 10.4-0.7 2.5-2.4 3.6-4.6 3.6-2.8 0-6.9-3.2-6.9-6.8 0-2.3 2.1-4 5-6.2 4.4-3.1 14.6-9.3 23.5-11 4.7 0 9.4 1.4 12.8 4.3 5.5 4.5 7.1 10.9 7.1 19v29.2c0 7 2.8 9.3 5.5 9.3 1.8 0 4-0.7 5.6-1.7l1.6 4.1zm-11.5-39.4c-3.3 1.7-10.8 5-14 6.5-6.2 2.8-9.6 5.8-9.6 11.5 0 8.1 6.3 12 11.1 12 4.1-0.2 9.6-2.8 12.5-5.6z"/></g></svg>