<svg version="1.2" xmlns="http://www.w3.org/2000/svg" viewBox="0 0 11 14" width="11" height="14"><defs><clipPath clipPathUnits="userSpaceOnUse" id="cp1"><path d="m-642-1417h960v4094h-960z"/></clipPath></defs><style>.a{fill:#fff}</style><g clip-path="url(#cp1)"><path fill-rule="evenodd" class="a" d="m1 13.5q-0.4 0-0.7-0.3-0.3-0.3-0.3-0.8v-11.3q0-0.5 0.3-0.8 0.3-0.3 0.7-0.3h6.1l3.6 3.7v8.7q0 0.5-0.3 0.8-0.3 0.3-0.7 0.3zm5.6-9.3v-3.1h-5.6v11.3h8.7v-8.2zm-3.8 5.4h5.3v1h-5.3zm0-2.8h5.3v1h-5.3zm-1.7-5.7v3.1-3.1 11.4z"/></g></svg>