<svg id="Grupo_745" data-name="Grupo 745" xmlns="http://www.w3.org/2000/svg" xmlns:xlink="http://www.w3.org/1999/xlink" width="531.648" height="586.936" viewBox="0 0 531.648 586.936">
  <defs>
    <clipPath id="clip-path">
      <rect id="Retângulo_664" data-name="Retângulo 664" width="531.648" height="586.936" fill="none"/>
    </clipPath>
  </defs>
  <g id="Grupo_908" data-name="Grupo 908">
    <g id="Grupo_907" data-name="Grupo 907" clip-path="url(#clip-path)">
      <path id="Caminho_1566" data-name="Caminho 1566" d="M284.589,494.746A178.989,178.989,0,1,0,105.6,315.758,178.99,178.99,0,0,0,284.589,494.746" transform="translate(-22.378 -28.983)"/>
      <path id="Caminho_1567" data-name="Caminho 1567" d="M422.7,274.6c-13.209-12.8-32.61-18.987-52.424-18.987s-39.215,6.191-52.424,18.987c-13.209,12.384-20.227,27.244-20.227,52.837v13.486h55.314v-15.55c0-13.622,7.43-20.226,17.337-20.226s17.337,6.6,17.337,20.226V486.361c0,13.621-7.431,20.226-17.337,20.226s-17.337-6.6-17.337-20.226V388.246a65.195,65.195,0,0,1-16.3,23.163c-9.913,9.589-23.613,16.172-39.018,19V484.3c0,25.592,7.018,40.453,20.227,52.837,13.209,12.8,32.61,18.988,52.424,18.988s39.215-6.192,52.424-18.988c13.209-12.383,20.226-27.244,20.226-52.837V327.439c0-25.592-7.017-40.453-20.226-52.837" transform="translate(-63.069 -54.167)" fill="#fff7e0"/>
      <path id="Caminho_1568" data-name="Caminho 1568" d="M328.74,319.53V303.776H273.427v17.818c0,13.622-7.431,20.226-17.337,20.226s-17.337-6.6-17.337-20.226V160.608c0-13.622,7.43-20.226,17.337-20.226s17.337,6.6,17.337,20.226v15.554H328.74v-13.49c0-25.592-7.017-40.453-20.226-52.837C295.3,97.039,275.9,90.847,256.09,90.847s-39.215,6.192-52.424,18.988c-13.209,12.384-20.226,27.244-20.226,52.837V319.53c0,25.592,7.017,40.453,20.226,52.837,13.209,12.8,32.61,18.988,52.424,18.988s39.215-6.192,52.424-18.988c13.209-12.383,20.226-27.244,20.226-52.837" transform="translate(-38.873 -19.251)" fill="#fff7e0"/>
      <text id="E" transform="translate(55.96 197.138) rotate(-61.141)" fill="#231f20" font-size="75" font-family="DINPro-CondensedRegular, DIN Pro"><tspan x="0" y="0">E</tspan></text>
    </g>
  </g>
  <text id="D" transform="translate(76.294 166.245) rotate(-51.495)" fill="#231f20" font-size="78" font-family="DINPro-CondensedRegular, DIN Pro"><tspan x="0" y="0">D</tspan></text>
  <text id="I" transform="matrix(0.736, -0.677, 0.677, 0.736, 96.102, 126.729)" fill="#231f20" font-size="68" font-family="DINPro-CondensedRegular, DIN Pro"><tspan x="0" y="0">I</tspan></text>
  <text id="Ç" transform="matrix(0.818, -0.575, 0.575, 0.818, 116.417, 114.139)" fill="#231f20" font-size="73" font-family="DINPro-CondensedRegular, DIN Pro"><tspan x="0" y="0">Ç</tspan></text>
  <text id="Ã" transform="translate(151.469 92.377) rotate(-24.679)" fill="#231f20" font-size="75" font-family="DINPro-CondensedRegular, DIN Pro"><tspan x="0" y="0">Ã</tspan></text>
  <g id="Grupo_910" data-name="Grupo 910">
    <g id="Grupo_909" data-name="Grupo 909" clip-path="url(#clip-path)">
      <text id="O" transform="matrix(0.97, -0.243, 0.243, 0.97, 188.436, 79.77)" fill="#231f20" font-size="79" font-family="DINPro-CondensedRegular, DIN Pro"><tspan x="0" y="0">O</tspan></text>
      <text id="_" data-name=" " transform="translate(226.297 56.662) rotate(-6.16)" fill="#231f20" font-size="64" font-family="DINPro-CondensedRegular, DIN Pro"><tspan x="0" y="0"> </tspan></text>
      <text id="E-2" data-name="E" transform="matrix(1, 0.019, -0.019, 1, 249.283, 63.883)" fill="#231f20" font-size="75" font-family="DINPro-CondensedRegular, DIN Pro"><tspan x="0" y="0">E</tspan></text>
      <text id="S" transform="translate(286.91 63.627) rotate(11.206)" fill="#231f20" font-size="74" font-family="DINPro-CondensedRegular, DIN Pro"><tspan x="0" y="0">S</tspan></text>
      <text id="P" transform="translate(326.352 71.589) rotate(21.168)" fill="#231f20" font-size="74" font-family="DINPro-CondensedRegular, DIN Pro"><tspan x="0" y="0">P</tspan></text>
    </g>
  </g>
  <text id="E-3" data-name="E" transform="translate(364.35 87.783) rotate(31.629)" fill="#231f20" font-size="75" font-family="DINPro-CondensedRegular, DIN Pro"><tspan x="0" y="0">E</tspan></text>
  <text id="C" transform="translate(397.486 105.866) rotate(41.242)" fill="#231f20" font-size="73" font-family="DINPro-CondensedRegular, DIN Pro"><tspan x="0" y="0">C</tspan></text>
  <text id="I-2" data-name="I" transform="translate(431.121 129.706) rotate(49.442)" fill="#231f20" font-size="68" font-family="DINPro-CondensedRegular, DIN Pro"><tspan x="0" y="0">I</tspan></text>
  <text id="A" transform="translate(441.21 151.618) rotate(56.991)" fill="#231f20" font-size="75" font-family="DINPro-CondensedRegular, DIN Pro"><tspan x="0" y="0">A</tspan></text>
  <g id="Grupo_912" data-name="Grupo 912">
    <g id="Grupo_911" data-name="Grupo 911" clip-path="url(#clip-path)">
      <text id="L" transform="translate(461.82 184.124) rotate(66.021)" fill="#231f20" font-size="75" font-family="DINPro-CondensedRegular, DIN Pro"><tspan x="0" y="0">L</tspan></text>
    </g>
  </g>
  <text id="C-2" data-name="C" transform="translate(28.444 423.172) rotate(55.614)" fill="#231f20" font-size="74" font-family="DINPro-CondensedBlack, DIN Pro" font-weight="800"><tspan x="0" y="0">C</tspan></text>
  <text id="A-2" data-name="A" transform="matrix(0.703, 0.711, -0.711, 0.703, 54.098, 463.517)" fill="#231f20" font-size="76" font-family="DINPro-CondensedBlack, DIN Pro" font-weight="800"><tspan x="0" y="0">A</tspan></text>
  <text id="R" transform="matrix(0.832, 0.555, -0.555, 0.832, 92.154, 501.025)" fill="#231f20" font-size="76" font-family="DINPro-CondensedBlack, DIN Pro" font-weight="800"><tspan x="0" y="0">R</tspan></text>
  <text id="B" transform="matrix(0.919, 0.395, -0.395, 0.919, 135.361, 529.228)" fill="#231f20" font-size="76" font-family="DINPro-CondensedBlack, DIN Pro" font-weight="800"><tspan x="0" y="0">B</tspan></text>
  <text id="O-2" data-name="O" transform="translate(183.215 550.115) rotate(11.923)" fill="#231f20" font-size="77" font-family="DINPro-CondensedBlack, DIN Pro" font-weight="800"><tspan x="0" y="0">O</tspan></text>
  <g id="Grupo_914" data-name="Grupo 914">
    <g id="Grupo_913" data-name="Grupo 913" clip-path="url(#clip-path)">
      <text id="N" transform="matrix(1, 0.019, -0.019, 1, 232.691, 562.247)" fill="#231f20" font-size="79" font-family="DINPro-CondensedBlack, DIN Pro" font-weight="800"><tspan x="0" y="0">N</tspan></text>
    </g>
  </g>
  <text id="O-3" data-name="O" transform="translate(286.41 560.626) rotate(-9.768)" fill="#231f20" font-size="77" font-family="DINPro-CondensedBlack, DIN Pro" font-weight="800"><tspan x="0" y="0">O</tspan></text>
  <text id="_2" data-name=" " transform="translate(330.495 542.932) rotate(-16.922)" fill="#231f20" font-size="67" font-family="DINPro-CondensedBlack, DIN Pro" font-weight="800"><tspan x="0" y="0"> </tspan></text>
  <text id="Z" transform="matrix(0.919, -0.395, 0.395, 0.919, 351.656, 542.054)" fill="#231f20" font-size="73" font-family="DINPro-CondensedBlack, DIN Pro" font-weight="800"><tspan x="0" y="0">Z</tspan></text>
  <text id="E-4" data-name="E" transform="translate(389.787 525.131) rotate(-32.319)" fill="#231f20" font-size="73" font-family="DINPro-CondensedBlack, DIN Pro" font-weight="800"><tspan x="0" y="0">E</tspan></text>
  <text id="R-2" data-name="R" transform="matrix(0.736, -0.677, 0.677, 0.736, 428.539, 503.815)" fill="#231f20" font-size="76" font-family="DINPro-CondensedBlack, DIN Pro" font-weight="800"><tspan x="0" y="0">R</tspan></text>
  <text id="O-4" data-name="O" transform="matrix(0.604, -0.797, 0.797, 0.604, 466.453, 469.33)" fill="#231f20" font-size="77" font-family="DINPro-CondensedBlack, DIN Pro" font-weight="800"><tspan x="0" y="0">O</tspan></text>
  <g id="Grupo_916" data-name="Grupo 916">
    <g id="Grupo_915" data-name="Grupo 915" clip-path="url(#clip-path)">
      <path id="Caminho_1569" data-name="Caminho 1569" d="M37.037,256.269A246.4,246.4,0,0,0,43.479,446.1" transform="translate(-4.469 -54.306)" fill="none" stroke="#231f20" stroke-width="6.39"/>
      <path id="Caminho_1570" data-name="Caminho 1570" d="M606.661,465.322a246.4,246.4,0,0,0,19.584-187.147" transform="translate(-128.558 -58.948)" fill="none" stroke="#231f20" stroke-width="6.39"/>
    </g>
  </g>
</svg>
