<svg version="1.2" xmlns="http://www.w3.org/2000/svg" viewBox="0 0 17 15" width="17" height="15"><defs><clipPath clipPathUnits="userSpaceOnUse" id="cp1"><path d="m-911-2358h960v3303h-960z"/></clipPath></defs><style>.a{fill:#f7941d}</style><g clip-path="url(#cp1)"><path fill-rule="evenodd" class="a" d="m2 15q-0.4 0-0.7-0.3-0.3-0.4-0.3-0.8v-10.6q0-0.5 0.3-0.8 0.3-0.3 0.7-0.3h6.6v1.1h-6.6v10.6h10.7v-5.1h1v5.1q0 0.4-0.3 0.8-0.3 0.3-0.7 0.3zm1.8-7.7h1.1v4.9h-1.1zm3-2.3h1v7.2h-1zm2.9 4.6h1.1v2.6h-1.1zm3.3-1.9q-0.6 0-1.1-0.2-0.5-0.2-0.9-0.5l-0.4 0.4q-0.2 0.1-0.4 0.1-0.2 0.1-0.4-0.1-0.1-0.2-0.1-0.4 0-0.2 0.1-0.3l0.4-0.4q-0.2-0.5-0.4-1-0.2-0.4-0.2-1 0-1.4 1-2.3 1-1 2.4-1h3.4v3.3q0 1.4-1 2.4-1 1-2.4 1zm0-1q1 0 1.6-0.7 0.7-0.7 0.7-1.7v-2.3h-2.3q-1 0-1.6 0.7-0.7 0.7-0.7 1.6 0 0.3 0.1 0.6 0 0.3 0.2 0.6l2-2q0.2-0.2 0.4-0.2 0.2 0 0.4 0.2 0.1 0.2 0.1 0.4 0 0.2-0.1 0.4l-2.1 2q0.3 0.1 0.6 0.2 0.4 0.2 0.7 0.2z"/></g></svg>