<svg version="1.2" xmlns="http://www.w3.org/2000/svg" viewBox="0 0 364 340" width="364" height="340"><defs><clipPath clipPathUnits="userSpaceOnUse" id="cp1"><path d="m-70-1119h960v3303h-960z"/></clipPath><clipPath clipPathUnits="userSpaceOnUse" id="cp2"><path d="m0 0.5h364v338.81h-364z"/></clipPath></defs><style>.a{fill:#fff}.b{fill:#f7941d}</style><g clip-path="url(#cp1)"><g clip-path="url(#cp2)"><path class="a" d="m175.3 57.1c0.4 0.3 0.3 1.8-0.4 1.4-1.9-1.8-3.2-1.2-5.4-0.8-0.5 0.2-0.5-1.2-0.1-0.9 2.1-1.1 4-1.5 5.9 0.3z"/><path class="a" d="m167.3 54.4c0.1 0.4-0.2 0.4-0.5 0.4-0.7-0.5 0.1-1.4 0.6-1.8 1-1 2.4-1.4 3.8-1.5 2.5-0.5 5.1 0.3 6.6 2.5 0.4 0.5 0.3 2.2-0.6 1.7-2.1-2.8-7-3.2-9.9-1.3z"/><path class="a" d="m165 50.5c0.1 0.1 0 0.2-0.1 0.2-0.1 0-0.2 0.1-0.3 0-0.3-0.6 0.6-1.3 0.9-1.7 1.9-1.9 4.5-3.4 7.2-2.9 2.9 0.6 8.6 2.5 8.1 6.1-0.2 0.5-0.6 0.7-0.9 0.3-3.5-4.4-10.6-6.3-14.9-2z"/><path class="a" d="m354.4 322.9c-2.7 3.5-6.7 5.1-10.5 6.8-8.9 4.2-18.9 5.9-28.6 5.1-11.6-0.4-23-2.6-34.3-5.1-22.5-4.3-46-2.4-67.9 4.3-17.7 4.5-36.8 8.4-54.5 1.8-2.6-1-5.4-1.6-8.1-2.1-6.6-1.5-13-3.7-19.7-4.4-6.5-0.8-13.1-0.7-19.6-0.2-7.3 1.8-14.3 4.9-21.9 4.8-15.3-1.3-29.9-8.9-45.5-5.5-8.2 1.4-16.6 3.4-24.9 2-4.7-1-10.3-2.9-12.4-7.8-1.4-3.6-2.1-7.8-0.7-11.6 2.2-7.3 9-11.9 16-14.1 3.7-1.1 7.3-1.5 11.1-1.5-3.5-12.8-6.6-25.7-7.5-38.9-1-0.2-2-0.4-3-0.4-1-0.1-1.8-0.1-2-1.2-10.2-3.8-15.7-14.8-14.6-25.3 1.3-10.5 5.1-15.3-1-25.6-5-10.7-7.5-22.4-0.5-32.8 0.4-1 0.8-2.1 0.9-3.2 0.4-2.8-1-5.3-1.8-7.9-1.4-4-2.3-11.1-1.2-15.1 1.6-6.2 10.5-9.4 15.4-4.9 2.3 2.1 4 4.8 5.4 7.5 1.4 2.8 1.7 5.9 1.7 8.9-0.2 5.4-1.1 10.5 3.4 14.4 16.9 21.6-7.4 29.1 1.6 46.3 3.4 6.6 8 13 8.4 20.7 0.9 7.8-2.3 18.7-11.8 18.6 1.4 13.3 5 26.1 8.4 38.9 6.2 0.2 12.4 1.4 18.5 2 8.9 1 17.8 1.1 26.6 2.4 0.1-0.2 0.4-0.2 0.5 0q0.7 0.1 1.5 0.1c0.6 0.2 0 1.5-0.5 1.5q-0.4 0-0.8 0c0.3 3.3 0.8 6.6 2.2 9.6 2.4 4.5 5.4 8.7 8.5 12.8 5.3-3.5 10.1-7.7 13.8-12.9 1.9-3 2.7-6.5 3.6-9.8-0.2 0-0.5 0-0.8-0.1q0 0 0.1 0-0.1 0-0.1 0c-1.2 6.9-7.4 14.1-14.3 18.1-2.4 2.3-3.5-0.8-4.6-2.6-3.1-3.4-5.7-7.5-6.6-12.1-0.7-7.9 1.7-15.8 1.7-23.7 0.1-1.4-0.2-6.1 1.6-6.3 0.9 0.4 1.7 0.9 2.7 1.2 2.1 0.4 4.3 0.8 6.5 0.8q0.6-3.1 1.1-6.1c-7.8 0.1-16.1-4.2-20.7-9.9q0.2 0 0.3-0.1-0.1-0.1-0.1-0.3c-0.5 0.5-0.8 2.2-1.7 1.4-1.7-1.8-3.6-3.4-5.2-5.3-6.3-6.7-12-13.9-16.6-21.8-0.5 1-1.2 1.9-2 2.7-1.7 1.4-3.3 0.5-2.9-1.7 0.9-4.3 3-8.4 6.3-11.4-1.3-1.7 1.6-3.2 2.3-4.7 0.1-0.2 0.2-0.7 0.6-0.6 0.4-0.5 2.4 1.1 2.8 1.3 6.2 3.6 11.1 8.8 16.7 13.1 3.7 2.8 7.9 5.1 11.2 8.4 0.3 0 0.5 0.5 0.5 0.9 1 0.5 2.2 1.9 2.9 2.1 1-8.6 1.1-17.3 1.5-26 0.3-8.7 0.8-17.3 2.5-25.9 0.6-3 1.5-5.9 2.5-8.8 0.9-3.1 1.5-6.4 2.5-9.5-6.7 4.8-22.3 19.1-29.4 19.7-6.7-0.2-5.6-11.1-5.1-15.7 0.6-5.6 1.3-11.4 2.6-16.8-0.3-0.1-0.7-0.2-1.1-0.4-11.5 0-14.8-7.3-8.4-16.8 0.9-2 3.7-4.6 1.8-6.7-8-6.3-0.7-13 6.6-14.8 10.6-3.7 1.9-7 6.3-12.9 3.5-4.5 10.5-2.4 11.6-5.3 0.6-2.1 0-4.4 0.6-6.5 1.6-5.7 8.1-4.1 12.4-5.6 2.4-1.1 2.1-4.3 2.3-6.5q0-0.1 0-0.1c-1.9 0.8-4 1.3-6 1-7.2-0.7-7.6-7-3.4-11.7 2.4-2.6 5.6-4.5 8.9-5.7q0-0.1 0-0.1c-0.1-0.6-0.1-1.3 0-2-0.1-3.7-1.3-7.5-0.8-11.3 0.5-4.8 5.3-9.3 9.8-5.8 2.7-7.8 9.6-4.9 12.4 1.1 0.7 1.8 1.5 3.4 2.5 4.9q0.1 0 0.1 0c0.2 0.1 0.3 0.2 0.4 0.4q0.1 0.1 0.2 0.3c0.3 0.4 1.4 1.3 1.8 2 0.1 0.1 0.2 0.1 0.2 0.2q0 0 0 0.1 0 0 0 0c0.2 0 0.2 0.2 0.2 0.3q0 0 0 0.1c4.5-1.5 9.5-3.4 14.1-1.6 4.7 2.1 4.8 7.6 0.7 10.5-2 1.6-4.3 2.7-6.5 3.9q-0.1 0-0.2 0 0.1 0 0.1 0c1.5 3.5 3 7.1 3.5 10.9 0.9 5.7-1.8 11.6-6.9 14.5q-0.1 3.4 0 6.7c0 0.5 0.2 1.9 0.1 2.6q0 0.1 0 0.1c0.7-0.7 2.9-0.3 3.9-0.5q-0.1 0.2-0.1 0.4c0.2-0.5 0.5-0.9 1-1 0.3 0 0.6 0.2 0.7 0.5 7.7-1.1 15.3 1.7 21 6.9 6.6 5 12.2 11.3 17.8 17.5-4.1-9.8-7-19.9-10.2-30-0.1-0.8-1.2-2.8-1.4-4.2h-0.1c-0.2 0-0.5 0-0.7-0.1q-0.1 0-0.1-0.1 0 0-0.1-0.1 0-0.1 0-0.4c-1.1-4.6-2.5-14.4 0.7-17.8 0.7-0.5 1.5-1.1 2.3-1.5 0-4.2 0.8-8.3 1.7-12.4 0.1-0.9 0.5-1.3 1.4-1.2 3.7-0.2 7.5-0.3 11.1 0.6 0.7 0.2 0.6 1.1 0.6 1.7-0.1 6.4-1.5 12.7-2.5 19-0.2 0.6-0.3 2.9-0.8 3.5-0.1 0.7-0.4 1.3-0.7 1.9-1.1 0.6-2.5 0.3-3.6 0.3q-0.3-0.1-0.8-0.1c0.4 1.3 1.1 2.5 1.6 3.8 0.3 0.4 0.3 1.1-0.2 1.4 3.7 6.3 7.8 12.4 10.5 19.3 3 6.9 7 13.6 9.6 20.7 5.8 23.1-20.3 12.6-31.6 7.8-4.6-1.9-9.4-3.4-13.9-5.4 1.1 4.9-2.2 7.7-5.4 11.8-0.1 4.8-0.1 9.9 1.7 14.5 4.5 8.5 7.9 17.5 11.2 26.5 7.4 21.4 6.3 44.2 8.8 66.5 1.1-0.2 2.5-0.8 2.4 0.9 0.1 2 0.5 3.9 0.9 5.8 1.5 12.2 4.8 24 7 36 1.7 0.4 5.3-1.6 6.3-0.2 0.5 2.5-2.1 4.3-3.8 5.6-2.9 2-6.5 2.5-9.9 2.3 0.2 0.7 1.1 1.6 0.3 2.3-1.2 0.5-2.7 1.1-3.9 0.9-4.4-9.6-7.5-19.7-11.1-29.5-1.7-4.4-3.1-8.9-4.4-13.4-0.4-1.5-1.5-3.1-1.4-4.7 0.2 0.6 0.4 0.8 0.6 0.8-1.4-1.1-5.4-18-5.6-18.5-4.9-17.4-9-34.9-14-52.2-1.9 11.5-3 23.1-5.9 34.4-3.5 13.7-5.1 29.6-16.1 39.6q-2 1.5-4.2 2.2c0.2 2.8-0.6 5.6-0.7 8.4 2.8 0.6 5.7 0.1 8.6 0.2 1 0.1 2.6-0.5 2.6 1 0.3 1.6-0.2 3.2-0.5 4.7-1.1 5.5-2.3 11.6-3.4 16.9 0.3-0.3 0.8-0.3 1.1-0.4 0.4-0.7 1.7-1.5 1.9-0.3 8.1-1.2 16.4-1.6 24.1-4.3 3.3-1.9 6.8-3.4 10.3-5 0.7-0.3 4.4-2.5 4.2-0.9 0.5-0.9 1.4 2 1.8 2.3 2.4 4.3 4.5 8.8 6.7 13.3 1.2 2.5 2.3 5.2 4.3 7.3 2.3 2.6 8.2 1.9 7.3-2.4 0.4-1 2-1 2.8-1.6 2.5-0.9 4.6-2.4 7-3.3 0.6-0.3 1.3-0.6 1.8-1.1 5.1-5.4 0.7-7.9-4.2-10.3-0.7-1.6-2.2-3.4-1-5.1-0.6-2.4 3-0.9 4.3-1.1q3 0.1 6 0.5c10.1 0.2 20.3 0.6 30.3-0.9 12.2-2 23.9-6 35.7-9.5 0-1.3-0.1-2.5-0.2-3.8-2.7-3.5-7.1-5.5-11.2-6.9-7.6-3.6-19.2-3.9-22.2-13.1-0.3-10.1 13.5-4.8 19-2.7 6.2 2.7 10.7 8.5 13.9 14.4q-0.3-7.6-0.4-15.3c-2.7-2.8-6.5-4.3-9.8-6.2-37.3-11.2-3.8-33.3 9.7 0.5-0.1-5.3 0.2-10.5 0.2-15.8-1.2-2.4-2.7-4.6-4.9-6.3-2.3-2.3-4.4-4.8-6.2-7.5-11.5-17.9 13.1-19 12.8 7.1 1.6-5.1 2.1-10.6 4.8-15.3 2.4-4.3 11-11 14.7-5 1.6 3.8 0.3 8.2-2.3 11.3-4.8 5.8-11.6 9.5-17.1 14.6q-0.1 9.8 0 19.6 0 0 0 0c5.1-9.4 15.3-21 26.8-20.5 3.5 0.6 4.7 4.9 3.2 7.8-3.4 6.2-11.2 9-17.7 10.7-4.5 1.4-8.4 3.5-12.3 6q0 8 0.1 15.9c1.9-3.1 4.3-5.9 6.9-8.5 4.9-5.9 12.1-12.2 20.3-11.1 12.3 2.3 6.3 15-2 18.3-3.3 1.6-6.8 2.4-10.3 3.2-5.2 1-9.7 2.9-14.7 4.8 0 1.2 0.2 2.3 0.3 3.4q2.5-0.7 4.9-1.4c11.3-2.5 22.9-3.4 34.4-2.8 4.4 0.6 8.7 1.6 13 2.5 5.1 0.2 10.3 0.4 15.4 0.3q0.6 0 1.3 0.1c0.2-4.7 0-9.3 0.5-13.9-3.7-7.9-12.2-11-18.4-16.4-4.6-5-4.2-12 4.1-10.6 2.4 0.2 4.8 0.8 6.6 2.4 1.9 1.6 3.6 3.5 4.8 5.6 2.1 4.8 2.8 10.2 3.5 15.4 0-7.1 0.7-14.1 1.4-21.2q-0.2-0.4-0.1-1c-0.5 0.1-0.1-1.4-0.1-1.7-1.8-2.6-4-5-6.6-6.9-1.6-1-3.4-1.5-5-2.5-3.8-2.3-10.4-8.5-4.5-12.1 9.4-2.9 17.5 7.7 17.1 16.4 0.4-5.8 0.2-11.7 0.2-17.5-1.8-2.5-4.7-4-7.3-5.7-8.8-4.6-9-12.9 2.5-10.1 2.2 0.7 3.9 2.6 5.3 4.5 1.5 2.2 0.8 5.2 1.1 7.7 1.8-3.8 3.5-8.1 6.9-10.8 2.2-1.8 7-3.4 8.3 0.2 2 5.7-3.4 9.4-8.1 11-1.5 0.7-3.1 1.5-4.4 2.5-0.7 0.4-2.2 2.4-2.6 0.9-0.1 6.3 0.2 12.5-0.4 18.8 13.2-27.6 29.6-13 17.4-2.7-5.5 3.8-12.2 5.6-18 9-0.6 6.1-1.3 12.1-1.6 18.2 4.9-6.4 13.2-19.5 22.6-14.6 4.8 2.5 2.6 9.3-1.5 11.4-3.1 2-6.6 2.9-10 3.9-3.9 1-7.5 2.8-10.9 4.9q-0.1 0.1-0.2 0.1c-0.1 0.2-0.2 0.6-0.4 0.5-0.4 4.8-0.9 9.5-0.9 14.3 14.1 0.5 32-0.2 38.1 14.9 4.7 11.1 0.1 23.6-7.7 32z"/><path  d="m101.9 139.1c-0.3 0.1-0.4 0.9 0 1.1-0.4 5.1 0.3 10.8-2.3 15.4-2.3 3.7-6.7 5.7-10.9 6.2-3.5 0.2 0.9-6.1 1.4-7.5 2.8-5.7 6.1-11 10.2-15.8 1.2-2.1 1.7-1.6 1.6 0.6z"/><path  d="m130.6 97.8q-0.1 3.4 0 6.7c0 0.5 0.2 1.9 0.1 2.6-0.1 0.4-0.3 0.6-0.7 0.3q0-0.3-0.1-0.7-0.2-1.6-0.2-3.2 0-0.2 0-0.4c0-1.6 0.1-3.2 0.2-4.8 0-0.5-0.1-1.2 0.4-1.5 9.6-6 6.3-16.2 2.5-24.8 0 0.2 0 0.5-0.3 0.6-1.3-0.4-2.8-0.1-4.2-0.6 1.1 1.8-0.3 1.7-1.7 1.4-0.6-0.2-1.3-0.5-1.7-0.6q0 0 0 0c-1.9-0.7-3.5-1.8-4.5-3.5-0.8 2-1.9 3.9-3.4 5.4-0.2 0.3-1.2 1.3-2.2 2.2-1.4 1.2-2.9 2.4-2.7 1.2q0-0.2 0.1-0.5 0.1-0.2 0.2-0.4-0.4 0.4-0.8 0.8-0.1 0.1-0.1 0.1c-0.9 0.9-1.9 1.7-2.8 2.6q-0.2 0.2-0.5 0.4c0.4 1.3 0.4 2.5 0.6 3.8 0 0.7 0.5 1.6-0.1 2.2-1.5 1.4-4.4 5.1-1.4 6.4q1 0.4 2.1 0.6c1 0.6 0.7 3.1 1 4.2 0 0.5 0.1 4.2 0 7.7q0 0.5-0.1 0.9c-0.1 1.7-0.2 3.2-0.5 4.1q-0.1 0.5-0.2 0.7-0.3 0.4-0.6 0.1c-0.8 0.2-1.7 0.3-2.5 0.6q-0.1-0.8-0.3-1.3 0 0 0 0c-0.2-0.5-0.6-0.6-0.9-0.6-0.4 0.1-0.7 0.5-0.9 1-0.1 0.5-0.2 1-0.1 1.6-10 3.6-21.4 7.1-26 17.7-3.2 8-6.3 16.2-9 24.4-0.4 1.1-0.6 2.3-0.8 3.5q-0.1 0.8-0.2 1.6c0 0.9-0.4 1.1-0.9 1.1-0.3-0.1-0.7-0.2-1.1-0.4-11.5 0-14.8-7.3-8.4-16.8 0.9-2 3.7-4.6 1.8-6.7-8-6.3-0.7-13 6.6-14.8 10.6-3.7 1.9-7 6.3-12.9 3.5-4.5 10.5-2.4 11.6-5.3 0.6-2.1 0-4.4 0.6-6.5 1.6-5.7 8.1-4.1 12.4-5.6 2.4-1.1 2.1-4.3 2.3-6.5q0-0.1 0-0.1 0 0 0.1 0 0-0.1 0.1-0.1 0.1 0 0.1-0.1 0.1 0 0.2-0.1 0 0 0 0 0.1-0.1 0.1-0.2 0.1-0.1 0.1-0.2 0-0.1 0-0.1 0-0.2-0.1-0.3 0-0.1 0-0.1-0.2-0.1-0.5-0.1 0.1-0.3 0.1-0.7c0.4-1.9 0.9-3.7 1.8-5.4q0-0.1 0-0.2 0 0 0 0 0 0-0.1 0-0.1-0.3 0.1-0.7 0.1-0.1 0.1-0.2 0 0 0 0 0.1-0.1 0.1-0.2 0 0 0 0 0.1 0 0.2-0.1 0 0 0 0 0-0.1 0.1-0.2 0.3-0.3 0.7-0.6 0 0 0 0 0.1-0.1 0.2-0.1 0.1-0.1 0.1-0.1 0.2-0.2 0.5-0.4 0 0 0 0 0.1-0.1 0.2-0.1 0-0.1 0-0.1 0.1 0 0.3-0.1 0 0 0 0 0.1-0.1 0.2-0.2 0.6-0.4 1.2-0.8 0.1 0 0.2-0.1 0.3-0.1 0.5-0.3 0.1 0 0.3-0.1 0 0 0 0 0.1-0.1 0.2-0.2 0.3-0.1 0.5-0.2c7-4.1 14.7-7.1 22.7-8.7 0.4-0.1 0.7-0.2 0.9-0.2 0.3 0 0.5 0.2 0.6 0.8q0 0.1 0 0.1c0.1 0.4 0.4 0.9 0.2 1.4 0.7 1.5 1.2 3.1 2.1 4.6-0.1 0.1-0.1 0.3 0 0.5q0 0.2 0 0.3 0.1 0.1 0.2 0.2 0 0 0 0 0.1 0 0.1 0 0 0 0 0 0.1 0 0.1 0c1.5 3.5 3 7.1 3.5 10.9 0.9 5.7-1.8 11.6-6.9 14.5z"/><path  d="m99.6 173.1q-0.1 0.3-0.1 0.6-0.1 0.2-0.2 0.5 0 0 0 0c-6.7 4.8-22.3 19.1-29.4 19.7-6.7-0.2-5.6-11.1-5.1-15.7 0.6-5.6 1.3-11.4 2.6-16.8q0.4-1.8 0.9-3.4c0.2 0 0.2 0.4 0.2 0.7q0 0 0 0c0 0.2 0.1 0.4 0 0.6q-0.3 3-0.7 6.1-0.1 0.6-0.2 1.3c-0.3 2.7-0.8 5.4-1.1 8.1q0 0.5-0.1 1-0.1 0.8-0.1 1.7c-3.1 19.8 4.9 17.5 17.3 7.3 5.4-4.3 10.8-8.5 15.9-13q0 0 0 0 0.1 0.7 0.1 1.3z"/><path  d="m99.5 161.6q0 0.9-0.1 1.7c-4.6 2.2-8.9 4.8-13.2 7.5-1.8 1.1-3.6 2-5.1 3.6-0.2 0.1-0.4 0.5-0.6 0.5-2.3-1.5 6.9-15.3 8.2-17.4 0-0.1-0.1-0.4 0.1-0.4 0.6 0.2-1 3-1.2 3.5-1.8 3.8-3.7 7.6-5.6 11.3 5.6-3.8 11.6-7.2 17.4-10.6q0.1 0.2 0.1 0.3z"/><path  d="m100.2 161.8q0.1 0.4 0 0.7 0-0.3 0-0.7 0 0 0 0z"/><path  d="m67 166.7c-0.9-1.8 2.5-1.3 3.5-1.6 2.4-0.2 4.8-0.4 7.2-0.6 1.2 0.1 7.4-0.9 7 0.8 0 0.5-0.2 0.9-0.8 0.8-5.6 0-11.3 0.8-16.9 0.6z"/><path  d="m67 175.8c-0.4 0-0.7 0-1-0.1-0.6-0.9 0.7-0.9 1.3-1 2.2-0.2 4.5-0.6 6.7-0.7 2-0.1 3.9 0.1 5.9-0.3 0.6-0.1 0.6 1.3 0.1 1.4-4.3 0.3-8.7 0.7-13 0.7z"/><path  d="m99.5 161.6q0 0.6-0.1 1.1c-5.4 3.5-11.6 6-16.7 10.1-1.5 2.2-4.6 3.2-6.4 5.3-0.1 0.2-0.3 0.1-0.4-0.1-0.5-1.2 1.3-1.9 1.9-2.7 3.7-3 7.5-5.8 11.6-8.2 3.4-1.9 6.9-3.6 10-5.9q0 0.2 0.1 0.4z"/><path  d="m134.6 106.7q-0.1 0.2-0.1 0.4c-0.1 0.3-0.2 0.7-0.2 1q-0.1 0-0.1 0c-1.1-0.1-2.3 0.1-3.4-0.1q-0.1-0.1-0.2-0.3c0-0.1 0-0.3 0.1-0.5 0.7-0.7 2.9-0.3 3.9-0.5z"/><path  d="m176.1 133.9q-0.3-0.3-0.5-0.6-0.7-0.7-1.3-1.4-2.5-2.7-5-5.4-0.6-0.5-1.1-1.1-1.5-1.6-3.1-3.2-0.2-0.2-0.5-0.5c-2.3-2.3-4.7-4.5-7.3-6.5-5.7-5.2-13-7.9-20.7-7.1q0-0.1 0-0.3 0-0.1 0-0.2 0-0.2 0-0.3 0 0 0 0-0.1-0.1-0.2-0.1c0-0.2 0-0.4-0.1-0.5q-0.1 0-0.1-0.1 0 0 0 0c7.7-1.1 15.3 1.7 21 6.9 6.6 5 12.2 11.3 17.8 17.5-4.1-9.8-7-19.9-10.2-30-0.1-0.8-1.2-2.8-1.4-4.2-0.1-0.7 0-1.2 0.5-1.3 0.5 0.2 0.5 0.8 0.6 1.2q0 0.1 0 0.1 2.5 7.3 4.7 14.7c2 7.4 4.9 14.5 7.4 21.6 0 0.3-0.1 0.9-0.5 0.8z"/><path  d="m161.7 143.1c-4.6-1.9-9.4-3.4-13.9-5.4q-0.1 0-0.1 0c-0.2-0.8-0.5-1.7-0.8-2.5 0.2-0.2 0.5-0.4 0.9-0.2 5.1 1.8 10.3 3.5 15.5 5.4q0.6 0.2 1.3 0.4 0 0 0 0c1.6 0.6 3.6 1.4 5.9 2.4q0.6 0.3 1.2 0.5c6.9 3 15.6 6.2 19.8 2.5 4.8-6.7-1.7-15-4.5-21.3-3.1-6.2-5.7-12.8-9-19-0.3-0.6-4.7-8.1-5.4-10.5-0.3-0.7-0.2-0.9 0.5-0.3q0.1 0.1 0.1 0.2c3.7 6.3 7.8 12.4 10.5 19.3 3 6.9 7 13.6 9.6 20.7 5.8 23.1-20.3 12.6-31.6 7.8z"/><path  d="m170.6 145.3c-1.1-0.7 0.2-2.6 0.4-3.5 0.9-2.9 2.1-5.6 2.9-8.5 0.4-2.8 2.3-2.9 1.7 0.1-1.6 3.4-2.5 7.1-4 10.5-0.3 0.4-0.4 1.5-1 1.4z"/><path  d="m163.4 141.6c-0.8-1.9 1.8-7.7 2.6-9.8q1.1-2.9 1.9-5.9c0.1-0.2 0.2-0.5 0.4-0.5 0.6-1.3 1.3 0 1.1 0.8-1 2.4-1.7 4.9-2.6 7.4-0.6 1.9-1.2 3.7-1.8 5.6-0.3 0.6-0.5 3.7-1.6 2.4z"/><path  d="m180.2 65.5c-0.1 6.4-1.5 12.7-2.5 19-0.2 0.6-0.3 2.9-0.8 3.5q-0.2 0.2-0.4 0.2 0 0-0.1 0 0 0 0 0c-0.3-0.3-0.4-0.6-0.4-1q0 0 0-0.1 0 0 0 0c0.1-0.8 0.4-1.6 0.4-2.2 1-6.2 2.7-12.3 3-18.5q0-0.6 0-1.2c-3.7-0.8-7.6-0.8-11.4-0.3q0 0.2-0.1 0.4c-0.5 2.9-1.2 5.8-1.6 8.8-0.1 0.1-0.2 1.5-0.3 2.4-0.2 0.7-0.3 1.1-0.6 0.6q0-0.1 0-0.3c0-4.2 0.8-8.3 1.7-12.4 0.1-0.9 0.5-1.3 1.4-1.2 3.7-0.2 7.5-0.3 11.1 0.6 0.7 0.2 0.6 1.1 0.6 1.7z"/><path  d="m176.9 88c-0.1 0.7-0.4 1.3-0.7 1.9-1.1 0.6-2.5 0.3-3.6 0.3q-0.3-0.1-0.8-0.1-0.5-0.1-1-0.1c-2.5-0.3-6.5-1-6.3-2 0.1-1.9 0.3-3.8 0.6-5.1 0.3-1.6 0.7-2.2 0.7-0.5 0 0.7 0 1.9-0.2 3.7q0 0.2 0 0.5-0.1 0.2-0.1 0.3 0 0.1 0 0.2c3 0.6 6 1.1 9 1.2q0.7 0 1.3 0c0.1-0.2 0.1-0.7 0.2-1.1q0 0 0-0.1 0 0 0 0c0.2-0.7 0.4-1.1 0.9-0.4q0.1 0.7 0 1.3z"/><path  d="m127.3 84.1c0.5 0.8 1.1 1.8 0.8 2.7-0.6 1.3-2.6 1.5-3.4 0.4-0.4-0.3-0.8-0.7-0.5-1.3 0-0.1 0.2-0.3 0.4-0.1 0.5 1.1 2.2 1.6 3 0.6-0.9-1.8-2.6-3.1-3.3-5-0.1-0.6-0.7-1.2-0.5-1.7 0.1-0.3 0.3-0.2 0.3 0 0.9 1.6 2.1 3 3.2 4.4z"/><path  d="m125.7 93c-0.5 0.2-3-2.6-1.8-2.3 0.7 0.4 1.1 1.2 1.9 1.4 0.8 0 1.4-0.8 1.8-1.4 0.1-0.4 0.4-0.1 0.4 0.2 0 0.8-1.4 2.2-2.3 2.1z"/><path  d="m115.3 90c-0.1-0.2 0.3-2.6 0.6-1.6 0 0.2-0.4 2.2-0.6 1.6z"/><path  d="m117.3 89.6c-0.1-0.5 0.1-1.2 0.3-1.8 0.7-0.4 0 1.3-0.1 1.5 0.1 0.2 0 0.4-0.2 0.3z"/><path  d="m119.8 86.4c0.5 0-0.5 3-0.6 2.2 0.2-0.4 0.2-2.3 0.6-2.2z"/><path  d="m130 85.3c-0.2 0 0.2-2.5 0.5-2.2 0.2 0.6-0.4 1.3-0.3 1.9 0 0.1 0 0.3-0.2 0.3z"/><path  d="m132 84.6c-0.3-0.7 0.2-1.7 0.4-2.4 0.2-0.3 0.4 0.3 0.3 0.4-0.2 0.6-0.5 1.1-0.5 1.7 0 0.1-0.1 0.3-0.2 0.3z"/><path  d="m133.7 83.8c-0.2-0.1 0.4-2.5 0.6-2.1 0.4 0.6-0.4 1.3-0.5 2 0 0 0 0.1-0.1 0.1z"/><path fill-rule="evenodd" d="m127.1 80.9c-0.5-0.2-0.2-2-0.1-2.5 0.3-2.6 3.2-4.5 5.6-3.2 1.4 3.1-2.7 5.9-5.5 5.7zm0.3-1.2c2 0 5.2-1.1 5-3.6-2.2-0.9-4.6 0.6-5.1 2.8q0 0 0 0-0.1 0.4-0.1 0.8 0.1 0 0.2 0z"/><path fill-rule="evenodd" d="m114.4 86.4c-1.4 0.1-3.6-0.8-2.9-2.5 0-0.1 0.1-0.3 0.3-0.2 1.2-2.9 5.7-3.3 7.5-0.7 0.5 2.5-2.9 3.6-4.9 3.4zm0.4-1.2c1.5 0.1 3.2-0.2 4-1.6-2.1-1.6-5.2-2-6.8 0.4q0 0.2-0.1 0.4c0.7 0.8 1.9 0.8 2.9 0.8z"/><path  d="m117 84.9c-1.3-0.7-0.8-3.8 1-2.6 1.2 0.8 0.6 3.2-1 2.6z"/><path  d="m130.6 79c-1.4-0.7-0.2-4.3 1.3-3 1.2 0.9 0.3 3.5-1.3 3z"/><path  d="m132.1 77.1c-0.6-0.3-0.2-1.6 0.4-1.6 0.6 0.3 0.2 1.8-0.4 1.6z"/><path  d="m118.8 84.4c-0.3 0-0.4-0.6-0.1-0.7 0.2-1.7 1.3 0.6 0.1 0.7z"/><path  d="m111.5 84.7c-0.3-0.1-2.3-0.9-1.7-1.3q0.1-0.1 0.1 0.1c0.5 0.2 1 0.4 1.5 0.4 0.3 0 0.5 0 0.5 0.3 0 0.3-0.1 0.6-0.4 0.5z"/><path  d="m112.1 83.4c-0.4-0.1-2.1-0.7-1.7-1.2q0.1 0 0.1 0.1c0.6 0.5 1.4 0.3 2 0.4 0.2 0.3 0.1 0.9-0.4 0.7z"/><path  d="m113.4 82.4c-0.5-0.3-2.3-0.5-1.9-1.3 0.1-0.1 0.1 0 0.1 0.1 0.6 0.5 1.3 0.2 1.9 0.4 0.2 0.1 0.2 0.7-0.1 0.8z"/><path  d="m129.4 75.6c-0.3-0.3 0.1-0.8 0.1-1.2 0.1-0.1 0.2-1.8 0.5-1.2 0 0.3-0.1 2.7-0.6 2.4z"/><path  d="m130.9 75.3c-0.1-0.2-0.1-2.7 0.3-2.5 0.1 0.2 0.4 3.3-0.3 2.5z"/><path  d="m132.4 75.8c-0.5-0.4-0.1-1-0.1-1.4 0.1-0.2 0.1-1.5 0.4-1.1 0.2 0 0.2 0.3 0.1 0.4-0.1 0.4 0.3 2.3-0.4 2.1z"/><path  d="m117.7 80.9c-1.2-1-4.7 0.4-3.8-0.6 1.2-0.5 2.7-0.8 3.9 0 0.2 0.1 0.2 0.7-0.1 0.6z"/><path  d="m125.9 78c-0.8-1.1 2.3-5 1.7-2.6-0.8 0.5-1.4 1.3-1.6 2.2 0.1 0.1 0.1 0.4-0.1 0.4z"/><path  d="m122.5 76.6c-0.1-1.5 2.3-4.2 3.7-4.6 0.7-0.1 0.7 1.4 0.2 1.6-1 0.7-2.2 1.2-2.9 2.2-0.2 0.1-0.8 1.1-1 0.8z"/><path  d="m108.7 80.9c-0.1-0.6 0.9-1.2 1.3-1.6 1.2-1.3 2.8-2.2 4.6-2.4 1.1-0.2 4.3-0.3 4.4 1.1 0.2 2.2-5.4-2-10.1 2.8 0 0.1-0.1 0.2-0.2 0.1z"/><path  d="m113.5 76.3c0.5 0.2 0.3 1-0.2 1.2-0.2 0.1-0.4 0.5-0.6 0.2q-0.3 0.2-0.6 0.4c-0.1 0.3-0.6 0.3-0.6 0 0-0.8 1.4-1.3 2-1.8z"/><path  d="m176.9 305.1c-2.9 2-6.5 2.5-9.9 2.3 0.2 0.7 1.1 1.6 0.3 2.3-1.2 0.5-2.7 1.1-3.9 0.9-4.4-9.6-7.5-19.7-11.1-29.5-1.7-4.4-3.1-8.9-4.4-13.4-0.4-1.5-1.5-3.1-1.4-4.7 0.2 0.6 0.4 0.8 0.6 0.8q0.2 0 0.3-0.2c0.3-0.3 0.4-0.8 0.2-1.3 3.3-1.1 6.4-2.7 9.8-3.5 1.9-0.4 3.8-1 5.7-1.6 0.1 0.9 0.5 1 0.8 0.7q0.1-0.1 0.1-0.2 0.1 0 0.1-0.1 0-0.1 0-0.1 0.1-0.3 0-0.5c1.1-0.2 2.5-0.8 2.4 0.9 0.1 2 0.5 3.9 0.9 5.8 1.5 12.2 4.8 24 7 36 1.7 0.4 5.3-1.6 6.3-0.2 0.5 2.5-2.1 4.3-3.8 5.6z"/><path  d="m87.4 242.3q0 0 0 0-0.1 0-0.2-0.1c-0.4-0.3-0.7-0.2-0.9 0q0 0 0 0-0.2 0.2-0.3 0.5 0 0.1 0 0.1c-0.1 0.4-0.1 0.9 0.1 1.2q0 0 0 0 0.2 0.3 0.5 0.4-0.7 1-1.4 2-0.5 0.7-1 1.4c-2.9 3.9-5.7 7.4-8.4 11.5q-0.1 0-0.1 0 0 0-0.1 0-0.2-0.1-0.2 0-0.1 0-0.1 0.1c-0.1 0.1-0.1 0.3 0 0.5q0.1 0.1 0.1 0.1 0 0 0 0c-0.5 0.5-0.8 2.2-1.7 1.4-1.7-1.8-3.6-3.4-5.2-5.3-6.3-6.7-12-13.9-16.6-21.8-0.5 1-1.2 1.9-2 2.7-1.7 1.4-3.3 0.5-2.9-1.7 0.9-4.3 3-8.4 6.3-11.4-1.3-1.7 1.6-3.2 2.3-4.7 0.1-0.2 0.2-0.7 0.6-0.6 0.4-0.5 2.4 1.1 2.8 1.3 6.2 3.6 11.1 8.8 16.7 13.1 3.7 2.8 7.9 5.1 11.2 8.4 0.3 0 0.5 0.5 0.5 0.9z"/><path class="b" d="m173.2 95.3q-0.1 0-0.2 0.1-0.2 0-0.4 0c-1.6 0.2-3.2 0.4-4.7 0.7-1.1 0.2-2.3 0.5-3.4 0.6q-0.6 0.1-1.1 0.1h-0.1c-0.2 0-0.5 0-0.7-0.1q-0.1-0.1-0.1-0.2 0 0-0.1 0 0-0.1 0-0.4c0-0.2 0.1-0.5 0.4-0.5q0-0.1 0.1-0.1c3.2-0.4 6.3-1.8 9.6-1.8-0.5-1.1-1.2-2.3-1.7-3.4q0-0.2 0-0.3c0.1-0.7 0.7-1 0.9 0q0 0 0.1 0.1c0.4 1.3 1.1 2.5 1.6 3.8 0.3 0.4 0.3 1.1-0.2 1.4z"/><path class="b" d="m168.9 79c-0.8 1.3-2.2 2.1-3.1 3.4q-0.1 0.1-0.2 0.3c-0.2 0.3-0.4 0.3-0.5 0.2-0.3-0.1-0.5-0.8-0.3-1.2 0.4-1.4 3.8-2.5 3.9-4-1.3-1.5-4.5 1.3-5.4 2.3-1.8 3.6-0.8 7.9-1 11.8-0.1 0.4 0.3 2.4 0.5 3.8 0 0.6 0 1.1-0.2 1.1q-0.1 0-0.1-0.1 0 0-0.1-0.1 0-0.2 0-0.4c-1.1-4.6-2.5-14.4 0.7-17.8 0.7-0.5 1.5-1.1 2.3-1.5q0.3-0.2 0.6-0.3 0.9-0.4 1.8-0.5c1.4 0.2 1.8 2 1.1 3z"/><path fill-rule="evenodd" class="b" d="m140.6 68.5c-2 1.6-4.3 2.7-6.5 3.9q-0.1 0-0.2 0 0 0 0 0 0 0-0.1 0 0 0 0 0-0.1-0.1-0.2-0.2 0-0.1 0-0.3c-0.1-0.2-0.1-0.4 0-0.5-0.9-1.5-1.4-3.1-2.1-4.6 0.2-0.5-0.1-1-0.2-1.4q0 0 0-0.1c-0.1-0.6-0.3-0.8-0.6-0.8-0.2 0-0.5 0.1-0.9 0.2-8 1.6-15.7 4.6-22.7 8.7q-0.2 0.1-0.5 0.2-0.1 0.1-0.2 0.2 0 0 0 0-0.2 0.1-0.3 0.1-0.2 0.2-0.5 0.3-0.1 0.1-0.2 0.1-0.6 0.4-1.2 0.8-0.1 0.1-0.2 0.2 0 0 0 0-0.2 0.1-0.3 0.1 0 0 0 0.1-0.1 0-0.2 0.1 0 0 0 0-0.3 0.2-0.5 0.4 0 0-0.1 0.1-0.1 0-0.2 0.1 0 0 0 0-0.4 0.3-0.7 0.6-0.1 0.1-0.1 0.2 0 0 0 0-0.1 0.1-0.2 0.1 0 0 0 0 0 0.1-0.1 0.2 0 0 0 0 0 0.1-0.1 0.2-0.2 0.4-0.1 0.7 0.1 0 0.1 0 0 0 0 0 0 0.1 0 0.2c-0.9 1.7-1.4 3.5-1.8 5.4q0 0.4-0.1 0.7 0.3 0 0.5 0.1 0 0 0 0.1 0.1 0.1 0.1 0.3 0 0 0 0.1 0 0.1-0.1 0.2 0 0.1-0.1 0.2 0 0 0 0-0.1 0.1-0.2 0.1 0 0.1-0.1 0.1-0.1 0-0.1 0.1-0.1 0-0.1 0 0 0 0 0c-1.9 0.8-4 1.3-6 1-7.2-0.7-7.6-7-3.4-11.7 2.4-2.6 5.6-4.5 8.9-5.7q0-0.1 0-0.1 0.1-1 0-2c-0.1-3.7-1.3-7.5-0.8-11.3 0.5-4.8 5.3-9.3 9.8-5.8 2.7-7.8 9.6-4.9 12.4 1.1 0.7 1.8 1.5 3.4 2.5 4.9q0.1 0.2 0.3 0.4 0.1 0.1 0.2 0.3 0.7 1 1.6 1.9 0.3 0.2 0.5 0.4 0 0.1 0.1 0.1 0.1 0.1 0.2 0.2 0 0 0 0.1c4.5-1.5 9.5-3.4 14.1-1.6 4.7 2.1 4.8 7.6 0.7 10.5zm-16.3-8.4l0.2-0.1q0 0 0 0-0.4-0.4-0.8-0.9 0 0-0.1-0.1 0 0-0.1-0.1-0.3-0.4-0.6-0.7-0.2-0.2-0.3-0.4-0.3-0.4-0.5-0.8-1.3 0.3-2.5 0.7 0 0 0 0c-5.9 1.7-11.7 3.7-17.1 6.7q-1.1 0.6-2.2 1.3-0.2 0.1-0.5 0.2 0.1 0.2 0.1 0.3c0 1 0 1.7-0.3 2.9q0.1 0 0.2 0c8.3-2.7 16.2-6.2 24.5-9q0 0 0 0z"/><path  d="m124.5 60q0 0 0 0c-8.4 2.8-16.4 6.4-24.9 9.1 0.3-1.3 0.3-2 0.2-3.2 6.8-4.3 14.5-6.8 22.3-8.9q1 1.6 2.4 3z"/><path  d="m100.5 84.5c-0.1 0.4 0.1 2.2-0.4 2-0.1 0.2-0.2 0.4-0.4 0.3-0.1-0.1-0.2-0.4-0.2-0.9q0-0.1 0-0.1c0-0.7 0-1.6 0.2-2 0.1-0.2 0.3-0.2 0.4 0 0.1 0.1 0.2 0.2 0.2 0.3 0.2-0.5 0.5 0.2 0.2 0.4z"/><path  d="m100.3 68.4c-0.1 0.2-0.3 0.5-0.5 0.7-0.3 0.2-0.5 0.4-0.8 0.3q0-0.1 0-0.1c-0.1-0.6-0.1-1.3 0-2q0.1-0.5 0.1-1.1c0.1-0.3 0.4-0.4 0.7-0.5q0.2 0 0.4 0 0 0 0.1 0 0.2 0.1 0.2 0.3c0.1 0.3-0.1 0.8-0.6 0.8q0 0 0 0c0.6-0.1 0.6 1.2 0.4 1.6z"/><path  d="m123.7 59.1q0 0.1 0 0.1c-0.2 0.2-0.4 0.2-0.6 0.1-0.4-0.3-0.9-1.2-1-1.5q-7.5 2.8-15 5.3c-2.3 0.7-4.3 2.2-6.6 2.9q-0.3 0.1-0.6 0.2-0.1 0-0.2 0c-0.2-0.2-0.1-0.4 0.1-0.5 0.1-0.1 0.3-0.1 0.4-0.1q1.1-0.7 2.3-1.2c4.6-2.3 9.6-3.8 14.4-5.5 0.9-0.4 1.8-0.8 2.7-1.2q0 0 0 0c1.1-0.5 2.2-1.1 3.3-1.5q0.1 0 0.1 0c0.2 0.1 0.3 0.2 0.4 0.4q0 0.1 0 0.3c0 0.3-0.1 0.8 0.1 1 0.4 0.3 0.3 0.8 0.2 1.2z"/><path  d="m125.5 59.4q0 0.1 0 0.1-0.1 0.1-0.2 0.2-0.1 0.1-0.2 0.1-0.1 0-0.2 0.1h-0.1q-0.2 0.1-0.5 0.2 0 0 0 0-0.4 0.1-0.9 0.2 0 0 0 0 0 0-0.1-0.1 0 0 0 0c-0.5 0.2-0.7-0.3-0.5-0.7q0.1-0.2 0.3-0.2c0.2-0.1 0.4-0.2 0.5-0.3q0 0 0 0c-0.3-0.4-0.8-1-0.3-1.5-0.3-0.4-0.3-0.9-0.1-0.9q0-0.1 0.2 0 0.1 0.1 0.2 0.3c0.3 0.4 1.4 1.3 1.8 2q0.1 0.2 0.1 0.3 0 0.1 0 0.2z"/><path  d="m125.3 59.7c-0.8-0.3-0.6-0.9 0.1-0.4 0.1 0.1 0.1 0.4-0.1 0.4z"/><path  d="m125.8 59.5q0 0.2 0 0.2c-0.2 0.3-0.6 0.2-0.9 0.2h-0.1q0 0-0.1-0.1c-0.1-0.2 0-0.4 0.1-0.4q0.2-0.1 0.4-0.1 0.1 0 0.2 0 0 0 0.1-0.1 0 0 0.1 0 0 0 0 0c0.2 0 0.2 0.2 0.2 0.3z"/><path  d="m125.6 59.2q0 0.1 0 0.1 0 0.1-0.1 0.1 0 0 0 0-0.1 0-0.1 0-0.1 0-0.2-0.1-0.2-0.1-0.3-0.2 0-0.1 0-0.2 0-0.1 0.1-0.1 0.2 0 0.4 0.1c0.1 0.1 0.2 0.1 0.2 0.2q0 0 0 0.1z"/><path  d="m130.3 65.4q0-0.1 0.1-0.1c-0.7-0.7 2-1.4 2.5-1.6 0.8-0.4 1.1 0.8 0.6 1.2-1.1 0.3-2.2 0.5-3.2 0.5z"/><path  d="m99 80.1c-1.3-0.9 3.9-3.5 4.6-3.4 0.2 0 0.2 0.4 0 0.3-1.6 0.9-3.2 2.1-4.6 3.1z"/><path  d="m129.5 102.7c1.6 2.7-8.1 2.5-9.7 3-1.9 0.2-3.8 0.6-5.8 0.7-0.7-0.1-5.1 1.3-4.5-0.1 4.4-1.5 9.2-2.1 13.9-2.7 1.9-0.1 3.9-0.4 5.8-1 0.1-0.1 0.3 0 0.3 0.1z"/><path  d="m130.7 107.2q0 0.3-0.1 0.5c-0.1 1.3-0.6 2.5-1 3.7-0.2 0.4-0.8 5.2-1.6 3.9-2.8-2.8-5.1-6-8-8.6-1.5 1.4-2.6 3.1-3.6 4.8-1 1.7-2.2 3.3-2.5 5.2-0.1 0.5-0.4 1.3-0.9 0.5-0.9-1.9-2.3-3.6-3.4-5.5q-0.4-0.5-0.7-1.1c0-0.8 0.5-0.3 0.9 0.4 0.5 0.7 1 1.6 1.2 1.7q1.4 1.4 2.3 3.2c0.5-2 1.8-3.7 2.9-5.4q1.4-2.7 3.6-4.7 0-0.1 0-0.1c0.1-0.1 0.2-0.2 0.3-0.1q0.1 0 0.1 0.2c3 2.5 5.2 5.6 7.9 8.4 0.5-2.1 1.1-4.2 1.5-6.3 0-0.4 0.1-0.9 0.3-1.2 0.2-0.3 0.5-0.3 0.8 0.4q0 0.1 0 0.1z"/><path fill-rule="evenodd" class="b" d="m164.1 257.5q0 0 0 0.1 0 0.1-0.1 0.1 0 0.1-0.1 0.2c-0.3 0.3-0.7 0.2-0.8-0.7-1.9 0.6-3.8 1.2-5.7 1.6-3.4 0.8-6.5 2.4-9.8 3.5q-0.1 0.9-0.2 1.3-0.1 0.4-0.3 0.2c-1.4-1.1-5.4-18-5.6-18.5-4.9-17.4-9-34.9-14-52.2-1.9 11.5-3 23.1-5.9 34.4-3.5 13.7-5.1 29.6-16.1 39.6q-2 1.5-4.2 2.2-1.8 0.6-3.6 0.8-0.3 0.1-0.6 0.1-0.6 0-1.2 0.1c-7.8 0.1-16.1-4.2-20.7-9.9q0.2 0 0.3-0.1-0.1-0.1-0.1-0.3-0.1 0-0.1-0.1c0-0.2 0-0.4 0-0.5q0-0.1 0-0.1 0.1-0.1 0.3 0 0.1 0 0.1 0 0 0 0.1 0c2.7-4.1 5.5-7.6 8.3-11.5q0.6-0.7 1.1-1.4 0.7-1 1.4-2-0.3-0.2-0.5-0.4 0 0 0 0c-0.1-0.2-0.2-0.6-0.2-1q0-0.1 0.1-0.2 0 0 0-0.1 0.1-0.4 0.3-0.5 0 0 0 0c0.2-0.2 0.6-0.2 0.9 0q0.1 0.1 0.2 0.1c1 0.5 2.2 1.9 2.9 2.1 1-8.6 1.1-17.3 1.5-26 0.3-8.7 0.8-17.3 2.5-25.9 0.6-3 1.5-5.9 2.5-8.8 0.9-3.1 1.5-6.4 2.5-9.5q0.1-0.3 0.2-0.5 0-0.3 0.1-0.6 0-0.6-0.1-1.3c-0.2-2.8-0.2-5.7-0.1-8.5q0-0.3 0-0.6 0-0.7 0-1.4 0 0 0 0 0-0.1 0-0.1c-0.1-1.1 1-1.5 1.7-2.1q0.1-5 0.4-9.9 0.1-2.8 0.2-5.6 0.1-1.7 0.2-3.4-0.1-0.1-0.2-0.2-0.1-0.2-0.1-0.4c0.4-1.1 5.1-1.9 5.8-2.2-1.9-8.2-2.4-16.8-3.1-25.2q0-0.4 0.1-0.7c0.2-0.6 0.5-0.9 0.9-1 0.3 0 0.7 0.2 0.9 0.6q0 0 0 0 0.3 0.5 0.3 1.3c1.2 8.1 2.5 16.3 3.5 24.5q2.9-0.6 5.7-1.1 2.3-0.4 4.6-0.8 7.9-1.3 15.8-2.2c-2.1-6.1-1.4-12.8-1.9-19.1 0.1-1.2-0.3-3.8 0-5.6q0.1-0.5 0.3-1c0.2-0.5 0.5-0.9 1-1 0.3 0 0.6 0.2 0.7 0.5q0 0.1 0.1 0.1 0.1 0.2 0.1 0.5 0.1 0 0.2 0.1 0 0 0 0 0.1 0.1 0 0.3 0 0 0 0.1 0 0.1 0 0.1 0 0.1 0 0.3c0.2 1.8 0.4 3.6 0.4 5.4-0.1 6.4 0.8 12.7 1.2 19.1q3.5-0.5 7.1-0.6c0.9 0.8 1 2.2 1.6 3.2q0.6 1.4 0.9 2.5c1.1 4.9-2.2 7.7-5.4 11.8-0.1 4.8-0.1 9.9 1.7 14.5 4.5 8.5 7.9 17.5 11.2 26.5 7.4 21.4 6.3 44.2 8.8 66.5q0.1 0.2 0 0.5zm-63.9-95.7c0.1 4 0.5 8.1 0.6 12 5.6-5.1 12.6-8.4 19.3-11.7-0.6-1.2-2.7-0.6-3.8-0.4-1.3-1.4 2.8-2.1 3.5-2.9-0.9-1.2-3.5-0.2-4.7 0-1.7-2.2 4.7-1.2 5.3-2.9-0.6-1.2-2.3-0.8-3.4-0.8q0 0 0 0-1.7 0-3.2 0.3c-5 1-9.4 3.6-13.6 6.4z"/><path class="b" d="m172.3 79.2c-2.8-0.1-3.1-3.7-2-5.7 4.1-5.6 7.8 5.9 2 5.7z"/><path  d="m171.9 77.6c-0.3-0.5-0.6-1.1-0.9-1.6-0.2-1.3 0.8-0.3 1.1 0.2 0.5-0.6 1.2-2.1 1.8-2.3 0.4 0.2 0.4 0.8 0.2 1.1-0.3 0.3-1.8 3-2.2 2.6z"/><path  d="m179.1 66.4c-1.7-0.1-3.4-0.6-5.1-0.7-1-0.2-7.1 0.6-6.2-1 3.6-1.8 7.9-0.6 11.7-0.4 0.6 0.4 0.5 2.2-0.4 2.1z"/><path  d="m175.7 89.5q-2-0.3-3.9-0.7c-1-0.1-7.8-0.3-6.7-2.1 1.5-0.5 3.3 0.1 5-0.1 1.9-0.2 3.7 0.8 5.6 0.5 1-0.1 1 2.5 0 2.4z"/><path  d="m176.2 88.5c-3.4-0.4-6.9-0.8-10.3-1.5 0 0.1-0.1 0.2-0.2 0-0.1-0.1-0.5 0-0.6-0.3-0.4-1.5 6.3 0 7.3-0.1 1.3 0.1 2.5 0.5 3.8 0.5 0.5 0 0.5 1.3 0 1.4z"/><path  d="m174.9 58.5c-1.9-1.8-3.2-1.2-5.4-0.8-0.5 0.2-0.5-1.2-0.1-0.9 2.1-1.1 4-1.5 5.9 0.3 0.4 0.3 0.3 1.8-0.4 1.4z"/><path  d="m177.2 55.7c-2.1-2.8-7-3.2-9.9-1.3 0.1 0.4-0.2 0.4-0.5 0.4-0.7-0.5 0.1-1.4 0.6-1.8 1-1 2.4-1.4 3.8-1.5 2.5-0.5 5.1 0.3 6.6 2.5 0.4 0.5 0.3 2.2-0.6 1.7z"/><path  d="m180.8 52.2c-0.2 0.5-0.6 0.7-0.9 0.3-3.5-4.4-10.6-6.3-14.9-2 0.1 0.1 0 0.2-0.1 0.2-0.1 0-0.2 0.1-0.3 0-0.3-0.6 0.6-1.3 0.9-1.7 1.9-1.9 4.5-3.4 7.2-2.9 2.9 0.6 8.6 2.5 8.1 6.1z"/><path  d="m101.4 135.9c-0.5-3.9-1.1-7.7-1.5-11.5-0.4-2.6-0.9-5.3-0.9-7.9 0-0.3-0.1-0.8 0.2-1 0.3-0.1 0.3 0.5 0.3 0.7 0.2 2.5 0.7 5.1 1.2 7.6 0 0.7 3.1 15.5 0.7 12.1z"/><path  d="m144.7 130.2c-0.5-4.2-0.7-8.4-0.6-12.6 0.1-3-0.5-6.1 0.2-8.9 0.2-0.2 0.3 0.2 0.3 0.4 0.2 0.2 0.5 0.7 0.1 0.9 0.3 5.1 0.5 10.2 0.9 15.3 0 1.6 0.5 3.4 0.2 5-0.3 0.8-0.9 0.6-1.1-0.1z"/><path  d="m97.3 137.3c-2-2.8-4.1-5.6-5.8-8.7-0.5-1.1-5.5-7.2-3.8-7.8 1.8 2.3 3.5 5 5.3 7.4 0.5 1.3 7.1 8.9 4.3 9.1z"/><path  d="m93 144.4c-2-2-4.3-3.7-6.5-5.5q-3.2-3.2-6.5-6.2c-2.4-3.7 4.9 2.7 5.4 3.2 2.6 2.4 5.7 4.2 8.1 6.9 0.5 0.3 0.3 2.1-0.5 1.6z"/><path  d="m87.8 154c-4.9-2.3-9.7-5.2-13.8-8.7-0.8-2.3 6.1 3.2 7 3.3 2.3 1 4.6 2.2 6.9 3.3 0.7 0.3 0.8 2.1-0.1 2.1z"/><path  d="m83.3 161.1c-2-0.2-4-0.7-6-1.2-2.4-0.6-4.8-1-7.3-1.5-0.2-0.2-0.2-0.7 0.1-0.8 3.9 0.2 7.8 1.1 11.7 1.6 0.8 0.2 2.1-0.2 2 1 0 0.3-0.1 0.8-0.5 0.9z"/><path  d="m72.1 165.1c-0.6-0.6 0.3-3.4 0.4-4.4 0.8-5.7 2.1-11.4 4.2-16.9 3.3-9.9 9.8-18.5 18.8-24 0.4-0.2 0.6 0.3 0.7 0.6 0.2 1.2-0.8 1.3-1.5 1.9-14.1 9.3-19.9 26.4-22.4 42.3 0.1 0.1 0 0.6-0.2 0.5z"/><path  d="m80.1 163.3c-0.4-0.2 0.4-1.9 0.4-2.3 0.7-2.2 1.3-4.4 1.9-6.6 1.7-9 6.1-18 13.6-23.5 1.1-0.7 1.3 1.8 0.6 2.4-5.6 3.9-9.3 10-11.8 16.2-1.7 4.6-2.6 9.6-4.7 13.8z"/><path  d="m164.6 128.6c-7.1-7-15.6-13-25.4-15.3-0.1 0-0.1-0.1-0.1-0.2-0.1-0.5 0.7-0.3 1-0.3 7.5 1.6 14.5 5.1 20.1 10.2 0.7 0.6 6.8 5.4 4.4 5.6z"/><path  d="m163.3 134.3c-7.7-3.7-14.1-10.4-22.8-12.1-0.1 0.2-0.2-0.1-0.1-0.2 1-1.1 5.9 1 7.2 1.6 3.8 1.5 7 3.9 10.4 6.1 2 0.9 3.6 2.4 5.6 3.1 0.5 0.2 0.4 1.7-0.3 1.5z"/><path  d="m150.9 132.2c-0.6-0.6-0.2-1.6-0.1-2.3 0.9-5.4 2.1-10.7 3.6-15.9-0.1-0.2-0.1-0.6 0.1-0.7 0.9 0.1 0.1 1.7 0.1 2.3-0.9 4.4-1.8 8.8-2.5 13.2-0.2 0.7-0.2 3.8-1.2 3.4z"/><path  d="m159.7 136.6c-1.5-1.5 2-6.7 2.4-8.9 0.2-0.5 2.2-7 2.9-5.9 0.1 0.2 0.2 1.3-0.2 1.1-1.7 4.1-2.7 8.4-4 12.6-0.1 0.5-0.5 1.6-1.1 1.1z"/><path  d="m112.9 131.1c-1.1-4.3-0.9-8.7-1.5-13 0-0.4-0.1-0.8 0.1-1.2 0.2-0.3 0.8 0.9 0.4 0.9 0.6 3 0.8 6 1.1 8.9 0.1 1.5 0.9 3 0.7 4.5-0.1 0.7-0.7 0.5-0.8-0.1z"/><path  d="m118.8 123.3c-0.1-0.4-0.9-14.1 0.2-11 0.2 0 0.2 0.4 0.1 0.3 0 2.6 0.3 5.3 0.5 7.9 0 1 0.4 2.1 0 3-0.3 0.6-0.7 0.2-0.8-0.2z"/><path  d="m126.9 132.2c-0.6-1.6-0.1-3.5-0.2-5.3 0-2.5 0.1-5 0.3-7.5 0.1-0.4 0.1-3.3 0.7-3 0.4 1.5-0.1 3.3 0.1 4.9-0.3 1 1 13-0.9 10.9z"/><path  d="m131.9 131.1c-0.6-3.9-0.3-8.1-0.6-12.1-0.1-1.7-0.1-3.4 0.1-5.1 0-0.1 0.1-0.4 0.2-0.3 0.1 0.1 0.3 0.2 0.3 0.4-0.1 0.1-0.2 0-0.2 0-0.6 1.5 2.3 19.3 0.2 17.1z"/><path  d="m111.1 122.7c-1.7-1.1 2.1-1.9 2.8-2.2 2.9-1.1 6-2 9.2-2.4 2.8-0.4 5.6-0.9 8.5-1 0.5 0.1 0.5 1.3 0 1.4-7 0.5-13.7 2.4-20.5 4.2z"/><path  d="m124.8 128.2c-0.1 0-0.2 0-0.2-0.1-0.4-0.8 1.1-0.7 1.5-1 1.9-0.5 3.8-1 5.6-1.7 0.6-0.1 0.6 0.9 0.5 1.3-0.2 0.5-0.8 0.3-1.1 0.4-2.1 0.3-4.2 1-6.3 1.1z"/><path  d="m120.7 125.4c1.3 3.3-0.1 6.8-0.4 10.2-0.4 2.3-0.6 4.6-0.9 6.9-0.9 3.8-1.2 7.7-2.1 11.5-0.1 0.5-0.2 1.1-0.7 1.3-0.4 0.9-2.2 0.5-3 0.3q0.1-0.1 0.2-0.2-0.1-0.3-0.2-0.5 0 0 0.1-0.1c-0.8-1.7 3.3-36.8 7-29.4z"/><path class="a" d="m293.4 120.5c-3.8-0.9-3.4-6.3-0.9-8.3 0.1-6.3 0.7-12.6 1.1-18.9 0.4-2.5 0.1-14.9 3.4-14.5 0.4-0.3 0.4 0.7 0.1 0.7-0.4 0.3-1 0.5-1.2 1.1-1.8 10-1.6 20.4-2.7 30.6 0.3 2.6-0.6 2.1-1.4 4.1-1.2 2.7 2.1 4.3 4.3 3.2 1.4-0.8 1.9-4.5 0.5-5.4-1-1.2 0.2-3.5 1.1-1.2 1.8 3.3 0.3 9.5-4.3 8.6z"/><path class="a" d="m296.6 112.6c-0.5-0.2-0.5-1-0.4-1.5 0.8-8.1 0.6-16.2 1.7-24.2-0.1-1.7 1.6-7-0.8-7.2-0.4-0.1-0.8-0.2-0.7-0.6 0.1-0.5 1-0.4 1.4-0.3 2.4 1.1 0.7 8.2 0.7 10.6-0.8 7.3-0.6 14.7-1.2 22 0 0.4-0.1 1.3-0.7 1.2z"/><path class="b" d="m318.4 32.9c-7.9-2.4-1.1-13.4 1.4-17.8 0.4-0.7 0.8-1.5 0.9-2.3-0.2-0.3 0.3-1.8 0.6-1.1 0.9 2.6 0.5 5.7 0.9 8.5 0.3 3.3 1.6 13.4-3.8 12.7zm0.5-1.4c5.1 0.3 1.8-13.8 2-17.1-1.3 4.2-9.9 15.4-2 17.1z"/><path fill-rule="evenodd" class="b" d="m329.2 40.9c-10.1-2.7-0.5-17.7-0.1-24.4 0.4-2.7 1.3 1.9 1.5 2.4 2.2 5 8.7 22.4-1.4 22zm1.5-1.2c7.6-2.5 0.1-16.7-1.2-21.8 0 5.9-9.5 21.7 1.2 21.8z"/><path fill-rule="evenodd" d="m354.4 322.9c-2.7 3.5-6.7 5.1-10.5 6.8-8.9 4.2-18.9 5.9-28.6 5.1-11.6-0.4-23-2.6-34.3-5.1-22.5-4.3-46-2.4-67.9 4.3-17.7 4.5-36.8 8.4-54.5 1.8-2.6-1-5.4-1.6-8.1-2.1-6.6-1.5-13-3.7-19.7-4.4-6.5-0.8-13.1-0.7-19.6-0.2-7.3 1.8-14.3 4.9-21.9 4.8-15.3-1.3-29.9-8.9-45.5-5.5-8.2 1.4-16.6 3.4-24.9 2-4.7-1-10.3-2.9-12.4-7.8-1.4-3.6-2.1-7.8-0.7-11.6 2.2-7.3 9-11.9 16-14.1 3.7-1.1 7.3-1.5 11.1-1.5q0.9 0 1.8 0c6.2 0.2 12.4 1.4 18.5 2 8.9 1 17.8 1.1 26.6 2.4 0.1-0.2 0.4-0.2 0.5 0q0.7 0.1 1.5 0.1c0.6 0.2 0 1.5-0.5 1.5q-0.4 0-0.8 0c0.3 3.3 0.8 6.6 2.2 9.6 2.4 4.5 5.4 8.7 8.5 12.8 5.3-3.5 10.1-7.7 13.8-12.9 1.9-3 2.7-6.5 3.6-9.8-0.2 0-0.5 0-0.8-0.1q0 0 0.1 0-0.1 0-0.1 0c-1.2 6.9-7.4 14.1-14.3 18.1-2.4 2.3-3.5-0.8-4.6-2.6-3.1-3.4-5.7-7.5-6.6-12.1-0.7-7.9 1.7-15.8 1.7-23.7 0.1-1.4-0.2-6.1 1.6-6.3 0.9 0.4 1.7 0.9 2.7 1.2 2.1 0.4 4.3 0.8 6.5 0.8q0.6-3.1 1.1-6.1c3.8-21.7 6.1-43.6 9.1-65.3 2.1-12 2.8-24.6 6.8-36 0.2-1-0.2-2.4 0.9-2.9 0.6-0.2 2.1-1.7 2.5-1.2 0.4 4.8-1.2 9.7-1.8 14.5-1.3 7.7-1.8 15.5-3.1 23.2-0.9 8.9-1.6 17.8-2.6 26.6-1.8 13.3-4.7 26.4-6.5 39.7q0 0.2 0.1 0.4c0.2 2.8-0.6 5.6-0.7 8.4 2.8 0.6 5.7 0.1 8.6 0.2 1 0.1 2.6-0.5 2.6 1 0.3 1.6-0.2 3.2-0.5 4.7-1.1 5.5-2.3 11.6-3.4 16.9 0.3-0.3 0.8-0.3 1.1-0.4 0.4-0.7 1.7-1.5 1.9-0.3 8.1-1.2 16.4-1.6 24.1-4.3 3.3-1.9 6.8-3.4 10.3-5 0.7-0.3 4.4-2.5 4.2-0.9 0.5-0.9 1.4 2 1.8 2.3 2.4 4.3 4.5 8.8 6.7 13.3 1.2 2.5 2.3 5.2 4.3 7.3 2.3 2.6 8.2 1.9 7.3-2.4 0.4-1 2-1 2.8-1.6 2.5-0.9 4.6-2.4 7-3.3 0.6-0.3 1.3-0.6 1.8-1.1 5.1-5.4 0.7-7.9-4.2-10.3-0.7-1.6-2.2-3.4-1-5.1-0.6-2.4 3-0.9 4.3-1.1q3 0.1 6 0.5c10.1 0.2 20.3 0.6 30.3-0.9 12.2-2 23.9-6 35.7-9.5q0.7-0.2 1.4-0.4 2.5-0.7 4.9-1.4c11.3-2.5 22.9-3.4 34.4-2.8 4.4 0.6 8.7 1.6 13 2.5 5.1 0.2 10.3 0.4 15.4 0.3q0.6 0 1.3 0.1 0.6 0 1.3 0c14.1 0.5 32-0.2 38.1 14.9 4.7 11.1 0.2 23.6-7.7 32zm-260.9-21.9c1.4-2.4 1.6-5.2 2.3-7.8 1.4-4.9 2.2-10 3.3-14.9-0.1-1.5 0.4-3 0.5-4.4-0.4-0.7 0.1-1.7 0.1-2.4l0.1-0.7c-0.7-0.3-1.4-0.4-2.1-0.7q-0.3-0.1-0.6-0.2 0 0.1 0 0.3c-0.3 2.4-0.9 4.7-1.1 7.1 0.1 0.8-0.1 2.1-1.1 2.1 0.2 7.2-1.6 14.4-1.4 21.6zm15.8-14.9c0.3-1.9 0.9-3.8 1.3-5.7-3.3 0.3-6.9 0.4-10.1-0.7-1.6 5.3-3.2 10.7-4.5 16.1-0.3 1.1-1.4 6.9-2.8 6.5-2.4-5.3 1.5-16.8 1.3-22.9-3.1-0.2-6.4-0.4-9.1-2.2-0.5 6.1-0.4 12.2-1.4 18.2-1.7 7.6-0.3 13.1 5 18.8 1.2-1.1 2 2.8 3.1 3.1 14.9-8.5 13.7-16.5 17.2-31.2z"/><path fill-rule="evenodd" class="b" d="m298.2 128.5c-2 0-4-0.4-6-1.1-0.9-0.2-1.5-0.2-1.5-1.3-27.9-7.7-32.2-49.9-0.9-56.3 16.8-3.5 30.4 13.1 32.3 28.5 1.7 13.9-8.8 30.9-23.9 30.2zm13.8-48.7c-7.1-9.1-20.5-10.9-30.1-4.9-20.2 10.5-14 37.1 3.7 46.7 1.8 1 3.6 2 5.6 2.6 0.7 0.5 2.3 0.3 2.3 1.4 1.7 0.6 3.4 0.6 5.1 0.6 7.7 0.4 14.2-4.7 18.1-11 7.7-11.1 4-26-4.7-35.4z"/><path class="b" d="m293.8 118.1c-1.1-1.2-1-3.9 0.4-4.7 0.5-1.4-0.2-28.2 2.2-23.9q-0.6 12.1-0.8 24.2c1.2 1.2 0.3 5.8-1.8 4.4z"/><path class="b" d="m300.9 92c-0.3 0-0.7-0.1-1-0.3-0.3-0.4 0-0.9 0.5-0.9 0.5-0.1 0.9 0 0.9 0.6 0 0.2-0.1 0.6-0.4 0.6z"/><path class="b" d="m300.6 95.9c-0.4 0-0.9-0.4-0.5-0.8 0.3-0.2 1.2-0.4 1.4 0 0.3 0.7-0.2 1.1-0.9 0.8z"/><path class="b" d="m300.2 101.2c-1.2-0.4-0.2-1.5 0.7-1.2 0.7 0.5 0.2 1.7-0.7 1.2z"/><path class="b" d="m300.3 106.1c-2.7-0.3 0.5-2.4 0.6-0.7 0 0.5-0.2 0.8-0.6 0.7z"/><path class="b" d="m300.3 111.1c-2.9 0 0.2-2.8 0.4-0.9 0 0.3 0 0.8-0.4 0.9z"/><path fill-rule="evenodd" class="b" d="m347.7 39.7c-5 6.5-13.2 10.1-21.3 9.7q-1.1-0.1-2.2-0.3c-3.7 0.3-7.3-1.9-10.4-3.7-5-2.9-9.3-7-11.9-12.3-11.2-27.3 19.3-42.8 39.4-25 7.8 8.1 13.5 21.5 6.4 31.6zm2.1-9c0.1-12.9-9.6-25.1-22.4-27.3-6.7-1-14.1 0.3-19.7 4.3-8.4 7.1-8.4 20.9-0.9 28.7 5.5 5.4 12.4 10.6 20.3 10.9 10 0.4 21.5-6 22.7-16.6z"/><path class="b" d="m227.8 40.3c-0.5-0.3-0.4-1.1-0.5-1.7-0.1-0.4-0.6-2.5 0.1-2.5 0.4 0.6 1.8 4.1 0.4 4.2z"/><path class="b" d="m233.5 69.6c-0.3-0.5-0.2-1-0.2-1.5 0.1-1.2-0.1-2.3 0-3.4 0.1-0.9 0.8-0.4 0.5 0.2-0.1 0.7 1.4 5.8-0.3 4.7z"/><path class="b" d="m213.5 57c0-0.3 0.1-0.9 0.5-1.1 1.1-0.1 2.2-0.5 3.3-0.7 1 1.2-2 1.8-2.7 2.4-0.6 0.4-1 0.2-1.1-0.6z"/><path class="b" d="m245.4 51.2c-0.8-0.2-2.5 0.3-3.1-0.4-0.1-0.4 0.1-0.6 0.5-0.6 0.9-0.2 1.7-0.3 2.5-0.5 0.7-0.3 0.9-0.1 1 0.6 0 0.6-0.1 1.1-0.9 0.9z"/><path class="b" d="m221 47.1c-0.6 0-1.1-0.2-1.7-0.3-0.6-0.1-1.2 0.2-1.5-0.5-0.2-0.5-0.2-1.9 0.6-1.8 0.9 0.5 1.7 1 2.6 1.4 0.6 0.2 0.9 1.3 0 1.2z"/><path class="b" d="m237.9 43.1c-0.7-0.4 1.4-2.2 1.5-3 0.4-0.6 0.8 0.2 0.8 0.6 0 0.5-0.3 0.8-0.7 1.1-0.5 0.4-1 1-1.6 1.3z"/><path class="b" d="m241.7 61.2c-0.6-0.9-1.5-1.6-2.3-2.4-0.2-0.2 0-1.2 0.4-0.7 0.8 0.5 2 0.7 2.5 1.6 0.3 0.5 0.2 1.8-0.6 1.5z"/><path class="b" d="m222 65.3c-0.7-1.4 0.8-2.5 1.4-3.6 1.1-0.1-0.3 2.4-0.3 2.9-0.2 0.6-0.6 1.5-1.1 0.7z"/><path class="b" d="m235.1 45.3c4.6 2 4.3 8 3 12-1.4 3.5-5.3 5.6-9 4.9-9-1.2-8.2-14.7-0.4-17.2 1.1-1.9 4.8-0.4 6.4 0.3z"/><path class="b" d="m225.1 48.8c-0.6-2.1 2.9-4.9 4.9-4.4 1.2 1-1.9 1.6-2.5 2.3-0.5 0.5-1.1 0.9-1.5 1.5-0.2 0.3-0.5 1.2-0.9 0.6z"/><path fill-rule="evenodd" class="b" d="m231.7 78.2c-8.4-0.6-16.9-4.3-22.1-11-5.4-7.6-8.2-19.1-1.8-26.8 5.2-6.6 13.5-11.8 22-12.1 8.9-1.5 19.3 1 23.9 9.4 8.7 18 0.8 41.8-22 40.5zm24.2-23.7c0.8-16.6-9.4-25.6-25.7-24.4-2.6 0.4-5.1 1.4-7.6 1.9-0.2 0-0.3-0.1-0.4-0.3-7.2 3.3-15.4 8.6-17 17-1.9 14.9 11.3 27.3 25.6 28.2 13.6 1.5 25.5-8.5 25.1-22.4z"/><path class="b" d="m278.4 265.9c-3.3 1.6-6.8 2.4-10.3 3.2-5.2 1-9.7 2.9-14.7 4.8 0 1.2 0.2 2.3 0.3 3.4 0.5 2.7 1.2 5.4 0.9 8-1.3 2.1-1.9-1.2-1.6-2.3-0.1 0-0.2-0.2-0.3-0.3-0.2-1.7-0.3-3.3-0.4-5 0-1.3-0.1-2.5-0.2-3.8-2.7-3.5-7.1-5.5-11.2-6.9-7.6-3.6-19.2-3.9-22.2-13.1-0.3-10.1 13.5-4.8 19-2.7 6.2 2.7 10.7 8.5 13.9 14.4q-0.3-7.6-0.4-15.3c-2.7-2.8-6.5-4.3-9.8-6.2-37.3-11.2-3.8-33.3 9.7 0.5-0.1-5.3 0.2-10.5 0.2-15.8-1.2-2.4-2.7-4.6-4.9-6.3-2.3-2.3-4.4-4.8-6.2-7.5-11.5-17.9 13.1-19 12.8 7.1 1.6-5.1 2.1-10.6 4.8-15.3 2.4-4.3 11-11 14.7-5 1.6 3.8 0.3 8.2-2.3 11.3-4.8 5.8-11.6 9.5-17.1 14.6q-0.1 9.8 0 19.6v0.1q0-0.1 0-0.1c5.1-9.4 15.3-21 26.8-20.5 3.5 0.6 4.7 4.9 3.2 7.8-3.4 6.2-11.2 9-17.7 10.7-4.5 1.4-8.4 3.5-12.3 6q0 8 0.1 15.9c1.9-3.1 4.3-5.9 6.9-8.5 4.9-5.9 12.1-12.2 20.3-11.1 12.3 2.3 6.3 15-2 18.3z"/><path fill-rule="evenodd" class="b" d="m346.4 252.3c-3.1 2-6.6 2.9-10 3.9-3.9 1-7.5 2.8-10.9 4.9q-0.1 0.1-0.2 0.1-0.2 0-0.3-0.1-0.1 0.3-0.1 0.6c-0.4 4.8-0.9 9.5-0.9 14.3q0 2.8 0.3 5.6c0.3 0.9 0.2 3.3-1.2 2.6-0.8-0.8-0.5-3.5-0.5-4.7q0-1.5 0.1-3.1 0-0.2 0-0.4c0.2-4.7 0-9.3 0.5-13.9-3.7-7.9-12.2-11-18.4-16.4-4.6-5-4.2-12 4.1-10.6 2.4 0.2 4.8 0.8 6.6 2.4 1.9 1.6 3.6 3.5 4.8 5.6 2.1 4.8 2.8 10.2 3.5 15.4 0-7.1 0.7-14.1 1.4-21.2q-0.2-0.4-0.1-1c-0.5 0.1-0.1-1.4-0.1-1.7-1.8-2.6-4-5-6.6-6.9-1.6-1-3.4-1.5-5-2.5-3.8-2.3-10.4-8.5-4.5-12.1 9.4-2.9 17.5 7.7 17.1 16.4 0.4-5.8 0.2-11.7 0.2-17.5-1.8-2.5-4.7-4-7.3-5.7-8.8-4.6-9-12.9 2.5-10.1 2.2 0.7 3.9 2.6 5.3 4.5 1.5 2.2 0.8 5.2 1.1 7.7 1.8-3.8 3.5-8.1 6.9-10.8 2.2-1.8 7-3.4 8.3 0.2 2 5.7-3.4 9.4-8.1 11-1.5 0.7-3.1 1.5-4.4 2.5-0.7 0.4-2.2 2.4-2.6 0.9-0.1 6.3 0.2 12.5-0.4 18.8 13.2-27.6 29.6-13 17.4-2.7-5.5 3.8-12.2 5.6-18 9-0.6 6.1-1.3 12.1-1.6 18.2 4.9-6.4 13.2-19.5 22.6-14.6 4.8 2.5 2.6 9.3-1.5 11.4zm-21-16.9q0 0.1 0 0.2 0 0 0 0 0-0.1 0-0.2z"/><path class="b" d="m34.7 295.4q1.2 4.4 2.3 8.9c0 1.5-1.5 1.7-1.6 0.1q-1.3-4.5-2.5-9c-3.5-12.8-6.6-25.7-7.5-38.9-1-0.2-2-0.4-3-0.4-1-0.1-1.8-0.1-2-1.2-10.2-3.8-15.7-14.8-14.6-25.3 1.3-10.5 5.1-15.3-1-25.6-5-10.7-7.5-22.4-0.5-32.8 0.4-1 0.8-2.1 0.9-3.2 0.4-2.8-1-5.3-1.8-7.9-1.4-4-2.3-11.1-1.2-15.1 1.6-6.2 10.5-9.4 15.4-4.9 2.3 2.1 4 4.8 5.4 7.5 1.4 2.8 1.7 5.9 1.7 8.9-0.2 5.4-1.1 10.5 3.4 14.4 16.9 21.6-7.4 29.1 1.6 46.3 3.4 6.6 8 13 8.4 20.7 0.9 7.8-2.3 18.7-11.8 18.6 1.4 13.3 5 26.1 8.4 38.9z"/><path class="a" d="m107.8 149.1c-1.1-0.7-2-1.7-2.9-2.5-0.2 0-0.4-0.4-0.3-0.6 0.3-0.6 1.3 0.7 1.7 0.8 0.6 0.6 2.1 0.7 2 1.7 0 0.3-0.2 0.7-0.5 0.6z"/><path class="a" d="m133 147.7c-1.7-0.1-3-1.4-4.3-2.4 0 0 0 0.1-0.1 0.1-0.2-1.1 1.8 0.8 2.2 0.8 0.7 0.5 1.7 0.3 2.4 0.7 0.1 0.2 0.1 0.7-0.2 0.8z"/><path class="a" d="m134.3 145.9c-0.4-0.4-3.9-2.3-3.3-2.7 0.9 1.1 2.6 1.1 3.7 1.8 0.1 0.3 0 1.1-0.4 0.9z"/><path class="a" d="m130.8 191.2c-0.4-0.1-0.3-1.1 0-0.6 1.9-0.2 3.5-1.2 5.1-2.2 2 0.9-4.4 3.2-5.1 2.8z"/><path class="a" d="m133.1 193.2c-0.1-0.1-0.4 0.1-0.4-0.2 0-0.1 0-0.1 0.1-0.1 0.9 0 1.8-0.3 2.6-0.7 3.4-1.4 5.7-5.4 9.5-5.9 0.1 0.3 0.1 0.7-0.2 0.9-1.4 0.5-2.8 1.1-4 2-2.2 1.8-4.6 3.9-7.6 4z"/><path class="a" d="m120.5 190.5c-2-0.2-3.8-1-5.6-1.9 0 0.1-0.2-0.1-0.2-0.1-0.2-0.7 2.5 0.6 3 0.6 1 0.3 2.2 0 3 0.4 0.2 0.3 0.2 0.9-0.2 1z"/><path class="a" d="m120.2 193c-0.9-0.2-5.9-0.5-4.7-2 0.1-0.1 0.1 0.1 0.1 0.2-0.2 0.1-0.2 0.2-0.1 0.3 1.3 1 3.2 0.6 4.7 0.6 0.3 0.1 0.3 0.9 0 0.9z"/><path class="a" d="m130 165.9c-0.2 0-0.4 0-0.5-0.1-0.1-0.1-0.1-0.4 0.2-0.4 0.1 0 0.3-0.1 0.3 0.1 1.9-0.1 3.4-1.2 5-1.9 1.7 1-4.3 2.6-5 2.3z"/><path class="a" d="m130.6 168.9c0.2-0.5 1.1-0.5 1.6-0.8 2.4-1 4.9-2 6.5-3.9 1.2 1.6-6.9 4.4-8.1 4.7z"/><path class="a" d="m90.1 250.9c-0.3-0.8 0.1-1.6 0.1-2.5 0.1-0.7 0-1.5 0.3-2.1 0.7-0.2 0.1 3.6 0.2 4.2 0.1 0.3-0.3 1-0.6 0.4z"/><path class="a" d="m93.1 249.7c-0.3-0.7-1.4-2.9-0.8-3.5 0.5-0.1 0.3 0.6 0.5 0.8 0.1 0.9 1.2 1.7 0.8 2.7-0.1 0.3-0.4 0.3-0.5 0z"/><path class="a" d="m153.7 268.7c-0.9-1.5-1-3.4-1.5-5-0.1-1-0.7-2-0.4-3 0.7-0.4 1.8 5.7 2.3 6.6 1-0.3 1.9-0.7 2.9-1-0.6-1.7-2.3-5.1-1.8-6.7 0.3-0.2 0.5 0.1 0.5 0.3 0.4 1.9 1.1 3.7 1.8 5.5 0.3 0.6 0.7 1.6 0 2-1.2 0.5-2.5 1.4-3.8 1.3z"/><path class="a" d="m77.2 254.4c-1.8-1.3-3.4-2.9-5.4-4-0.7-0.2-0.7-0.9-0.5-1.5 0.6-1.9 1.1-3.8 1.9-5.7 1.1-1.3 4.3 3.3 5.1 4.2 0.4 0.6 1.5 1 1.2 1.9-0.4 1.6-4-5.1-5.9-5.3q-0.8 2.6-1.6 5.3c0.4 0.5 6.8 5 5.2 5.1z"/><path class="a" d="m251.8 271.5c-6.6-9.3-16.1-15.3-26.8-19.1-0.4-0.2-0.8-0.2-1.1-0.5-0.1-0.2 0-0.5 0.3-0.4 10.9 3.5 21.1 9.7 27.8 19.2 4.6-7.9 20.5-17.5 29.4-19.1 0.4 0 0.3 0.7 0 0.8-8.3 0.8-21.3 9.8-27.1 15.9q0.1-0.1 0.1-0.1c-0.8 1-1.6 1.9-2.1 3.1 0 0.3-0.2 0.5-0.5 0.2z"/><path class="a" d="m278.6 232c-7.2 1.7-13.9 5.9-19.6 10.5-2 1.7-4.1 3.4-5.8 5.4-0.4 0.3-1 1.7-1.4 0.9h0.1c-2.3-3.8-6.2-6.2-9.5-8.9-3.7-2.9-7.6-5.7-12-7.4-0.3-0.2-0.9-0.1-1-0.5-0.1-0.3 0.2-0.4 0.5-0.3 6.2 1.7 19.2 11 22.2 16.6q0.5-0.5 1-1 0 0 0 0c6.9-7.4 15.7-13.4 25.5-16 0.3-0.1 0.3 0.6 0 0.7z"/><path class="a" d="m252.9 227.2c-0.9-4.9-2.8-9.6-5.6-13.7-1.8-2.7-4.4-5-6.2-7.7-0.1-0.3 0.4-0.2 0.3 0.1 5.6 5.7 10.6 12.4 11.7 20.6 2.6-5.9 5.7-11.7 9.7-16.9 1.4-1.7 3.2-2.9 4.6-4.6 0.6-0.6 0.8 0.9 0.4 1.2-6.9 5-10.7 13-14.3 20.5-0.1 0.3-0.3 1.2-0.6 0.5z"/><path class="a" d="m327.5 211.2c-1.9-6.2-4.4-10-10.9-12 0 0.1-0.2-0.1-0.3-0.1-0.6-1.5 3.2 0.5 3.6 0.7 4.4 1.7 6.5 6.2 7.8 10.4 1.7-3.2 4.3-5.9 7.1-8.2 1.3-1 2.8-1.7 4.1-2.7 0.6-0.3 0.6 0.9 0.3 1.1-4.5 2.3-8.6 5.6-11.1 10.1-0.1 0.2-0.4 0.9-0.6 0.7z"/><path class="a" d="m326.3 234.4c-2.8-5.5-5.3-11.7-10.4-15.7-1.4-1.2-3-2.3-4.8-2.9-0.1-0.2-0.1-0.6 0.1-0.7 0.2 0 0.7-0.2 0.7 0.2 7.5 3.2 11.7 11.2 14.5 18.4 2.7-3.8 6.1-7.2 9.8-9.9 0.6-0.5 10-7.1 8.3-4.1-7.3 2.9-13.6 8.5-18.2 14.7z"/><path class="a" d="m344.9 246.2c-6.3 4.6-15.9 7.5-19.6 15q0 0 0 0c-0.1 0.2-0.2 0.6-0.4 0.5q-0.1 0-0.1-0.1c-4.9-8.8-10.8-17.3-19.8-22.2-0.5 0.2-0.9-0.8-0.4-1 5.1 2.6 9.6 6.4 13.2 10.9 2.5 3.8 5 7.6 7.1 11.6 3.5-7.9 12.9-11 19.5-15.9 0.5-0.3 0.7 0.9 0.5 1.2z"/><path class="a" d="m24.5 252.4c-2-6.1-2-13-3.6-19.3-1.2-4.5-2.6-9-3.5-13.7-2.7-14.6-0.1-29.6-2.2-44.2-1.4-11.3-5.4-22.5-5.2-34 0.3-0.8 0.7 0.5 0.5 0.8 0.5 10.9 3.8 21.5 5.4 32.3 2.4 15.3-0.8 31 2.8 46.2 0.7 3.4 1.7 6.7 2.7 10.1 1.7 6.1 2.2 12.4 3.4 18.6 0 0.9 1.1 3.2-0.3 3.2z"/><path class="a" d="m111.8 76.4c-0.6-0.8 0.9-1.2 1.3-1.8 0.8-0.9 1.7-1.9 2.4-2.9 0.9-0.2-3.2 4.8-3.7 4.7z"/><path class="a" d="m109.2 76.1c-0.3-0.7 2.7-2.3 3.2-3.6 0.1-0.2 0.3-0.2 0.4 0 0.1 0.1 0 0.5-0.2 0.3-0.2 0.5-3.1 4.1-3.4 3.3z"/><path class="a" d="m105.7 77c-0.2-0.4 0.3-0.6 0.6-0.8 0.6-0.5 1.1-1.1 1.7-1.5 0.3-0.2 0.2 0.6 0 0.3-0.4 0.3-2 2.6-2.3 2z"/><path class="a" d="m126.6 70.4c-0.4-0.2-2.8-0.7-2.2-1.3 0.6 0.5 2.5 0.2 2.4 1 0 0.1 0 0.4-0.2 0.3z"/><path class="a" d="m128.3 69.1c-0.5-0.2-1.8-0.6-1.8-1.1 0.5 0.1 1.2 0.5 1.8 0.6 0.2 0 0.2 0.5 0 0.5z"/><path class="a" d="m66.7 135.2c-1.9-2.6-1.8-6.3 1.1-8.1 3.2-1.6 7-1.4 7.9-5.9 0.4-1.9 0.4-3.9 0.7-5.8 1.6-7.6 8.4-2.8 11.7-7.3 1.1-1.2 1.8-2.8 2-4.5 0.1-13 9-3.9 11.2-11.6 0.2-3.9 1.3-8 4.2-10.8 0.1-0.1 0.2-0.2 0.3-0.2 0.2 0 0.2 0.3 0 0.3-3.3 3-3.5 7.7-4 11.9-2.4 7-9.3 0.6-10.9 7.2-0.4 2.9-0.3 6-2.3 8.4-3.7 5.1-6.9 0.6-10.9 4.8-1.5 1.8-1 5.8-1.7 8.1-1.3 7-11.4 3.5-10 11 0.1 0.5 1.5 2.3 0.7 2.5z"/><path class="a" d="m92 111.1c-0.2-0.7 0.7-1 1-1.5 2.7-2.8-0.4-7 3-9.3 2.6-2.6 8.7-2.1 8-7.1 0-0.6-0.3-3.4 0.4-3.3 0.1 0 0.1 0.4-0.1 0.3-0.3 1.9 0.4 3.9-0.2 5.7-2.2 5.3-10.4 2.4-9.2 10.5-0.1 1.9-1 3.8-2.5 4.9-0.2 0.1-0.3 0-0.4-0.2z"/><path class="a" d="m81.4 118.7c0.2-1.7 1.3-3.5 2.8-4.4 1-0.6 2.5-0.4 3.3-1.4 0.1-0.1 0.2 0 0.2 0.1-0.8 1.5-2.9 1.3-4 2.5-0.9 1-1.4 2.2-1.8 3.5-0.2 0.3-0.5 0-0.5-0.3z"/><path class="a" d="m98.9 107.6c-0.6-4 2.8-5.5 5.7-7.1 0.6-0.5 1-1.1 1.3-1.7 0.1-0.3 0.3 0.1 0.1 0.2-1.3 3.8-6.5 3.4-6.5 8.2 0 0.3-0.3 0.9-0.6 0.4z"/><path class="a" d="m60.4 152c-0.9-10.9 13.2-8.9 9.8-18.8-0.3-1.6 0.5-3.3 1.7-4.2 0.2 0 0.1 0.3-0.1 0.3-3 2.5 0.5 6.2-0.8 9.3-2 5.3-10.4 6.3-10 12.9 0.1 0.4-0.4 1.2-0.6 0.5z"/><path class="a" d="m62.4 135.2c-1.5-0.3-1.1-6.8 0.3-5.6 0.1 0.2 0.4 0.6 0.2 0.9-0.3 0.2-0.3-0.4-0.5-0.5h0.1c-0.1 0-0.1 0.1-0.1 0.1-0.6 0.7-0.7 2.8-0.1 3.5 0.2 0.3 0.6 0.4 0.6 0.8 0.1 0.3-0.1 1.1-0.5 0.8z"/><path class="a" d="m227.7 296.9c-0.5-1.5 2.7-3.2 4-3.3 1-0.1 3.2 0.1 3.1 1.5-0.2 1.5-2.6-2.4-6.7 1.7 0 0.3-0.3 0.4-0.4 0.1z"/><path class="a" d="m240.9 301.7c-0.5-0.7 0.9-1.4 1.4-1.7 1.5-1.1 4-1 5.1 0.6 0.1 0.3-0.2 0.9-0.5 0.5-1.6-2-4.6-1-6 0.6z"/><path class="a" d="m251.4 295.9c-0.9-0.4 0-1.3 0.4-1.7 0.6-0.5 1.4-0.8 2.1-0.6 0.3 0.1 0.3 0.8 0 0.8-0.7-0.2-1.5 0-2.1 0.5q0 0 0.1-0.1-0.3 0.3-0.6 0.6c0.2 0 0.4 0.5 0.1 0.5z"/><path class="a" d="m260.6 291.2c-0.7-1.9 4.3-2.5 2.7-0.9-0.9-0.2-2.1-0.3-2.6 0.5q0 0.1 0 0.2c0.1 0.1 0 0.4-0.1 0.2z"/><path class="a" d="m306.5 299.4c-1.7-3.6-4.5-2.8-7.4-0.9 0.1 0.1 0.1 0.3 0 0.3-0.9-1.2 3.8-3.1 4.7-2.8 1.1-0.1 4.1 2.6 2.7 3.4z"/><path class="a" d="m312.4 299.8c-0.9-0.9 4.6-3.8 5.4-2.7 0.4 0.3 0.9 0.6 1 1.1 0.1 0.2-0.1 0.7-0.4 0.4-1.5-2.3-4.3-0.3-5.9 0.9 0.1 0.1 0 0.4-0.1 0.3z"/><path class="a" d="m325.7 295.8c-0.2-1 1.9-2.5 2.8-2.8 0.5-0.2 1.9-0.8 1.9 0.1 0 0.2 0 0.5-0.2 0.5-1.7-0.4-3.3 0.6-4.3 2 0 0.1 0 0.3-0.2 0.2z"/><path class="a" d="m308.3 286c-1.4-1.2-4.6-2.1-6.1-0.7 0.1 0.1 0 0.5-0.2 0.3-0.4-0.9 1.1-1.5 1.8-1.6 1.1-0.4 5.3 0.1 4.9 1.8 0 0.2-0.2 0.4-0.4 0.2z"/><path class="a" d="m332.3 286c-0.7-2.5 3.5-3.4 3.4-1.3-0.1 0.2-0.2 0.6-0.5 0.4-0.8-0.4-2.1-0.7-2.6 0.3-0.1 0.2 0.2 0.7-0.1 0.9-0.2 0-0.2-0.2-0.2-0.3z"/><path class="a" d="m205.2 302.8c-0.9-0.8-2.4-1.6-3.3-0.6 0.3 1.5-1.4-1.3 1.8-1.1 0.7 0.2 2 0.4 1.9 1.3 0 0.2-0.2 0.5-0.4 0.4z"/><path class="a" d="m205.4 313.6c-0.3-0.3 0.2-1 0.4-1.3 1.7-2.5 5.6-2.4 7.6-0.5 0.6-0.9 1.5-1.6 2.6-1.8 0.8-0.1 3.3-0.4 3 0.9 0 0.2-0.2 0.5-0.4 0.4-1.8-0.9-4.3-0.2-5.1 1.7-1.8-2.2-6.3-2.6-7.8 0.3 0 0.1-0.1 0.4-0.3 0.3z"/><path class="a" d="m238.6 316.5c-1.6-0.6 1.9-4 3.6-3 0.5 0.2 0.4 1.4-0.2 1.3-1.2-0.8-2.6-0.1-3.3 1 0.2 0.2 0.2 0.6-0.1 0.7z"/></g></g></svg>