<svg xmlns="http://www.w3.org/2000/svg" xmlns:xlink="http://www.w3.org/1999/xlink" width="128.383" height="128.38" viewBox="0 0 128.383 128.38">
  <defs>
    <clipPath id="clip-path">
      <rect id="Retângulo_616" data-name="Retângulo 616" width="128.383" height="128.38" fill="none"/>
    </clipPath>
  </defs>
  <g id="Grupo_733" data-name="Grupo 733" transform="translate(-17 -13)">
    <g id="Grupo_766" data-name="Grupo 766" transform="translate(17 13)" clip-path="url(#clip-path)">
      <path id="Caminho_957" data-name="Caminho 957" d="M145.383,77.191A64.191,64.191,0,1,1,81.19,13a64.19,64.19,0,0,1,64.192,64.19" transform="translate(-17 -13)"/>
      <path id="Caminho_958" data-name="Caminho 958" d="M41.818,87.125a7.731,7.731,0,0,1-.872-3.293c0-3.5,3.56-8.3,10.3-8.3,5.831,0,7.493,3.687,7.493,6.583,0,5.507-5.827,9.053-10.3,6.69l2.305-5.329a6.286,6.286,0,0,1,3.07-3.327l-1.1-3.077a8.376,8.376,0,0,0-7.493,5.186l-8.447,19.819H42.8l4.087-9.658c10.188,3.97,17.607-2.9,17.607-10.337,0-5.4-3.94-10.988-13.25-10.988-10.942,0-15.3,7.659-15.3,12.813a11.8,11.8,0,0,0,1.859,6.044Z" transform="translate(-24.945 -37.362)" fill="#fff7e0"/>
      <path id="Caminho_959" data-name="Caminho 959" d="M214.894,90.2h.417c.226,0,.491.043.491.3,0,.313-.242.34-.523.34h-.385Zm0,.946h.335l.575.96h.428l-.591-.995a.543.543,0,0,0,.555-.589c0-.439-.286-.632-.825-.632h-.856v2.215h.376v-.96Z" transform="translate(-99.829 -45.245)" fill="#fff7e0"/>
      <path id="Caminho_960" data-name="Caminho 960" d="M214.453,88.834a1.562,1.562,0,1,1-1.522,1.563,1.515,1.515,0,0,1,1.522-1.563m0,3.5a1.941,1.941,0,1,0-1.918-1.938,1.93,1.93,0,0,0,1.918,1.938" transform="translate(-98.998 -44.642)" fill="#fff7e0"/>
      <path id="Caminho_961" data-name="Caminho 961" d="M93.513,89.814c.8,0,1.474.539,1.474,1.859a11.119,11.119,0,0,1-.829,3.578,2.944,2.944,0,0,0-3.213,2.864,2.81,2.81,0,0,0,.826,2,3.888,3.888,0,0,1-2.69,1.753c-.908,0-1.474-.754-1.474-1.9,0-2.645,2.914-10.161,5.906-10.161m32.983.826c1.284,0,1.057.966.566,2.039-.761,1.683-1.891,3.187-5.379,2.611,0,0,2.011-4.65,4.812-4.65M89.124,105.592a10.489,10.489,0,0,0,7.914-3.544,8.951,8.951,0,0,0,5.431-1.41c-.344,3.49,1.664,4.952,4.26,4.952,3.068,0,5.858-2.068,8.259-4.977.543,3.1,3.062,4.977,7.684,4.977a15.138,15.138,0,0,0,9.094-2.962l-1.071,2.5h6.019l5.116-11.911a7.082,7.082,0,0,1,4.239-2.536c.566,0,1.021.283,1.021.783a17.568,17.568,0,0,1-1.324,3.615L145.2,96.4c-2.69,6.33-1.06,9.192,2.881,9.192,4.538,0,8.175-4.006,11.2-8.979a2.954,2.954,0,0,0-2.122-1.434c-2.688,4.4-5.3,6.909-6.814,6.909-.647,0-1.363-.466.381-4.584l1.852-4.256a10.852,10.852,0,0,0,1.139-4.039c0-1.9-1.255-3.114-3.637-3.114a11,11,0,0,0-6.212,2.36l.8-1.893h-6.021l-3.8,8.883c-2.69,4.334-6.69,6.642-10.473,6.642-4.8,0-3.71-3.725-3.71-3.725,7,.86,10.029-1.216,11.624-4.47,2.418-5.149-1.209-7.8-5.489-7.8-6.166,0-9.852,4.869-11.263,9.294-2.641,4.268-5.2,6.7-6.68,6.7-.648,0-1.323-.5.416-4.584l7.684-18.026h-6.017l-6.826,15.945c-1.52,2.341-3.311,3.594-5.106,3.87a14.688,14.688,0,0,0,1.7-6.542c0-4.153-2.536-6.653-7.117-6.653C85.562,86.1,81.853,94,81.853,98.79c0,4.083,2.575,6.8,7.271,6.8" transform="translate(-44.196 -40.877)" fill="#fff7e0"/>
      <path id="Caminho_962" data-name="Caminho 962" d="M110.137,78.988h-6.361L98.74,84.534H103.4Z" transform="translate(-51.278 -40.672)" fill="#fff7e0"/>
      <path id="Caminho_963" data-name="Caminho 963" d="M95.821,140.846h2.061l3.238,9.1h.041v-9.1h2.147v15.109h-2.019l-3.281-9.081h-.044v9.081H95.819V140.846Z" transform="translate(-50.053 -66.613)" fill="#fff7e0"/>
      <path id="Caminho_964" data-name="Caminho 964" d="M118.863,154.377a3.062,3.062,0,0,0-.589-.063c-.926,0-1.683.383-1.683,1.529,0,.826.422,1.379,1.114,1.379.715,0,1.157-.51,1.157-1.379Zm0,3.522h-.043a2.28,2.28,0,0,1-2.061,1.232c-.989,0-2.314-.49-2.314-2.865,0-2.461.693-3.651,3.386-3.651.294,0,.589.043,1.03.063v-1.125c0-.72-.274-1.273-1.074-1.273a1.252,1.252,0,0,0-1.221,1.083h-2.083a3.581,3.581,0,0,1,.967-2.335,3.206,3.206,0,0,1,2.335-.913A3.09,3.09,0,0,1,121,151.51V159h-2.144v-1.1Z" transform="translate(-57.864 -69.661)" fill="#fff7e0"/>
      <path id="Caminho_965" data-name="Caminho 965" d="M130.916,142.71h2.144v3.268h1.325v1.7H133.06v5.962c0,1,.379,1.062,1.325,1.062v2.038H133.5a2.392,2.392,0,0,1-2.586-2.525v-6.537h-1.074v-1.7h1.074Z" transform="translate(-64.321 -67.394)" fill="#fff7e0"/>
      <path id="Caminho_966" data-name="Caminho 966" d="M148.723,159.1h-2.144v-1.039h-.043a2.262,2.262,0,0,1-2.02,1.166c-1.074,0-2.208-.7-2.208-2.631v-8.254h2.145v7.448c0,.786.378,1.273,1.05,1.273.8,0,1.074-.53,1.074-1.485v-7.235h2.144V159.1Z" transform="translate(-69.548 -69.755)" fill="#fff7e0"/>
      <path id="Caminho_967" data-name="Caminho 967" d="M159.623,148.247h2.144v1.146a3.9,3.9,0,0,1,2.84-1.272v2.291a1.727,1.727,0,0,0-.652-.127,2.15,2.15,0,0,0-2.188,2.335v6.388h-2.144Z" transform="translate(-76.81 -69.663)" fill="#fff7e0"/>
      <path id="Caminho_968" data-name="Caminho 968" d="M176.5,154.377a3.062,3.062,0,0,0-.589-.063c-.926,0-1.683.383-1.683,1.529,0,.826.422,1.379,1.114,1.379.716,0,1.157-.51,1.157-1.379Zm0,3.522h-.043a2.28,2.28,0,0,1-2.061,1.232c-.989,0-2.314-.49-2.314-2.865,0-2.461.693-3.651,3.386-3.651.294,0,.589.043,1.03.063v-1.125c0-.72-.274-1.273-1.073-1.273a1.252,1.252,0,0,0-1.221,1.083h-2.083a3.581,3.581,0,0,1,.967-2.335,3.206,3.206,0,0,1,2.335-.913,3.09,3.09,0,0,1,3.217,3.394V159H176.5v-1.1Z" transform="translate(-82.035 -69.661)" fill="#fff7e0"/>
      <path id="Caminho_969" data-name="Caminho 969" d="M189.109,140.846h2.144v12.075c0,.806.231,1.039,1.051,1.125v2.038c-1.977,0-3.2-.509-3.2-3.014V140.846Z" transform="translate(-89.174 -66.613)" fill="#fff7e0"/>
    </g>
  </g>
</svg>
