<svg xmlns="http://www.w3.org/2000/svg" xmlns:xlink="http://www.w3.org/1999/xlink" width="259.217" height="125.88" viewBox="0 0 259.217 125.88">
  <defs>
    <clipPath id="clip-path">
      <rect id="Retângulo_35" data-name="Retângulo 35" width="120.717" height="122.065" fill="#231f20"/>
    </clipPath>
  </defs>
  <g id="Grupo_739" data-name="Grupo 739" transform="translate(-279.283 -5722)">
    <g id="Grupo_748" data-name="Grupo 748" transform="translate(139.283 1101.618)">
      <g id="Grupo_742" data-name="Grupo 742" transform="translate(140 4620.382)">
        <g id="Grupo_86" data-name="Grupo 86" clip-path="url(#clip-path)">
          <path id="Caminho_876" data-name="Caminho 876" d="M91.451,64.165a8.331,8.331,0,1,0-8.3-8.334,8.287,8.287,0,0,0,8.3,8.334" transform="translate(-31.065 -17.747)" fill="#231f20"/>
          <path id="Caminho_877" data-name="Caminho 877" d="M108.47,35.212a6.135,6.135,0,0,0,7.541-4.4,6.166,6.166,0,1,0-7.541,4.4" transform="translate(-38.818 -8.56)" fill="#231f20"/>
          <path id="Caminho_878" data-name="Caminho 878" d="M93.931,8.329a4.085,4.085,0,0,0,4.094-4.124A4.149,4.149,0,0,0,93.931,0,4.194,4.194,0,0,0,89.79,4.205a4.13,4.13,0,0,0,4.141,4.124" transform="translate(-33.545 0)" fill="#231f20"/>
          <path id="Caminho_879" data-name="Caminho 879" d="M77.368,35.048A6.284,6.284,0,0,0,81.776,27.4,6.2,6.2,0,0,0,74.2,22.934a6.26,6.26,0,0,0,3.164,12.114" transform="translate(-25.997 -8.49)" fill="#231f20"/>
          <path id="Caminho_880" data-name="Caminho 880" d="M51.093,19.935a4.173,4.173,0,0,0-4.149-7.241,4.317,4.317,0,0,0-1.481,5.755,4.119,4.119,0,0,0,5.63,1.486" transform="translate(-16.781 -4.536)" fill="#231f20"/>
          <path id="Caminho_881" data-name="Caminho 881" d="M52.917,69.97a8.289,8.289,0,0,0,3.014,11.374A8.149,8.149,0,0,0,67.18,78.294a8.4,8.4,0,0,0-3.014-11.369A8.2,8.2,0,0,0,52.917,69.97" transform="translate(-19.345 -24.588)" fill="#231f20"/>
          <path id="Caminho_882" data-name="Caminho 882" d="M50.428,50.616a6.322,6.322,0,0,0,.035-8.852,6.164,6.164,0,0,0-8.77-.038,6.332,6.332,0,0,0-.029,8.859,6.168,6.168,0,0,0,8.765.031" transform="translate(-14.896 -14.911)" fill="#231f20"/>
          <path id="Caminho_883" data-name="Caminho 883" d="M14.083,53.218a4.08,4.08,0,0,0,5.622-1.546,4.147,4.147,0,1,0-7.155-4.2,4.252,4.252,0,0,0,1.533,5.742" transform="translate(-4.483 -16.97)" fill="#231f20"/>
          <path id="Caminho_884" data-name="Caminho 884" d="M27.2,82.19A6.189,6.189,0,0,0,34.8,77.8a6.3,6.3,0,0,0-4.35-7.687,6.214,6.214,0,0,0-7.61,4.394A6.3,6.3,0,0,0,27.2,82.19" transform="translate(-8.453 -26.113)" fill="#231f20"/>
          <path id="Caminho_885" data-name="Caminho 885" d="M4.148,99.116a4.1,4.1,0,0,0,4.089-4.137,4.149,4.149,0,0,0-4.089-4.2A4.194,4.194,0,0,0,0,94.979a4.142,4.142,0,0,0,4.149,4.137" transform="translate(0 -33.916)" fill="#231f20"/>
          <path id="Caminho_886" data-name="Caminho 886" d="M64.181,118.016A8.38,8.38,0,0,0,67.2,106.652a8.2,8.2,0,0,0-11.249-3.036,8.338,8.338,0,0,0-3.014,11.364,8.132,8.132,0,0,0,11.249,3.036" transform="translate(-19.361 -38.292)" fill="#231f20"/>
          <path id="Caminho_887" data-name="Caminho 887" d="M30.233,116.812a6.269,6.269,0,0,0,4.424-7.648,6.2,6.2,0,0,0-7.571-4.457,6.271,6.271,0,0,0-4.411,7.643,6.2,6.2,0,0,0,7.558,4.462" transform="translate(-8.394 -39.041)" fill="#231f20"/>
          <path id="Caminho_888" data-name="Caminho 888" d="M14.083,136.768a4.171,4.171,0,0,0-1.533,5.686,4.083,4.083,0,0,0,5.682,1.486,4.2,4.2,0,0,0,1.473-5.683,4.1,4.1,0,0,0-5.622-1.489" transform="translate(-4.483 -50.885)" fill="#231f20"/>
          <path id="Caminho_889" data-name="Caminho 889" d="M41.3,136.4a6.325,6.325,0,0,0-.03,8.852,6.16,6.16,0,0,0,8.766.026,6.248,6.248,0,0,0,.009-8.792A6.13,6.13,0,0,0,41.3,136.4" transform="translate(-14.747 -50.288)" fill="#231f20"/>
          <path id="Caminho_890" data-name="Caminho 890" d="M45.462,171.519a4.23,4.23,0,0,0,1.481,5.683,4.169,4.169,0,0,0,4.149-7.232,4.062,4.062,0,0,0-5.63,1.549" transform="translate(-16.781 -63.289)" fill="#231f20"/>
          <path id="Caminho_891" data-name="Caminho 891" d="M99.725,129.166a8.24,8.24,0,1,0-8.238,8.329,8.3,8.3,0,0,0,8.238-8.329" transform="translate(-31.101 -45.125)" fill="#231f20"/>
          <path id="Caminho_892" data-name="Caminho 892" d="M81.276,159.984a6.256,6.256,0,0,0-4.342-7.687,6.167,6.167,0,0,0-7.608,4.393,6.25,6.25,0,0,0,4.359,7.644,6.17,6.17,0,0,0,7.592-4.35" transform="translate(-25.819 -56.814)" fill="#231f20"/>
          <path id="Caminho_893" data-name="Caminho 893" d="M89.79,185.761a4.137,4.137,0,0,0,4.141,4.136,4.092,4.092,0,0,0,4.094-4.136,4.147,4.147,0,0,0-4.094-4.2,4.192,4.192,0,0,0-4.141,4.2" transform="translate(-33.545 -67.832)" fill="#231f20"/>
          <path id="Caminho_894" data-name="Caminho 894" d="M111.112,164.492a6.291,6.291,0,0,0,4.416-7.66,6.14,6.14,0,0,0-7.584-4.4,6.236,6.236,0,0,0,3.169,12.063" transform="translate(-38.604 -56.861)" fill="#231f20"/>
          <path id="Caminho_895" data-name="Caminho 895" d="M136.74,169.97a4.222,4.222,0,0,0-1.486,5.673,4.11,4.11,0,1,0,1.486-5.673" transform="translate(-50.327 -63.289)" fill="#231f20"/>
          <path id="Caminho_896" data-name="Caminho 896" d="M130.014,114.981a8.367,8.367,0,0,0-3.007-11.365,8.246,8.246,0,0,0-11.3,3.036,8.383,8.383,0,0,0,3.005,11.365,8.2,8.2,0,0,0,11.305-3.036" transform="translate(-42.814 -38.292)" fill="#231f20"/>
          <path id="Caminho_897" data-name="Caminho 897" d="M143.683,136.827a6.08,6.08,0,0,0-8.7-.013,6.3,6.3,0,0,0-.094,8.842,6.17,6.17,0,0,0,8.773.025,6.34,6.34,0,0,0,.023-8.855" transform="translate(-49.734 -50.431)" fill="#231f20"/>
          <path id="Caminho_898" data-name="Caminho 898" d="M169.636,143.94a4.064,4.064,0,0,0,5.613-1.486,4.173,4.173,0,0,0-1.528-5.686,4.1,4.1,0,0,0-5.617,1.489,4.159,4.159,0,0,0,1.533,5.683" transform="translate(-62.596 -50.886)" fill="#231f20"/>
          <path id="Caminho_899" data-name="Caminho 899" d="M154.962,117.352a6.106,6.106,0,0,0,7.536-4.36,6.228,6.228,0,0,0-4.29-7.673,6.232,6.232,0,0,0-3.246,12.033" transform="translate(-56.183 -39.262)" fill="#231f20"/>
          <path id="Caminho_900" data-name="Caminho 900" d="M183.725,99.116a4.083,4.083,0,0,0,4.077-4.137,4.136,4.136,0,0,0-4.077-4.2,4.2,4.2,0,0,0-4.159,4.2,4.144,4.144,0,0,0,4.159,4.137" transform="translate(-67.085 -33.916)" fill="#231f20"/>
          <path id="Caminho_901" data-name="Caminho 901" d="M115.7,78.294a8.2,8.2,0,0,0,11.3,3.049,8.386,8.386,0,0,0,3.006-11.374,8.261,8.261,0,0,0-11.3-3.044A8.393,8.393,0,0,0,115.7,78.294" transform="translate(-42.814 -24.588)" fill="#231f20"/>
          <path id="Caminho_902" data-name="Caminho 902" d="M150.754,78.253a6.131,6.131,0,0,0,7.506,4.454,6.292,6.292,0,0,0,4.424-7.661,6.177,6.177,0,1,0-11.93,3.207" transform="translate(-56.236 -26.294)" fill="#231f20"/>
          <path id="Caminho_903" data-name="Caminho 903" d="M173.72,53.167a4.181,4.181,0,0,0,1.528-5.691,4.111,4.111,0,0,0-5.613-1.491,4.166,4.166,0,0,0-1.533,5.687,4.023,4.023,0,0,0,5.617,1.495" transform="translate(-62.596 -16.97)" fill="#231f20"/>
          <path id="Caminho_904" data-name="Caminho 904" d="M144.045,51.039a6.334,6.334,0,0,0,.024-8.86,6.167,6.167,0,0,0-8.76-.038,6.344,6.344,0,0,0-.04,8.869,6.181,6.181,0,0,0,8.775.029" transform="translate(-49.869 -15.069)" fill="#231f20"/>
          <path id="Caminho_905" data-name="Caminho 905" d="M136.74,19.935a4.114,4.114,0,0,0,5.623-1.486,4.233,4.233,0,0,0-1.478-5.755,4.092,4.092,0,0,0-5.631,1.559,4.218,4.218,0,0,0,1.486,5.682" transform="translate(-50.327 -4.536)" fill="#231f20"/>
        </g>
      </g>
    </g>
    <path id="Subtração_3" data-name="Subtração 3" d="M61,122A60.721,60.721,0,0,1,26.894,111.58a61.178,61.178,0,0,1-22.1-26.837,60.917,60.917,0,0,1,5.624-57.849,61.172,61.172,0,0,1,26.838-22.1,60.918,60.918,0,0,1,57.85,5.624,61.174,61.174,0,0,1,22.1,26.837A60.917,60.917,0,0,1,111.582,95.1a61.185,61.185,0,0,1-26.838,22.1A60.621,60.621,0,0,1,61,122ZM94.966,70.54h0V82.159c0,2.385,1.163,2.864,3.039,2.864V83.086c-.783-.082-1-.312-1-1.07V70.542h-2.04Zm-6.178,8.289a3.149,3.149,0,0,0-2.567.858,3.936,3.936,0,0,0-.649,2.611c0,2.369,1.378,2.722,2.2,2.722a2.156,2.156,0,0,0,1.959-1.17h.035V84.9H91.8V77.779a3.279,3.279,0,0,0-.892-2.414,3.283,3.283,0,0,0-4.383.056,3.4,3.4,0,0,0-.919,2.219h1.978a1.2,1.2,0,0,1,1.161-1.03c.667,0,1.02.418,1.02,1.21v1.07c-.176-.009-.329-.021-.465-.032h-.018C89.121,78.843,88.952,78.829,88.789,78.829ZM69.142,74.676v7.845c0,1.843,1.084,2.5,2.1,2.5a2.134,2.134,0,0,0,1.92-1.107h.04V84.9h2.036V74.676H73.2v6.876c0,.976-.315,1.411-1.02,1.411-.625,0-1-.452-1-1.208V74.676ZM56.986,78.829a3.149,3.149,0,0,0-2.567.858,3.937,3.937,0,0,0-.649,2.611c0,2.369,1.377,2.722,2.2,2.722a2.156,2.156,0,0,0,1.959-1.17h.038V84.9H60V77.779a3.279,3.279,0,0,0-.892-2.414,3.285,3.285,0,0,0-4.385.056A3.416,3.416,0,0,0,53.8,77.64h1.98a1.2,1.2,0,0,1,1.161-1.03c.667,0,1.019.418,1.019,1.21v1.07c-.175-.009-.327-.021-.461-.032l-.021,0C57.31,78.843,57.148,78.829,56.986,78.829ZM78.7,74.676V84.9h2.037V78.832a2.04,2.04,0,0,1,2.08-2.218,1.638,1.638,0,0,1,.619.12V74.556a3.682,3.682,0,0,0-2.7,1.208V74.676Zm-16.432,0V76.29h1.019V82.5a2.279,2.279,0,0,0,2.458,2.4h.839V82.964c-.873,0-1.26-.041-1.26-1.008V76.29h1.26V74.676h-1.26V71.571H63.284v3.105ZM45.529,76.271h.042l3.117,8.63h1.92V70.542h-2.04v8.653h-.039L45.45,70.542H43.493l0,14.359h2.038V76.272ZM26.394,37.737a7.324,7.324,0,0,0-4.531,1.585,8.644,8.644,0,0,0-2.591,3.344L11.246,61.5h5.722l3.882-9.179a15.223,15.223,0,0,0,5.522,1.106A11.173,11.173,0,0,0,34.5,50.075,11,11,0,0,0,37.582,42.5,9.819,9.819,0,0,0,34.6,35.35c-2.236-2.155-5.561-3.294-9.613-3.294-5.857,0-9.306,2.312-11.168,4.251a11.824,11.824,0,0,0-3.369,7.925,11.394,11.394,0,0,0,1.766,5.742l3.814-2.685a7.3,7.3,0,0,1-.829-3.13A7.458,7.458,0,0,1,17.7,38.968a10.29,10.29,0,0,1,7.3-2.695,7.2,7.2,0,0,1,5.638,2.1,6.288,6.288,0,0,1,1.482,4.159,7.062,7.062,0,0,1-6.928,7.064,6.05,6.05,0,0,1-2.857-.707l2.19-5.062a5.981,5.981,0,0,1,2.918-3.162Zm20.544,5.234A10.288,10.288,0,0,0,38.5,47.3a13.6,13.6,0,0,0-2.715,7.738,6.326,6.326,0,0,0,1.782,4.688A7.2,7.2,0,0,0,42.7,61.5a9.968,9.968,0,0,0,7.519-3.368c.2.015.4.022.6.022a8.559,8.559,0,0,0,4.565-1.362,4.386,4.386,0,0,0,.9,3.51,4.108,4.108,0,0,0,3.152,1.2c2.62,0,5.26-1.592,7.847-4.73a5.06,5.06,0,0,0,2.2,3.47A9.09,9.09,0,0,0,74.574,61.5a14.4,14.4,0,0,0,8.642-2.815L82.2,61.053h5.722L92.78,49.733a6.792,6.792,0,0,1,4.027-2.41c.58,0,.97.3.97.744a11.485,11.485,0,0,1-.952,2.7l-.005.012-.1.247-.2.475-.541,1.256a14.715,14.715,0,0,0-1.235,4.427,4.428,4.428,0,0,0,.565,2.839,3.794,3.794,0,0,0,3.407,1.471A8.9,8.9,0,0,0,104.578,59a25.687,25.687,0,0,0,4.787-6.038,2.8,2.8,0,0,0-2.018-1.363c-2.434,3.988-4.976,6.565-6.475,6.565a.585.585,0,0,1-.538-.245c-.34-.513-.037-1.9.9-4.11l1.76-4.045a10.27,10.27,0,0,0,1.083-3.838,2.776,2.776,0,0,0-.879-2.154,3.784,3.784,0,0,0-2.578-.8,10.518,10.518,0,0,0-5.9,2.241l.76-1.8H89.754l-3.613,8.441c-2.454,3.951-6.175,6.31-9.953,6.31a3.727,3.727,0,0,1-3.149-1.155,2.961,2.961,0,0,1-.375-2.383,23.217,23.217,0,0,0,2.8.185,10.379,10.379,0,0,0,5.4-1.235,7.312,7.312,0,0,0,2.84-3.2c.931-1.984.978-3.733.135-5.061-.932-1.469-2.933-2.346-5.352-2.346-5.812,0-9.34,4.562-10.7,8.831A25.961,25.961,0,0,1,64.2,56.5a4.7,4.7,0,0,1-2.764,1.661.571.571,0,0,1-.519-.239c-.338-.511-.03-1.9.916-4.116l7.3-17.13H63.42L56.933,51.832c-1.382,2.13-3.06,3.4-4.852,3.677a13.948,13.948,0,0,0,1.62-6.218,6.194,6.194,0,0,0-1.748-4.64A7.036,7.036,0,0,0,46.938,42.971Zm62.777-1.337a1.844,1.844,0,1,0,1.832,1.846A1.836,1.836,0,0,0,109.715,41.634ZM49.889,36.411,45.1,41.681h4.429l6.4-5.27H49.889Zm38.781,46.8c-.643,0-1.058-.515-1.058-1.311,0-1.2.87-1.452,1.6-1.452a2.885,2.885,0,0,1,.558.06V81.9C89.77,82.717,89.358,83.207,88.67,83.207Zm-31.8,0c-.644,0-1.06-.515-1.06-1.311,0-1.2.87-1.452,1.6-1.452a2.908,2.908,0,0,1,.561.06V81.9C57.968,82.717,57.556,83.207,56.867,83.207ZM42.654,57.96c-.851,0-1.4-.707-1.4-1.8,0-2.557,2.793-9.657,5.61-9.657.877,0,1.4.661,1.4,1.767a10.622,10.622,0,0,1-.786,3.4c-.038,0-.08,0-.133,0a2.8,2.8,0,0,0-2.919,2.725,2.685,2.685,0,0,0,.783,1.9A3.667,3.667,0,0,1,42.654,57.96Zm32.317-6.134a8.232,8.232,0,0,1-1.337-.12h0v0l0-.008a12.885,12.885,0,0,1,1.284-2.2c.739-1.007,1.908-2.208,3.284-2.208a.888.888,0,0,1,.81.31c.245.381-.015,1.069-.27,1.626A3.757,3.757,0,0,1,74.971,51.826Zm34.744-6.864a1.432,1.432,0,0,1-1.445-1.482,1.493,1.493,0,0,1,.424-1.069,1.473,1.473,0,1,1,1.021,2.551Zm-.374-1.342h.321l.548.912h.406l-.562-.945a.516.516,0,0,0,.528-.559c0-.4-.256-.6-.783-.6h-.814v2.1h.357v-.911Zm.368-.292h-.365v-.609h.4c.314,0,.466.094.466.287C110.207,43.3,109.981,43.328,109.709,43.328Z" transform="translate(416 5725.382)" fill="#231f20" stroke="rgba(0,0,0,0)" stroke-width="1"/>
  </g>
</svg>
