<svg version="1.2" xmlns="http://www.w3.org/2000/svg" viewBox="0 0 11 14" width="11" height="14"><defs><clipPath clipPathUnits="userSpaceOnUse" id="cp1"><path d="m-638-2418h960v4094h-960z"/></clipPath></defs><style>.a{fill:#ea9a00}</style><g clip-path="url(#cp1)"><path fill-rule="evenodd" class="a" d="m1.2 14v-1.1h3.7v-3h-1.5q-1.4 0-2.4-0.9-1-1-1-2.4 0-1 0.6-1.9 0.5-0.8 1.4-1.2 0.2-1.3 1.1-2.1 1-0.9 2.3-0.9 1.2 0 2.2 0.9 0.9 0.8 1.1 2.1 0.9 0.4 1.5 1.2 0.5 0.9 0.5 1.9 0 1.4-1 2.4-0.9 0.9-2.3 0.9h-1.5v3h3.8v1.1zm2.2-5.1h4q1 0 1.7-0.7 0.7-0.6 0.7-1.6 0-0.7-0.4-1.3-0.4-0.6-1.1-0.9l-0.5-0.2-0.1-0.6q-0.1-0.9-0.7-1.5-0.7-0.5-1.6-0.5-0.9 0-1.5 0.5-0.7 0.6-0.8 1.5l-0.1 0.6-0.5 0.2q-0.6 0.3-1 0.9-0.4 0.6-0.4 1.3 0 1 0.6 1.6 0.7 0.7 1.7 0.7z"/></g></svg>