<svg version="1.2" xmlns="http://www.w3.org/2000/svg" viewBox="0 0 12 12" width="12" height="12"><defs><clipPath clipPathUnits="userSpaceOnUse" id="cp1"><path d="m-705-2361h960v3303h-960z"/></clipPath></defs><style>.a{fill:#f7941d}</style><g clip-path="url(#cp1)"><path fill-rule="evenodd" class="a" d="m6 12q-1.1 0-2-0.4-1-0.3-1.7-1l-1.2 1.1q-0.2 0.2-0.4 0.2-0.2 0-0.3-0.2-0.2-0.1-0.2-0.3 0-0.3 0.2-0.4l1.1-1.2q-0.7-0.7-1-1.7-0.4-0.9-0.4-2 0-2.5 1.7-4.2 1.7-1.7 4.2-1.7h5.9v5.9q0 2.5-1.7 4.2-1.7 1.7-4.2 1.7zm0-1.1q2 0 3.4-1.4 1.4-1.4 1.4-3.4v-4.8h-4.8q-2 0-3.4 1.4-1.4 1.4-1.4 3.4 0 0.8 0.3 1.6 0.3 0.8 0.8 1.4l3.9-4q0.2-0.2 0.4-0.2 0.2 0 0.4 0.2 0.2 0.2 0.2 0.4 0 0.2-0.2 0.4l-4 3.9q0.6 0.5 1.4 0.8 0.8 0.3 1.6 0.3z"/></g></svg>