<svg xmlns="http://www.w3.org/2000/svg" xmlns:xlink="http://www.w3.org/1999/xlink" width="1920" height="384" viewBox="0 0 1920 384">
  <defs>
    <clipPath id="clip-path">
      <rect id="Retângulo_614" data-name="Retângulo 614" width="384" height="384" fill="#fff7e0"/>
    </clipPath>
    <clipPath id="clip-path-2">
      <rect id="Retângulo_614-2" data-name="Retângulo 614" width="384" height="384" transform="translate(-0.198)" fill="#fff7e0"/>
    </clipPath>
    <clipPath id="clip-path-3">
      <rect id="Retângulo_614-3" data-name="Retângulo 614" width="384" height="384" transform="translate(-0.396)" fill="#fff7e0"/>
    </clipPath>
    <clipPath id="clip-path-4">
      <rect id="Retângulo_614-4" data-name="Retângulo 614" width="384" height="384" transform="translate(0.396)" fill="#fff7e0"/>
    </clipPath>
    <clipPath id="clip-path-5">
      <rect id="Retângulo_614-5" data-name="Retângulo 614" width="384" height="384" transform="translate(0.198)" fill="#fff7e0"/>
    </clipPath>
  </defs>
  <g id="Grupo_736" data-name="Grupo 736" transform="translate(0 -878)">
    <g id="Grupo_755" data-name="Grupo 755" transform="translate(0 878)">
      <g id="Grupo_754" data-name="Grupo 754" clip-path="url(#clip-path)">
        <path id="Caminho_955" data-name="Caminho 955" d="M384,27.957V26.726A26.726,26.726,0,0,1,357.274,0h-1.4a26.726,26.726,0,0,1-26.726,26.726A26.726,26.726,0,0,1,302.422,0h-1.4A26.725,26.725,0,0,1,274.3,26.726,26.726,26.726,0,0,1,247.57,0h-1.4a26.726,26.726,0,0,1-26.726,26.726A26.726,26.726,0,0,1,192.718,0h-1.437a26.725,26.725,0,0,1-26.726,26.726A26.725,26.725,0,0,1,137.83,0h-1.4A26.726,26.726,0,0,1,109.7,26.726,26.726,26.726,0,0,1,82.977,0h-1.4A26.725,26.725,0,0,1,54.852,26.726,26.726,26.726,0,0,1,28.126,0h-1.4A26.726,26.726,0,0,1,0,26.726H0v1.231H0A26.726,26.726,0,0,1,26.726,54.682,26.726,26.726,0,0,1,0,81.408H0v1.231H0a26.726,26.726,0,0,1,26.726,26.726A26.726,26.726,0,0,1,0,136.09H0v1.231H0a26.726,26.726,0,1,1,0,53.451H0V192.1H0a26.726,26.726,0,0,1,26.726,26.725A26.726,26.726,0,0,1,0,245.554H0v1.231H0a26.726,26.726,0,0,1,26.726,26.726A26.726,26.726,0,0,1,0,300.237H0v1.231H0a26.726,26.726,0,0,1,26.726,26.726A26.726,26.726,0,0,1,0,354.919H0v1.231H0a26.726,26.726,0,0,1,26.726,26.726c0,.377-.013.752-.028,1.125h1.457c-.015-.373-.028-.748-.028-1.125a26.726,26.726,0,0,1,53.452,0c0,.377-.013.752-.028,1.125h1.457c-.015-.373-.028-.748-.028-1.125a26.726,26.726,0,0,1,53.452,0c0,.377-.013.752-.028,1.125h1.457c-.015-.373-.028-.748-.028-1.125a26.726,26.726,0,0,1,53.452,0c0,.377-.013.752-.028,1.125h1.493c-.015-.373-.028-.748-.028-1.125a26.726,26.726,0,0,1,53.452,0c0,.377-.013.752-.028,1.125H247.6c-.016-.373-.028-.748-.028-1.125a26.726,26.726,0,0,1,53.452,0c0,.377-.013.752-.028,1.125h1.457c-.015-.373-.028-.748-.028-1.125a26.726,26.726,0,0,1,53.452,0c0,.377-.013.752-.028,1.125H357.3c-.015-.373-.028-.748-.028-1.125A26.726,26.726,0,0,1,384,356.149v-1.231a26.726,26.726,0,1,1,0-53.451v-1.231a26.726,26.726,0,1,1,0-53.451v-1.231a26.725,26.725,0,1,1,0-53.451v-1.332a26.726,26.726,0,1,1,0-53.451V136.09a26.725,26.725,0,1,1,0-53.451V81.408a26.726,26.726,0,1,1,0-53.451M54.852,354.919a26.726,26.726,0,1,1,26.725-26.726,26.726,26.726,0,0,1-26.725,26.726m0-54.682a26.726,26.726,0,1,1,26.725-26.726,26.726,26.726,0,0,1-26.725,26.726m0-54.682a26.725,26.725,0,1,1,26.725-26.726,26.726,26.726,0,0,1-26.725,26.726m0-54.783a26.726,26.726,0,1,1,26.725-26.726,26.726,26.726,0,0,1-26.725,26.726m0-54.682a26.725,26.725,0,1,1,26.725-26.725A26.726,26.726,0,0,1,54.852,136.09m0-54.682A26.726,26.726,0,1,1,81.578,54.682,26.726,26.726,0,0,1,54.852,81.408M109.7,354.919a26.726,26.726,0,1,1,26.726-26.726A26.726,26.726,0,0,1,109.7,354.919m0-54.682a26.726,26.726,0,1,1,26.726-26.726A26.726,26.726,0,0,1,109.7,300.237m0-54.682a26.725,26.725,0,1,1,26.726-26.726A26.726,26.726,0,0,1,109.7,245.554m0-54.783a26.726,26.726,0,1,1,26.726-26.726A26.726,26.726,0,0,1,109.7,190.772m0-54.682a26.725,26.725,0,1,1,26.726-26.725A26.726,26.726,0,0,1,109.7,136.09m0-54.682A26.726,26.726,0,1,1,136.43,54.682,26.726,26.726,0,0,1,109.7,81.408m54.852,273.511a26.726,26.726,0,1,1,26.726-26.726,26.725,26.725,0,0,1-26.726,26.726m0-54.682a26.726,26.726,0,1,1,26.726-26.726,26.725,26.725,0,0,1-26.726,26.726m0-54.682a26.725,26.725,0,1,1,26.726-26.726,26.725,26.725,0,0,1-26.726,26.726m0-54.783a26.726,26.726,0,1,1,26.726-26.726,26.725,26.725,0,0,1-26.726,26.726m0-54.682a26.725,26.725,0,1,1,26.726-26.725,26.725,26.725,0,0,1-26.726,26.725m0-54.682a26.726,26.726,0,1,1,26.726-26.726,26.725,26.725,0,0,1-26.726,26.726m54.889,273.511a26.726,26.726,0,1,1,26.726-26.726,26.726,26.726,0,0,1-26.726,26.726m0-54.682a26.726,26.726,0,1,1,26.726-26.726,26.726,26.726,0,0,1-26.726,26.726m0-54.682a26.725,26.725,0,1,1,26.726-26.726,26.726,26.726,0,0,1-26.726,26.726m0-54.783a26.726,26.726,0,1,1,26.726-26.726,26.726,26.726,0,0,1-26.726,26.726m0-54.682a26.725,26.725,0,1,1,26.726-26.725,26.726,26.726,0,0,1-26.726,26.725m0-54.682A26.726,26.726,0,1,1,246.17,54.682a26.726,26.726,0,0,1-26.726,26.726M274.3,354.919a26.726,26.726,0,1,1,26.726-26.726A26.726,26.726,0,0,1,274.3,354.919m0-54.682a26.726,26.726,0,1,1,26.726-26.726A26.726,26.726,0,0,1,274.3,300.237m0-54.682a26.725,26.725,0,1,1,26.726-26.726A26.726,26.726,0,0,1,274.3,245.554m0-54.783a26.726,26.726,0,1,1,26.726-26.726A26.726,26.726,0,0,1,274.3,190.772m0-54.682a26.725,26.725,0,1,1,26.726-26.725A26.726,26.726,0,0,1,274.3,136.09m0-54.682a26.726,26.726,0,1,1,26.726-26.726A26.726,26.726,0,0,1,274.3,81.408m54.852,273.511a26.726,26.726,0,1,1,26.726-26.726,26.726,26.726,0,0,1-26.726,26.726m0-54.682a26.726,26.726,0,1,1,26.726-26.726,26.726,26.726,0,0,1-26.726,26.726m0-54.682a26.725,26.725,0,1,1,26.726-26.726,26.726,26.726,0,0,1-26.726,26.726m0-54.783a26.726,26.726,0,1,1,26.726-26.726,26.726,26.726,0,0,1-26.726,26.726m0-54.682a26.725,26.725,0,1,1,26.726-26.725,26.726,26.726,0,0,1-26.726,26.725m0-54.682a26.726,26.726,0,1,1,26.726-26.726,26.726,26.726,0,0,1-26.726,26.726" fill="#fff7e0"/>
      </g>
    </g>
    <g id="Grupo_756" data-name="Grupo 756" transform="translate(384.198 878)">
      <g id="Grupo_754-2" data-name="Grupo 754" transform="translate(0)" clip-path="url(#clip-path-2)">
        <path id="Caminho_955-2" data-name="Caminho 955" d="M384,27.957V26.726A26.726,26.726,0,0,1,357.274,0h-1.4a26.726,26.726,0,0,1-26.726,26.726A26.726,26.726,0,0,1,302.422,0h-1.4A26.725,26.725,0,0,1,274.3,26.726,26.726,26.726,0,0,1,247.57,0h-1.4a26.726,26.726,0,0,1-26.726,26.726A26.726,26.726,0,0,1,192.718,0h-1.437a26.725,26.725,0,0,1-26.726,26.726A26.725,26.725,0,0,1,137.83,0h-1.4A26.726,26.726,0,0,1,109.7,26.726,26.726,26.726,0,0,1,82.977,0h-1.4A26.725,26.725,0,0,1,54.852,26.726,26.726,26.726,0,0,1,28.126,0h-1.4A26.726,26.726,0,0,1,0,26.726H0v1.231H0A26.726,26.726,0,0,1,26.726,54.682,26.726,26.726,0,0,1,0,81.408H0v1.231H0a26.726,26.726,0,0,1,26.726,26.726A26.726,26.726,0,0,1,0,136.09H0v1.231H0a26.726,26.726,0,1,1,0,53.451H0V192.1H0a26.726,26.726,0,0,1,26.726,26.725A26.726,26.726,0,0,1,0,245.554H0v1.231H0a26.726,26.726,0,0,1,26.726,26.726A26.726,26.726,0,0,1,0,300.237H0v1.231H0a26.726,26.726,0,0,1,26.726,26.726A26.726,26.726,0,0,1,0,354.919H0v1.231H0a26.726,26.726,0,0,1,26.726,26.726c0,.377-.013.752-.028,1.125h1.457c-.015-.373-.028-.748-.028-1.125a26.726,26.726,0,0,1,53.452,0c0,.377-.013.752-.028,1.125h1.457c-.015-.373-.028-.748-.028-1.125a26.726,26.726,0,0,1,53.452,0c0,.377-.013.752-.028,1.125h1.457c-.015-.373-.028-.748-.028-1.125a26.726,26.726,0,0,1,53.452,0c0,.377-.013.752-.028,1.125h1.493c-.015-.373-.028-.748-.028-1.125a26.726,26.726,0,0,1,53.452,0c0,.377-.013.752-.028,1.125H247.6c-.016-.373-.028-.748-.028-1.125a26.726,26.726,0,0,1,53.452,0c0,.377-.013.752-.028,1.125h1.457c-.015-.373-.028-.748-.028-1.125a26.726,26.726,0,0,1,53.452,0c0,.377-.013.752-.028,1.125H357.3c-.015-.373-.028-.748-.028-1.125A26.726,26.726,0,0,1,384,356.149v-1.231a26.726,26.726,0,1,1,0-53.451v-1.231a26.726,26.726,0,1,1,0-53.451v-1.231a26.725,26.725,0,1,1,0-53.451v-1.332a26.726,26.726,0,1,1,0-53.451V136.09a26.725,26.725,0,1,1,0-53.451V81.408a26.726,26.726,0,1,1,0-53.451M54.852,354.919a26.726,26.726,0,1,1,26.725-26.726,26.726,26.726,0,0,1-26.725,26.726m0-54.682a26.726,26.726,0,1,1,26.725-26.726,26.726,26.726,0,0,1-26.725,26.726m0-54.682a26.725,26.725,0,1,1,26.725-26.726,26.726,26.726,0,0,1-26.725,26.726m0-54.783a26.726,26.726,0,1,1,26.725-26.726,26.726,26.726,0,0,1-26.725,26.726m0-54.682a26.725,26.725,0,1,1,26.725-26.725A26.726,26.726,0,0,1,54.852,136.09m0-54.682A26.726,26.726,0,1,1,81.578,54.682,26.726,26.726,0,0,1,54.852,81.408M109.7,354.919a26.726,26.726,0,1,1,26.726-26.726A26.726,26.726,0,0,1,109.7,354.919m0-54.682a26.726,26.726,0,1,1,26.726-26.726A26.726,26.726,0,0,1,109.7,300.237m0-54.682a26.725,26.725,0,1,1,26.726-26.726A26.726,26.726,0,0,1,109.7,245.554m0-54.783a26.726,26.726,0,1,1,26.726-26.726A26.726,26.726,0,0,1,109.7,190.772m0-54.682a26.725,26.725,0,1,1,26.726-26.725A26.726,26.726,0,0,1,109.7,136.09m0-54.682A26.726,26.726,0,1,1,136.43,54.682,26.726,26.726,0,0,1,109.7,81.408m54.852,273.511a26.726,26.726,0,1,1,26.726-26.726,26.725,26.725,0,0,1-26.726,26.726m0-54.682a26.726,26.726,0,1,1,26.726-26.726,26.725,26.725,0,0,1-26.726,26.726m0-54.682a26.725,26.725,0,1,1,26.726-26.726,26.725,26.725,0,0,1-26.726,26.726m0-54.783a26.726,26.726,0,1,1,26.726-26.726,26.725,26.725,0,0,1-26.726,26.726m0-54.682a26.725,26.725,0,1,1,26.726-26.725,26.725,26.725,0,0,1-26.726,26.725m0-54.682a26.726,26.726,0,1,1,26.726-26.726,26.725,26.725,0,0,1-26.726,26.726m54.889,273.511a26.726,26.726,0,1,1,26.726-26.726,26.726,26.726,0,0,1-26.726,26.726m0-54.682a26.726,26.726,0,1,1,26.726-26.726,26.726,26.726,0,0,1-26.726,26.726m0-54.682a26.725,26.725,0,1,1,26.726-26.726,26.726,26.726,0,0,1-26.726,26.726m0-54.783a26.726,26.726,0,1,1,26.726-26.726,26.726,26.726,0,0,1-26.726,26.726m0-54.682a26.725,26.725,0,1,1,26.726-26.725,26.726,26.726,0,0,1-26.726,26.725m0-54.682A26.726,26.726,0,1,1,246.17,54.682a26.726,26.726,0,0,1-26.726,26.726M274.3,354.919a26.726,26.726,0,1,1,26.726-26.726A26.726,26.726,0,0,1,274.3,354.919m0-54.682a26.726,26.726,0,1,1,26.726-26.726A26.726,26.726,0,0,1,274.3,300.237m0-54.682a26.725,26.725,0,1,1,26.726-26.726A26.726,26.726,0,0,1,274.3,245.554m0-54.783a26.726,26.726,0,1,1,26.726-26.726A26.726,26.726,0,0,1,274.3,190.772m0-54.682a26.725,26.725,0,1,1,26.726-26.725A26.726,26.726,0,0,1,274.3,136.09m0-54.682a26.726,26.726,0,1,1,26.726-26.726A26.726,26.726,0,0,1,274.3,81.408m54.852,273.511a26.726,26.726,0,1,1,26.726-26.726,26.726,26.726,0,0,1-26.726,26.726m0-54.682a26.726,26.726,0,1,1,26.726-26.726,26.726,26.726,0,0,1-26.726,26.726m0-54.682a26.725,26.725,0,1,1,26.726-26.726,26.726,26.726,0,0,1-26.726,26.726m0-54.783a26.726,26.726,0,1,1,26.726-26.726,26.726,26.726,0,0,1-26.726,26.726m0-54.682a26.725,26.725,0,1,1,26.726-26.725,26.726,26.726,0,0,1-26.726,26.725m0-54.682a26.726,26.726,0,1,1,26.726-26.726,26.726,26.726,0,0,1-26.726,26.726" transform="translate(-0.198)" fill="#fff7e0"/>
      </g>
    </g>
    <g id="Grupo_757" data-name="Grupo 757" transform="translate(768.397 878)">
      <g id="Grupo_754-3" data-name="Grupo 754" transform="translate(0)" clip-path="url(#clip-path-3)">
        <path id="Caminho_955-3" data-name="Caminho 955" d="M384,27.957V26.726A26.726,26.726,0,0,1,357.274,0h-1.4a26.726,26.726,0,0,1-26.726,26.726A26.726,26.726,0,0,1,302.422,0h-1.4A26.725,26.725,0,0,1,274.3,26.726,26.726,26.726,0,0,1,247.57,0h-1.4a26.726,26.726,0,0,1-26.726,26.726A26.726,26.726,0,0,1,192.718,0h-1.437a26.725,26.725,0,0,1-26.726,26.726A26.725,26.725,0,0,1,137.83,0h-1.4A26.726,26.726,0,0,1,109.7,26.726,26.726,26.726,0,0,1,82.977,0h-1.4A26.725,26.725,0,0,1,54.852,26.726,26.726,26.726,0,0,1,28.126,0h-1.4A26.726,26.726,0,0,1,0,26.726H0v1.231H0A26.726,26.726,0,0,1,26.726,54.682,26.726,26.726,0,0,1,0,81.408H0v1.231H0a26.726,26.726,0,0,1,26.726,26.726A26.726,26.726,0,0,1,0,136.09H0v1.231H0a26.726,26.726,0,1,1,0,53.451H0V192.1H0a26.726,26.726,0,0,1,26.726,26.725A26.726,26.726,0,0,1,0,245.554H0v1.231H0a26.726,26.726,0,0,1,26.726,26.726A26.726,26.726,0,0,1,0,300.237H0v1.231H0a26.726,26.726,0,0,1,26.726,26.726A26.726,26.726,0,0,1,0,354.919H0v1.231H0a26.726,26.726,0,0,1,26.726,26.726c0,.377-.013.752-.028,1.125h1.457c-.015-.373-.028-.748-.028-1.125a26.726,26.726,0,0,1,53.452,0c0,.377-.013.752-.028,1.125h1.457c-.015-.373-.028-.748-.028-1.125a26.726,26.726,0,0,1,53.452,0c0,.377-.013.752-.028,1.125h1.457c-.015-.373-.028-.748-.028-1.125a26.726,26.726,0,0,1,53.452,0c0,.377-.013.752-.028,1.125h1.493c-.015-.373-.028-.748-.028-1.125a26.726,26.726,0,0,1,53.452,0c0,.377-.013.752-.028,1.125H247.6c-.016-.373-.028-.748-.028-1.125a26.726,26.726,0,0,1,53.452,0c0,.377-.013.752-.028,1.125h1.457c-.015-.373-.028-.748-.028-1.125a26.726,26.726,0,0,1,53.452,0c0,.377-.013.752-.028,1.125H357.3c-.015-.373-.028-.748-.028-1.125A26.726,26.726,0,0,1,384,356.149v-1.231a26.726,26.726,0,1,1,0-53.451v-1.231a26.726,26.726,0,1,1,0-53.451v-1.231a26.725,26.725,0,1,1,0-53.451v-1.332a26.726,26.726,0,1,1,0-53.451V136.09a26.725,26.725,0,1,1,0-53.451V81.408a26.726,26.726,0,1,1,0-53.451M54.852,354.919a26.726,26.726,0,1,1,26.725-26.726,26.726,26.726,0,0,1-26.725,26.726m0-54.682a26.726,26.726,0,1,1,26.725-26.726,26.726,26.726,0,0,1-26.725,26.726m0-54.682a26.725,26.725,0,1,1,26.725-26.726,26.726,26.726,0,0,1-26.725,26.726m0-54.783a26.726,26.726,0,1,1,26.725-26.726,26.726,26.726,0,0,1-26.725,26.726m0-54.682a26.725,26.725,0,1,1,26.725-26.725A26.726,26.726,0,0,1,54.852,136.09m0-54.682A26.726,26.726,0,1,1,81.578,54.682,26.726,26.726,0,0,1,54.852,81.408M109.7,354.919a26.726,26.726,0,1,1,26.726-26.726A26.726,26.726,0,0,1,109.7,354.919m0-54.682a26.726,26.726,0,1,1,26.726-26.726A26.726,26.726,0,0,1,109.7,300.237m0-54.682a26.725,26.725,0,1,1,26.726-26.726A26.726,26.726,0,0,1,109.7,245.554m0-54.783a26.726,26.726,0,1,1,26.726-26.726A26.726,26.726,0,0,1,109.7,190.772m0-54.682a26.725,26.725,0,1,1,26.726-26.725A26.726,26.726,0,0,1,109.7,136.09m0-54.682A26.726,26.726,0,1,1,136.43,54.682,26.726,26.726,0,0,1,109.7,81.408m54.852,273.511a26.726,26.726,0,1,1,26.726-26.726,26.725,26.725,0,0,1-26.726,26.726m0-54.682a26.726,26.726,0,1,1,26.726-26.726,26.725,26.725,0,0,1-26.726,26.726m0-54.682a26.725,26.725,0,1,1,26.726-26.726,26.725,26.725,0,0,1-26.726,26.726m0-54.783a26.726,26.726,0,1,1,26.726-26.726,26.725,26.725,0,0,1-26.726,26.726m0-54.682a26.725,26.725,0,1,1,26.726-26.725,26.725,26.725,0,0,1-26.726,26.725m0-54.682a26.726,26.726,0,1,1,26.726-26.726,26.725,26.725,0,0,1-26.726,26.726m54.889,273.511a26.726,26.726,0,1,1,26.726-26.726,26.726,26.726,0,0,1-26.726,26.726m0-54.682a26.726,26.726,0,1,1,26.726-26.726,26.726,26.726,0,0,1-26.726,26.726m0-54.682a26.725,26.725,0,1,1,26.726-26.726,26.726,26.726,0,0,1-26.726,26.726m0-54.783a26.726,26.726,0,1,1,26.726-26.726,26.726,26.726,0,0,1-26.726,26.726m0-54.682a26.725,26.725,0,1,1,26.726-26.725,26.726,26.726,0,0,1-26.726,26.725m0-54.682A26.726,26.726,0,1,1,246.17,54.682a26.726,26.726,0,0,1-26.726,26.726M274.3,354.919a26.726,26.726,0,1,1,26.726-26.726A26.726,26.726,0,0,1,274.3,354.919m0-54.682a26.726,26.726,0,1,1,26.726-26.726A26.726,26.726,0,0,1,274.3,300.237m0-54.682a26.725,26.725,0,1,1,26.726-26.726A26.726,26.726,0,0,1,274.3,245.554m0-54.783a26.726,26.726,0,1,1,26.726-26.726A26.726,26.726,0,0,1,274.3,190.772m0-54.682a26.725,26.725,0,1,1,26.726-26.725A26.726,26.726,0,0,1,274.3,136.09m0-54.682a26.726,26.726,0,1,1,26.726-26.726A26.726,26.726,0,0,1,274.3,81.408m54.852,273.511a26.726,26.726,0,1,1,26.726-26.726,26.726,26.726,0,0,1-26.726,26.726m0-54.682a26.726,26.726,0,1,1,26.726-26.726,26.726,26.726,0,0,1-26.726,26.726m0-54.682a26.725,26.725,0,1,1,26.726-26.726,26.726,26.726,0,0,1-26.726,26.726m0-54.783a26.726,26.726,0,1,1,26.726-26.726,26.726,26.726,0,0,1-26.726,26.726m0-54.682a26.725,26.725,0,1,1,26.726-26.725,26.726,26.726,0,0,1-26.726,26.725m0-54.682a26.726,26.726,0,1,1,26.726-26.726,26.726,26.726,0,0,1-26.726,26.726" transform="translate(-0.396)" fill="#fff7e0"/>
      </g>
    </g>
    <g id="Grupo_758" data-name="Grupo 758" transform="translate(1151.604 878)">
      <g id="Grupo_754-4" data-name="Grupo 754" transform="translate(0)" clip-path="url(#clip-path-4)">
        <path id="Caminho_955-4" data-name="Caminho 955" d="M384,27.957V26.726A26.726,26.726,0,0,1,357.274,0h-1.4a26.726,26.726,0,0,1-26.726,26.726A26.726,26.726,0,0,1,302.422,0h-1.4A26.725,26.725,0,0,1,274.3,26.726,26.726,26.726,0,0,1,247.57,0h-1.4a26.726,26.726,0,0,1-26.726,26.726A26.726,26.726,0,0,1,192.718,0h-1.437a26.725,26.725,0,0,1-26.726,26.726A26.725,26.725,0,0,1,137.83,0h-1.4A26.726,26.726,0,0,1,109.7,26.726,26.726,26.726,0,0,1,82.977,0h-1.4A26.725,26.725,0,0,1,54.852,26.726,26.726,26.726,0,0,1,28.126,0h-1.4A26.726,26.726,0,0,1,0,26.726H0v1.231H0A26.726,26.726,0,0,1,26.726,54.682,26.726,26.726,0,0,1,0,81.408H0v1.231H0a26.726,26.726,0,0,1,26.726,26.726A26.726,26.726,0,0,1,0,136.09H0v1.231H0a26.726,26.726,0,1,1,0,53.451H0V192.1H0a26.726,26.726,0,0,1,26.726,26.725A26.726,26.726,0,0,1,0,245.554H0v1.231H0a26.726,26.726,0,0,1,26.726,26.726A26.726,26.726,0,0,1,0,300.237H0v1.231H0a26.726,26.726,0,0,1,26.726,26.726A26.726,26.726,0,0,1,0,354.919H0v1.231H0a26.726,26.726,0,0,1,26.726,26.726c0,.377-.013.752-.028,1.125h1.457c-.015-.373-.028-.748-.028-1.125a26.726,26.726,0,0,1,53.452,0c0,.377-.013.752-.028,1.125h1.457c-.015-.373-.028-.748-.028-1.125a26.726,26.726,0,0,1,53.452,0c0,.377-.013.752-.028,1.125h1.457c-.015-.373-.028-.748-.028-1.125a26.726,26.726,0,0,1,53.452,0c0,.377-.013.752-.028,1.125h1.493c-.015-.373-.028-.748-.028-1.125a26.726,26.726,0,0,1,53.452,0c0,.377-.013.752-.028,1.125H247.6c-.016-.373-.028-.748-.028-1.125a26.726,26.726,0,0,1,53.452,0c0,.377-.013.752-.028,1.125h1.457c-.015-.373-.028-.748-.028-1.125a26.726,26.726,0,0,1,53.452,0c0,.377-.013.752-.028,1.125H357.3c-.015-.373-.028-.748-.028-1.125A26.726,26.726,0,0,1,384,356.149v-1.231a26.726,26.726,0,1,1,0-53.451v-1.231a26.726,26.726,0,1,1,0-53.451v-1.231a26.725,26.725,0,1,1,0-53.451v-1.332a26.726,26.726,0,1,1,0-53.451V136.09a26.725,26.725,0,1,1,0-53.451V81.408a26.726,26.726,0,1,1,0-53.451M54.852,354.919a26.726,26.726,0,1,1,26.725-26.726,26.726,26.726,0,0,1-26.725,26.726m0-54.682a26.726,26.726,0,1,1,26.725-26.726,26.726,26.726,0,0,1-26.725,26.726m0-54.682a26.725,26.725,0,1,1,26.725-26.726,26.726,26.726,0,0,1-26.725,26.726m0-54.783a26.726,26.726,0,1,1,26.725-26.726,26.726,26.726,0,0,1-26.725,26.726m0-54.682a26.725,26.725,0,1,1,26.725-26.725A26.726,26.726,0,0,1,54.852,136.09m0-54.682A26.726,26.726,0,1,1,81.578,54.682,26.726,26.726,0,0,1,54.852,81.408M109.7,354.919a26.726,26.726,0,1,1,26.726-26.726A26.726,26.726,0,0,1,109.7,354.919m0-54.682a26.726,26.726,0,1,1,26.726-26.726A26.726,26.726,0,0,1,109.7,300.237m0-54.682a26.725,26.725,0,1,1,26.726-26.726A26.726,26.726,0,0,1,109.7,245.554m0-54.783a26.726,26.726,0,1,1,26.726-26.726A26.726,26.726,0,0,1,109.7,190.772m0-54.682a26.725,26.725,0,1,1,26.726-26.725A26.726,26.726,0,0,1,109.7,136.09m0-54.682A26.726,26.726,0,1,1,136.43,54.682,26.726,26.726,0,0,1,109.7,81.408m54.852,273.511a26.726,26.726,0,1,1,26.726-26.726,26.725,26.725,0,0,1-26.726,26.726m0-54.682a26.726,26.726,0,1,1,26.726-26.726,26.725,26.725,0,0,1-26.726,26.726m0-54.682a26.725,26.725,0,1,1,26.726-26.726,26.725,26.725,0,0,1-26.726,26.726m0-54.783a26.726,26.726,0,1,1,26.726-26.726,26.725,26.725,0,0,1-26.726,26.726m0-54.682a26.725,26.725,0,1,1,26.726-26.725,26.725,26.725,0,0,1-26.726,26.725m0-54.682a26.726,26.726,0,1,1,26.726-26.726,26.725,26.725,0,0,1-26.726,26.726m54.889,273.511a26.726,26.726,0,1,1,26.726-26.726,26.726,26.726,0,0,1-26.726,26.726m0-54.682a26.726,26.726,0,1,1,26.726-26.726,26.726,26.726,0,0,1-26.726,26.726m0-54.682a26.725,26.725,0,1,1,26.726-26.726,26.726,26.726,0,0,1-26.726,26.726m0-54.783a26.726,26.726,0,1,1,26.726-26.726,26.726,26.726,0,0,1-26.726,26.726m0-54.682a26.725,26.725,0,1,1,26.726-26.725,26.726,26.726,0,0,1-26.726,26.725m0-54.682A26.726,26.726,0,1,1,246.17,54.682a26.726,26.726,0,0,1-26.726,26.726M274.3,354.919a26.726,26.726,0,1,1,26.726-26.726A26.726,26.726,0,0,1,274.3,354.919m0-54.682a26.726,26.726,0,1,1,26.726-26.726A26.726,26.726,0,0,1,274.3,300.237m0-54.682a26.725,26.725,0,1,1,26.726-26.726A26.726,26.726,0,0,1,274.3,245.554m0-54.783a26.726,26.726,0,1,1,26.726-26.726A26.726,26.726,0,0,1,274.3,190.772m0-54.682a26.725,26.725,0,1,1,26.726-26.725A26.726,26.726,0,0,1,274.3,136.09m0-54.682a26.726,26.726,0,1,1,26.726-26.726A26.726,26.726,0,0,1,274.3,81.408m54.852,273.511a26.726,26.726,0,1,1,26.726-26.726,26.726,26.726,0,0,1-26.726,26.726m0-54.682a26.726,26.726,0,1,1,26.726-26.726,26.726,26.726,0,0,1-26.726,26.726m0-54.682a26.725,26.725,0,1,1,26.726-26.726,26.726,26.726,0,0,1-26.726,26.726m0-54.783a26.726,26.726,0,1,1,26.726-26.726,26.726,26.726,0,0,1-26.726,26.726m0-54.682a26.725,26.725,0,1,1,26.726-26.725,26.726,26.726,0,0,1-26.726,26.725m0-54.682a26.726,26.726,0,1,1,26.726-26.726,26.726,26.726,0,0,1-26.726,26.726" transform="translate(0.396)" fill="#fff7e0"/>
      </g>
    </g>
    <g id="Grupo_759" data-name="Grupo 759" transform="translate(1535.802 878)">
      <g id="Grupo_754-5" data-name="Grupo 754" transform="translate(0)" clip-path="url(#clip-path-5)">
        <path id="Caminho_955-5" data-name="Caminho 955" d="M384,27.957V26.726A26.726,26.726,0,0,1,357.274,0h-1.4a26.726,26.726,0,0,1-26.726,26.726A26.726,26.726,0,0,1,302.422,0h-1.4A26.725,26.725,0,0,1,274.3,26.726,26.726,26.726,0,0,1,247.57,0h-1.4a26.726,26.726,0,0,1-26.726,26.726A26.726,26.726,0,0,1,192.718,0h-1.437a26.725,26.725,0,0,1-26.726,26.726A26.725,26.725,0,0,1,137.83,0h-1.4A26.726,26.726,0,0,1,109.7,26.726,26.726,26.726,0,0,1,82.977,0h-1.4A26.725,26.725,0,0,1,54.852,26.726,26.726,26.726,0,0,1,28.126,0h-1.4A26.726,26.726,0,0,1,0,26.726H0v1.231H0A26.726,26.726,0,0,1,26.726,54.682,26.726,26.726,0,0,1,0,81.408H0v1.231H0a26.726,26.726,0,0,1,26.726,26.726A26.726,26.726,0,0,1,0,136.09H0v1.231H0a26.726,26.726,0,1,1,0,53.451H0V192.1H0a26.726,26.726,0,0,1,26.726,26.725A26.726,26.726,0,0,1,0,245.554H0v1.231H0a26.726,26.726,0,0,1,26.726,26.726A26.726,26.726,0,0,1,0,300.237H0v1.231H0a26.726,26.726,0,0,1,26.726,26.726A26.726,26.726,0,0,1,0,354.919H0v1.231H0a26.726,26.726,0,0,1,26.726,26.726c0,.377-.013.752-.028,1.125h1.457c-.015-.373-.028-.748-.028-1.125a26.726,26.726,0,0,1,53.452,0c0,.377-.013.752-.028,1.125h1.457c-.015-.373-.028-.748-.028-1.125a26.726,26.726,0,0,1,53.452,0c0,.377-.013.752-.028,1.125h1.457c-.015-.373-.028-.748-.028-1.125a26.726,26.726,0,0,1,53.452,0c0,.377-.013.752-.028,1.125h1.493c-.015-.373-.028-.748-.028-1.125a26.726,26.726,0,0,1,53.452,0c0,.377-.013.752-.028,1.125H247.6c-.016-.373-.028-.748-.028-1.125a26.726,26.726,0,0,1,53.452,0c0,.377-.013.752-.028,1.125h1.457c-.015-.373-.028-.748-.028-1.125a26.726,26.726,0,0,1,53.452,0c0,.377-.013.752-.028,1.125H357.3c-.015-.373-.028-.748-.028-1.125A26.726,26.726,0,0,1,384,356.149v-1.231a26.726,26.726,0,1,1,0-53.451v-1.231a26.726,26.726,0,1,1,0-53.451v-1.231a26.725,26.725,0,1,1,0-53.451v-1.332a26.726,26.726,0,1,1,0-53.451V136.09a26.725,26.725,0,1,1,0-53.451V81.408a26.726,26.726,0,1,1,0-53.451M54.852,354.919a26.726,26.726,0,1,1,26.725-26.726,26.726,26.726,0,0,1-26.725,26.726m0-54.682a26.726,26.726,0,1,1,26.725-26.726,26.726,26.726,0,0,1-26.725,26.726m0-54.682a26.725,26.725,0,1,1,26.725-26.726,26.726,26.726,0,0,1-26.725,26.726m0-54.783a26.726,26.726,0,1,1,26.725-26.726,26.726,26.726,0,0,1-26.725,26.726m0-54.682a26.725,26.725,0,1,1,26.725-26.725A26.726,26.726,0,0,1,54.852,136.09m0-54.682A26.726,26.726,0,1,1,81.578,54.682,26.726,26.726,0,0,1,54.852,81.408M109.7,354.919a26.726,26.726,0,1,1,26.726-26.726A26.726,26.726,0,0,1,109.7,354.919m0-54.682a26.726,26.726,0,1,1,26.726-26.726A26.726,26.726,0,0,1,109.7,300.237m0-54.682a26.725,26.725,0,1,1,26.726-26.726A26.726,26.726,0,0,1,109.7,245.554m0-54.783a26.726,26.726,0,1,1,26.726-26.726A26.726,26.726,0,0,1,109.7,190.772m0-54.682a26.725,26.725,0,1,1,26.726-26.725A26.726,26.726,0,0,1,109.7,136.09m0-54.682A26.726,26.726,0,1,1,136.43,54.682,26.726,26.726,0,0,1,109.7,81.408m54.852,273.511a26.726,26.726,0,1,1,26.726-26.726,26.725,26.725,0,0,1-26.726,26.726m0-54.682a26.726,26.726,0,1,1,26.726-26.726,26.725,26.725,0,0,1-26.726,26.726m0-54.682a26.725,26.725,0,1,1,26.726-26.726,26.725,26.725,0,0,1-26.726,26.726m0-54.783a26.726,26.726,0,1,1,26.726-26.726,26.725,26.725,0,0,1-26.726,26.726m0-54.682a26.725,26.725,0,1,1,26.726-26.725,26.725,26.725,0,0,1-26.726,26.725m0-54.682a26.726,26.726,0,1,1,26.726-26.726,26.725,26.725,0,0,1-26.726,26.726m54.889,273.511a26.726,26.726,0,1,1,26.726-26.726,26.726,26.726,0,0,1-26.726,26.726m0-54.682a26.726,26.726,0,1,1,26.726-26.726,26.726,26.726,0,0,1-26.726,26.726m0-54.682a26.725,26.725,0,1,1,26.726-26.726,26.726,26.726,0,0,1-26.726,26.726m0-54.783a26.726,26.726,0,1,1,26.726-26.726,26.726,26.726,0,0,1-26.726,26.726m0-54.682a26.725,26.725,0,1,1,26.726-26.725,26.726,26.726,0,0,1-26.726,26.725m0-54.682A26.726,26.726,0,1,1,246.17,54.682a26.726,26.726,0,0,1-26.726,26.726M274.3,354.919a26.726,26.726,0,1,1,26.726-26.726A26.726,26.726,0,0,1,274.3,354.919m0-54.682a26.726,26.726,0,1,1,26.726-26.726A26.726,26.726,0,0,1,274.3,300.237m0-54.682a26.725,26.725,0,1,1,26.726-26.726A26.726,26.726,0,0,1,274.3,245.554m0-54.783a26.726,26.726,0,1,1,26.726-26.726A26.726,26.726,0,0,1,274.3,190.772m0-54.682a26.725,26.725,0,1,1,26.726-26.725A26.726,26.726,0,0,1,274.3,136.09m0-54.682a26.726,26.726,0,1,1,26.726-26.726A26.726,26.726,0,0,1,274.3,81.408m54.852,273.511a26.726,26.726,0,1,1,26.726-26.726,26.726,26.726,0,0,1-26.726,26.726m0-54.682a26.726,26.726,0,1,1,26.726-26.726,26.726,26.726,0,0,1-26.726,26.726m0-54.682a26.725,26.725,0,1,1,26.726-26.726,26.726,26.726,0,0,1-26.726,26.726m0-54.783a26.726,26.726,0,1,1,26.726-26.726,26.726,26.726,0,0,1-26.726,26.726m0-54.682a26.725,26.725,0,1,1,26.726-26.725,26.726,26.726,0,0,1-26.726,26.725m0-54.682a26.726,26.726,0,1,1,26.726-26.726,26.726,26.726,0,0,1-26.726,26.726" transform="translate(0.198)" fill="#fff7e0"/>
      </g>
    </g>
  </g>
</svg>
