<svg version="1.2" xmlns="http://www.w3.org/2000/svg" viewBox="0 0 8 13" width="8" height="13"><defs><clipPath clipPathUnits="userSpaceOnUse" id="cp1"><path d="m-81-2360h960v3303h-960z"/></clipPath></defs><style>.a{fill:#f7941d}</style><g clip-path="url(#cp1)"><path fill-rule="evenodd" class="a" d="m4.2 13q-1.3 0-2.3-1-0.9-0.9-0.9-2.3 0-0.9 0.4-1.6 0.4-0.8 1.2-1.2v-5.2q0-0.7 0.4-1.1 0.5-0.5 1.2-0.5 0.7 0 1.2 0.5 0.5 0.4 0.5 1.1v5.2q0.7 0.4 1.2 1.2 0.4 0.7 0.4 1.6 0 1.4-1 2.3-0.9 1-2.3 1zm-2.2-3.3h4.4q0-0.7-0.3-1.3-0.4-0.5-0.9-0.8l-0.4-0.2v-5.7q0-0.2-0.2-0.4-0.1-0.2-0.4-0.2-0.2 0-0.4 0.2-0.2 0.2-0.2 0.4v5.7l-0.3 0.2q-0.6 0.3-0.9 0.8-0.4 0.6-0.4 1.3z"/></g></svg>