<svg version="1.2" xmlns="http://www.w3.org/2000/svg" viewBox="0 0 17 14" width="17" height="14"><defs><clipPath clipPathUnits="userSpaceOnUse" id="cp1"><path d="m-845-2418h960v4094h-960z"/></clipPath></defs><style>.a{fill:#ea9a00}</style><g clip-path="url(#cp1)"><path fill-rule="evenodd" class="a" d="m5.1 14v-2.5h-5.1l3.2-4.6h-1.6l4.4-6.3 2 2.8 2-2.8 4.5 6.3h-1.6l3.1 4.6h-5v2.5h-1.9v-2.5h-2.1v2.5zm6.3-3.5h2.7l-3.1-4.6h1.5l-2.5-3.4-1.3 1.9 1.8 2.5h-1.6zm-9.4 0h8.1l-3.1-4.6h1.5l-2.4-3.4-2.5 3.4h1.5zm0 0h3.2-1.5 4.8-1.5 3.2zm9.4 0h-2.5 1.6-1.8 3.8-1.5 3.2zm-2.3 1h1.9z"/></g></svg>