<svg version="1.2" xmlns="http://www.w3.org/2000/svg" viewBox="0 0 11 13" width="11" height="13"><defs><clipPath clipPathUnits="userSpaceOnUse" id="cp1"><path d="m-289-2360h960v3303h-960z"/></clipPath></defs><style>.a{fill:#f7941d}</style><g clip-path="url(#cp1)"><path fill-rule="evenodd" class="a" d="m5.6 13q-2.2 0-3.7-1.5-1.4-1.6-1.4-3.8 0-1.6 1.2-3.5 1.3-1.9 3.9-4.1 2.6 2.2 3.9 4.1 1.3 1.9 1.3 3.5 0 2.2-1.5 3.8-1.5 1.5-3.7 1.5zm0-1q1.8 0 3-1.2 1.2-1.3 1.2-3.1 0-1.3-1.1-2.9-1-1.6-3.1-3.4-2 1.8-3.1 3.4-1.1 1.6-1.1 2.9 0 1.8 1.2 3.1 1.2 1.2 3 1.2zm-1.9-1.7q-0.9-0.6-1.1-2-0.1-0.1 0-0.2 0.1-0.2 0.3-0.2 0.1 0 0.3 0.1 0.1 0.1 0.1 0.2 0.2 1.1 0.9 1.6 0.7 0.4 1.4 0.4 0.3 0 0.4 0.1 0.1 0.1 0.1 0.3 0 0.1-0.1 0.2-0.1 0.1-0.4 0.1-1 0-1.9-0.6z"/></g></svg>