<svg version="1.2" xmlns="http://www.w3.org/2000/svg" viewBox="0 0 821 545" width="821" height="545"><defs><clipPath clipPathUnits="userSpaceOnUse" id="cp1"><path d="m-69-1654h960v4094h-960z"/></clipPath><clipPath clipPathUnits="userSpaceOnUse" id="cp2"><path d="m1 97.31h410v369.66h-410z"/></clipPath><clipPath clipPathUnits="userSpaceOnUse" id="cp3"><path d="m19 443.7h33.74v15.41h-33.74z"/></clipPath><clipPath clipPathUnits="userSpaceOnUse" id="cp4"><path d="m222.5 451.41h33.74v15.41h-33.74z"/></clipPath><clipPath clipPathUnits="userSpaceOnUse" id="cp5"><path d="m346 375.91h33.74v15.41h-33.74z"/></clipPath></defs><style>.a{fill:#2c2c2c}.b{fill:#ea9a00}.c{fill:#fefefe}.d{fill:#1d1d1e}</style><g clip-path="url(#cp1)"><g clip-path="url(#cp2)"><path fill-rule="evenodd" class="a" d="m143.1 97.3c-0.7 0-1.4 0-2.3 0.1q-0.7 0-1.3 0-1.9 0-3.9 0.1c-1.3 0-2.7 0.2-3.8 0.3l-0.1 0.1h-0.2c-1.4 0.1-2.8 0.4-3.9 0.7q-0.7 0.2-1.3 0.4h-0.1l-0.5 0.2q-0.9 0.2-1.8 0.5-0.9 0.4-1.8 0.7l-0.3 0.1-0.1 0.1-0.3 0.1-0.3 0.1q-0.6 0.2-1.2 0.4l-0.5 0.3c-1 0.4-2 0.9-3 1.4l-0.6 0.3-0.3 0.2q-0.4 0.2-0.8 0.4-0.4 0.2-0.7 0.4l-0.1 0.1h-0.1l-0.2 0.1q-0.3 0.2-0.6 0.3-1 0.6-1.9 1.2-0.5 0.3-1 0.7l-0.4 0.3-0.3 0.2q-0.6 0.4-1.3 0.9c-0.5 0.3-1 0.7-1.6 1.2l-0.7 0.5-0.1 0.1c-0.7 0.5-1.4 1.1-2.1 1.7l-0.3 0.3q-0.6 0.4-1.2 0.9l-0.4 0.4q-0.5 0.5-1.1 1c-0.9 0.9-1.8 1.9-2.5 2.9h-0.1l-0.1 0.1v0.1l-0.5 0.6c-0.7 0.7-1.4 1.5-2 2.4q-0.5 0.7-1 1.5c-0.3 0.5-0.7 1.1-1.1 1.6q-0.1 0.2-0.2 0.3l-0.2 0.2-0.1 0.1q-0.4 0.5-0.7 1-0.5 0.7-1.1 1.6l-0.1 0.1-0.1 0.2c-0.5 0.9-1.2 1.9-1.8 2.9q-0.2 0.3-0.4 0.5l-0.1 0.1-0.1 0.2q-0.2 0.4-0.5 0.8c-0.3 0.4-0.6 0.9-0.9 1.6-0.4 0.6-0.7 1.3-1 2.1l-0.1 0.2q-0.3 0.6-0.6 1.3l-0.5 0.8c-0.5 1-0.9 1.9-1.2 2.7-0.5 1-0.9 2.2-1.3 3.5q-0.1 0.6-0.3 1.1l-0.1 0.5v0.1l-0.1 0.3q-0.1 0.6-0.3 1.2-0.2 1.1-0.3 2l-0.1 0.4v0.2 0.1q-0.1 0.5-0.1 1c-0.1 0.3-0.1 0.7 0.1 1.1q-0.8 2-1.5 3.7l-0.1 0.2c-0.3 0.8-0.8 1.9-1.1 2.8-0.3 0.9-0.6 1.7-0.8 2.5h-0.1l-0.1 0.5q-0.6 2-1.3 4.1l-0.1 0.4v0.1l-0.1 0.1q-0.2 0.7-0.4 1.4-0.2 0.4-0.4 0.8-0.2 0.6-0.4 1.2c-0.5 1.3-1 2.7-1.4 4.2v0.1l-0.1 0.1q-0.2 0.9-0.4 1.7-0.2 0.9-0.4 1.7v0.2 0.1l-0.1 0.4v0.2l-0.2 1.1-0.1 0.5-0.1 0.5-0.1 0.5q-0.2 0.8-0.3 1.5v0.3l-0.1 0.3v0.3c-0.2 0.9-0.3 1.6-0.4 2.3h-0.3-0.3q-0.4 0-0.9 0-0.2 0-0.5 0-0.7 0-1.4 0h-0.2q-0.6 0-1.2 0h-0.3q-0.6 0-1.1 0h-0.7q-0.3 0-0.6 0h-0.3q-0.5 0-1 0-0.1 0-0.2 0h-0.2l-0.1-0.1h-0.3q-0.6 0-1.1 0h-0.3-0.3-0.4-0.5-0.4-0.4c-1.7 0-3.5 0.1-5.1 0.2h-0.1-0.2c-0.9 0.1-2.2 0.1-3.4 0.3q-1 0.1-2.1 0.3h-0.4q-0.9 0.1-1.8 0.3h-0.2q-0.5 0.1-0.9 0.2h-0.2c-0.8 0.1-1.7 0.3-2.5 0.4q-1.3 0.3-2.7 0.7-1 0.2-2 0.6h-0.1l-0.5 0.2q-1 0.3-2 0.6l-0.4 0.2-0.6 0.2q-1.5 0.5-3 1-0.8 0.3-1.5 0.6-0.7 0.3-1.4 0.6l-0.5 0.2h-0.1c-0.5 0.2-1.2 0.4-1.8 0.8-0.6 0.3-1.2 0.6-1.7 0.9l-0.5 0.3c-1.6 0.9-3.2 1.9-4.6 3.2-1.5 1.4-3 2.7-4.4 4.2-0.6 0.7-1.4 1.6-2 2.6-0.5 0.7-0.9 1.5-1.3 2.3l-0.2 0.3q-0.6 1.1-1.2 2.1v0.1l-0.1 0.1-0.3 0.5q-0.8 1.5-1.5 2.7-1.5 3.1-2.2 6c-0.6 2-1 3.9-1.2 5.4l-0.2 1.1v-0.4 0.3l-0.1 0.2v0.2 0.1q-0.2 0.6-0.3 1.1-0.5 2.5-0.9 5.1c-0.4 2.9-0.7 6.1-0.7 9.8q0 1.6 0 3.1 0 0.8 0 1.6-0.1 0.7-0.1 1.4c0 1.9 0 3.9 0 5.9q0 1.5 0.1 3 0 0.5 0 1.1v0.2q0.1 0.8 0.1 1.7c0 2.2 0.2 4.4 0.3 6.1q0.1 1.5 0.3 3.1 0 0.6 0.1 1.3l0.1 0.2 0.1 1.3c0.2 2.2 0.4 4 0.6 5.8q0.2 0.8 0.3 1.6v0.2 0.1l0.1 0.2c0.1 1.1 0.3 2.3 0.5 3.4q0.1 0.6 0.3 1.3v0.4q0.2 0.6 0.3 1.3 0.1 0.6 0.2 1.2v0.3q0.1 0.6 0.2 1.3c0.2 0.9 0.3 1.7 0.5 2.7q0.1 0.8 0.2 1.5 0.1 0.8 0.2 1.5c0.2 1.7 0.5 3.8 0.9 5.9 0.1 0.7 0.3 1.4 0.4 2l0.1 0.1 0.1 0.8q0.4 1.5 0.8 3.1 0.1 0.4 0.2 0.9l0.1 0.2v0.2l0.1 0.2q0.2 0.6 0.3 1.2 0.3 1 0.6 2.1v0.1l0.1 0.6q0.3 1.3 0.6 2.6v0.2l0.1 0.1c0.2 0.9 0.4 1.9 0.6 2.9 0.5 1.8 1.2 3.7 1.8 5.5q0.3 0.8 0.6 1.5v0.2l0.4 1q0.2 0.6 0.5 1.2 0.2 0.7 0.5 1.3v0.1 0.1q0.2 0.4 0.3 0.8l0.1 0.4 0.2 0.6c0.4 1.2 0.8 2.3 1.2 3.4q0.4 1.2 0.9 2.4 0.3 0.7 0.6 1.3 0.1 0.4 0.3 0.7 0.1 0.2 0.3 0.5 0.3 0.7 0.7 1.4l0.2 0.3 0.4 0.7c0.2 0.5 0.4 1 0.7 1.5q0.2 0.6 0.5 1.2 1.4 2.9 3.2 5.2 0.6 1 1.4 1.9l0.3 0.3q0.5 0.7 0.9 1.4 0.4 0.5 0.8 1c0.4 0.5 0.6 0.9 1 1.2 0.2 0.3 0.4 0.5 0.7 0.8l0.2 0.1q0.9 0.9 1.8 1.6l0.1 0.1 0.3 0.2q0.5 0.5 1 1 0.3 0.3 0.5 0.5c-0.2 0.3-0.3 0.8-0.2 1.2q0.1 0.4 0.1 0.8c0 0.3 0 0.7-0.1 1.1v0.3l-0.1 0.4c-0.3 1.4-0.6 2.9-0.9 4.7l-0.1 0.8-0.1 0.4v0.1c-0.2 0.9-0.4 2-0.6 3.1-0.2 1.6-0.3 3.2-0.4 4.7q0 0.8-0.1 1.8v0.5 0.7q0 0.7 0 1.4 0 0.7 0 1.3v0.1c0 1-0.1 2.1 0 3.1q0.1 1 0.1 2l0.1 0.2q0 1.3 0.1 2.6c0.1 1.3 0.3 2.7 0.6 4.3l0.1 0.6 0.1 0.5 0.1 0.6q0.2 1.4 0.4 2.7 0.2 1.2 0.5 2.3v0.3q0.2 1 0.4 2.1v0.1c0.3 1.4 0.6 2.9 1 4.4 0.2 0.8 0.5 1.5 0.8 2.2 0.2 0.7 0.5 1.5 0.8 2.1l0.1 0.3 0.1 0.1c0.3 0.7 0.6 1.5 1 2.2q0.6 1 1.2 2.1c0.8 1.2 1.5 2.5 2.1 3.6l0.3 0.6q1.3 2.1 2.9 4c0.6 0.7 1.2 1.3 1.7 1.9h0.1q0.7 0.8 1.4 1.6l0.4 0.5q0.6 0.6 1.2 1.3c0.6 0.6 1.3 1.1 1.8 1.6l0.4 0.2c0.9 0.9 2 1.6 2.9 2.4l0.1 0.1h0.1l0.7 0.6 0.8 0.6c1.1 0.9 2.3 1.8 3.4 2.6h0.1l0.3 0.2q0.9 0.6 1.8 1.2l0.6 0.4c0.4 0.3 0.9 0.6 1.4 0.8 1.3 0.8 2.9 1.6 4.5 2.3l0.4 0.1c1.3 0.5 2.7 1.1 4.1 1.5q1.5 0.6 3.1 1l0.2 0.1 1.3 0.4 0.7 0.2q0.8 0.3 1.6 0.5c0.6 0.2 1.2 0.3 1.9 0.4l0.5 0.2q1 0.2 2 0.3l0.1 0.1 0.6 0.1 0.5 0.1q1 0.2 1.9 0.3 0.9 0.1 1.8 0.2l0.9 0.1h0.1l0.6 0.1q1 0.1 2 0.2c1.9 0.2 3.8 0.3 5 0.4q2.6 0.1 5.2 0.3l1.2 0.1c1.2 0 2.5 0.1 3.8 0.1q0.8 0.1 1.6 0.1 1.7 0 3.4-0.1c2.1-0.1 4.1-0.3 5.8-0.4q0.6-0.1 1.2-0.1h0.3q0.5-0.1 1-0.1l0.6-0.1h0.2 0.2q0.8-0.1 1.5-0.2h0.6q1.1-0.2 2.2-0.3l0.9-0.1h0.1 0.5 0.5l0.4-0.1q2-0.1 4-0.3 1.3-0.1 2.6-0.2h-0.1 0.1 0.1c1.3-0.1 2.8-0.2 4.3-0.4l1.1-0.1q2.1-0.3 4.2-0.5 0.7 0 1.6-0.1l0.4-0.1c1.1-0.1 2.1-0.2 3.1-0.3 3.2-0.2 7-0.6 10.9-1.1q3.2-0.4 6.4-0.9l0.5-0.1 1-0.1q1.2-0.2 2.3-0.3c3.7-0.5 7.4-1 10.9-1.2q1.1-0.1 2.3-0.2h0.5q0.9 0 1.8-0.1c0.3 0 0.6 0 0.9 0l0.4-0.1h0.7q1.3-0.1 2.7-0.1c2.5-0.2 5-0.4 7.3-0.5h0.2l1.7-0.2h1.4q2.3-0.2 4.5-0.3c1.2-0.1 2.4-0.2 3.6-0.4q1-0.1 2.1-0.2c1.8-0.1 3.4-0.2 5-0.2q2-0.1 4-0.1h1.5l1.8-0.1h0.1c2.7 0 5.8 0 8.7-0.2 1.5 0 3.2 0 4.5 0h0.1 0.1 0.4l1.5-0.1h0.6q0.9 0 1.7 0 0.7 0 1.4 0 0.9 0 1.8 0 1.6 0 3.3 0h0.1 0.3q0.4 0 0.9 0h0.3q0.4 0 0.9 0 0.2 0 0.5 0 0.6 0 1.1 0h0.4 0.3 0.2q0.3 0.1 0.7 0.1 2.5 0 5.4 0.1h0.8q0.9 0.1 1.8 0.1h0.3q1.1 0 2.1 0.1c2.8 0.1 5.7 0.2 8.9 0.4h0.3l1.4 0.1 0.7 0.1h0.1q0.8 0 1.7 0.1h0.4l0.4 0.1h0.3 0.4q0.4 0.1 0.9 0.1l0.9 0.1q2.2 0.2 4.4 0.4c3.2 0.3 7 0.7 10.7 1.3q2.6 0.4 5.3 0.8 2.2 0.4 4.3 0.8h0.2q0.8 0.2 1.5 0.3l0.5 0.2h0.2 0.1q1.2 0.3 2.5 0.6c1 0.2 2.1 0.4 3.2 0.6l1.1 0.2 2.1 0.3c2.1 0.4 4.2 0.8 6.4 1.2q2.5 0.5 5.1 1 0.6 0.1 1.2 0.2 1 0.3 1.9 0.4l1.2 0.3h0.1l1.5 0.2 0.2 0.1c1.2 0.2 2.3 0.5 3.4 0.7l0.4 0.1c1.3 0.3 2.7 0.6 4.3 0.9q1.1 0.2 2.2 0.5c2 0.4 3.5 0.8 4.9 1.1l0.7 0.2 0.3 0.1q0.8 0.2 1.5 0.4 0.4 0.1 1 0.3 0.6 0.2 1.3 0.4c1.5 0.4 3.1 0.9 4.8 1.4 1.8 0.5 3.6 1 4.9 1.3 1.5 0.4 3.1 0.9 4.4 1.3q1.1 0.4 2.1 0.7l0.3 0.1 0.4 0.1h0.1q0.8 0.2 1.6 0.5 0.9 0.3 1.9 0.6l0.2 0.1q0.9 0.3 1.9 0.6 0.6 0.2 1.1 0.4 0.2 0.1 0.4 0.2 0.1 0.1 0.2 0.2 0.2 0.1 0.3 0.1c0.5 0.1 0.9 0.3 1.4 0.5l0.3 0.1q1 0.4 2 0.8c0.6 0.2 1.1 0.4 1.7 0.5 0.6 0.2 1.2 0.4 1.9 0.6q0.6 0.2 1.2 0.4l0.9 0.3h0.2q0.7 0.3 1.5 0.5c0.5 0.1 1.2 0.3 1.9 0.3q0.4 0.1 0.8 0.1 0.2 0.3 0.6 0.4 0.1 0.1 0.3 0.1 0.3 0 0.6-0.2c0.3-0.1 0.4-0.4 0.6-0.6 0.2-0.6 0.5-1.1 0.7-1.7v-0.2q0.3-0.6 0.5-1.1 0.1-0.4 0.3-0.8c0.6-1.5 1.1-2.7 1.6-3.9q0.2-0.3 0.3-0.6l0.1-0.2 0.2-0.3c0.4-0.9 0.8-1.7 1.2-2.6q0.6-1.4 1.2-3v-0.2l0.1-0.2q0.3-0.8 0.6-1.7v-0.1l0.1-0.1v-0.1q0.3-0.8 0.6-1.6 0.3-0.8 0.6-1.6l0.1-0.4q0.4-1 0.8-2 0.3-0.9 0.6-1.7l0.1-0.3 0.1-0.1c0.7-1.9 1.5-4 2.1-6.1q0.4-1.6 0.8-3.2l0.1-0.2 0.2-1c0.2-0.7 0.4-1.4 0.5-2.1 0.2-0.8 0.3-1.5 0.5-2.3 0.4-1.5 0.8-2.9 1.1-4.4l0.1-0.2c0.1-0.7 0.3-1.6 0.5-2.4q0.1-0.8 0.2-1.6l0.1-0.5q0.2-1 0.3-2.3 0.1-0.4 0.1-0.8 0.1-0.7 0.2-1.5c0.1-1.3 0.2-2.8 0.3-4.3q0-1.4-0.1-2.6c0-0.6-0.2-1.2-0.4-2-0.4-1.4-0.9-2.9-1.6-4.2q-0.7-1.3-1.9-2.1c-0.3-0.3-0.6-0.4-1-0.6-0.3-0.2-0.7-0.4-1.1-0.5q-1-0.3-1.8-0.3-0.4 0-0.8 0.1c-0.8 0.2-1.6 0.6-2.3 1.1-0.7 0.4-1.4 0.9-1.9 1.4-0.6 0.5-1.2 1.2-1.7 2.1q-0.7 0.9-1.3 1.8-0.3 0.4-0.6 0.8l-0.1 0.1q-0.3 0.4-0.6 0.9-0.4 0.5-0.7 1l-0.1 0.1-0.1 0.2-0.1 0.1q-0.2 0.3-0.3 0.5c-0.5 0.7-0.9 1.3-1.1 1.8l-0.3 0.4c-0.2 0.5-0.5 1-0.8 1.5l-0.2 0.3c-0.3 0.6-0.6 1.2-0.9 1.7q-0.6 1-1.3 1.9-0.4 0.6-0.8 1.2l-0.1 0.2-0.1 0.1-0.2 0.3q-0.1 0.1-0.2 0.3l-0.1 0.1-0.1 0.2-0.1 0.1q-0.3 0.5-0.7 1.1c-0.3 0.6-0.6 1.1-0.9 1.7l-0.1 0.2q-0.3 0.5-0.6 1.1l-0.1 0.3-0.1 0.2q-0.1 0.2-0.2 0.5c-0.4 0.8-0.9 1.4-1.4 2.2l-0.2 0.3-0.1 0.2-0.2 0.2-0.1 0.3h-0.1q-0.5-0.1-0.9-0.2c-0.8-0.3-1.6-0.6-2.3-1l-0.3-0.2c-0.8-0.4-1.7-0.7-2.4-0.9-0.9-0.4-1.8-0.6-2.6-0.9h-0.2c-0.8-0.3-1.5-0.5-2.3-0.8-1.4-0.5-2.8-1.1-4.2-1.6l-0.3-0.1q-0.9-0.4-1.8-0.8c-1.7-0.7-3.6-1.2-5.4-1.7v-0.1l-1.3-0.3-0.1-0.1c-1-0.3-2.1-0.6-3.1-0.9q-1-0.4-2-0.8-0.7-0.3-1.4-0.6c-0.6-0.2-1-0.4-1.6-0.6q-0.9-0.3-2-0.5l-0.2-0.1h-0.1q-0.2-0.1-0.4-0.1-0.2-0.2-0.3-0.2c-0.2-0.2-0.4-0.3-0.7-0.3q0 0-0.1 0-0.2 0.1-0.4 0.1l-0.6-0.1h-0.1c-1-0.3-2.1-0.7-3.2-1.1-1-0.3-2.1-0.7-3.2-1-1.3-0.4-2.6-0.7-3.9-1.1h-0.2l-0.2-0.1h-0.2q-0.9-0.2-1.7-0.4c-1.2-0.4-2.5-0.7-3.8-1.1l-0.8-0.3-0.2-0.1q-1.3-0.4-2.7-0.8c-1.5-0.4-3.1-0.8-4.2-1q-1.8-0.4-3.6-0.9-0.9-0.2-1.8-0.5l-0.2-0.1c-1.2-0.4-2.6-0.8-4-1.1q-0.9-0.2-1.9-0.4h-0.3q-0.4-0.1-0.9-0.2-1.4-0.3-2.7-0.6-0.6-0.2-1.3-0.4-1-0.3-2.1-0.6c-1.1-0.3-2.2-0.5-3.3-0.6l-0.1-0.1h-0.3-0.1c-0.9-0.2-1.9-0.3-2.8-0.5q-1.3-0.3-2.7-0.6l-0.5-0.1c-1.2-0.3-2.2-0.5-3.3-0.6q-0.5 0-1-0.1h-0.4-0.1q-0.9-0.1-1.7-0.2-1.5-0.2-3.2-0.5-0.4-0.1-0.9-0.2h-0.1-0.1q-1.1-0.2-2.1-0.3c-0.5-0.1-1-0.1-1.5-0.1 0.3-0.2 0.6-0.3 0.9-0.7q0.1-0.1 0.2-0.3c0.1-0.4 0-0.8 0-1.2q0 0 0 0v-0.4-0.2q0-0.2 0-0.4 0-0.9-0.1-1.8 0-1.1-0.1-2.4l-0.1-0.1v-0.2q0-0.4 0-0.9 0-0.2-0.1-0.3l0.1 0.1q-0.1-1.3-0.3-2.6l-0.1-1.1-0.1-1.1 0.1 0.2-0.1-0.1v-0.1q-0.1-1.1-0.2-2.2 0-0.7-0.1-1.5v-0.3-0.3c-0.2-2.1-0.4-4.9-0.6-7.6v-0.4l-0.1-0.2v-0.1q0-0.5 0-1l-0.1-0.7c-0.1-2.1-0.3-4.1-0.5-6v-0.3-0.3l-0.2-1.8q0-0.9-0.1-1.9c-0.2-2.7-0.5-5-0.8-7q-0.1-0.5-0.2-1 0-0.3-0.1-0.7l-0.1-0.4v-0.1q-0.1-0.5-0.2-1-0.2-1.4-0.5-2.8l-0.1-0.4v-0.1-0.1c-0.5-2.5-1.1-5.1-2-9q-0.1-0.5-0.2-1.1l-0.1-0.5-0.1-0.6c-0.2-0.6-0.3-1.2-0.5-1.7v-0.1-0.1l-0.1-0.2c-0.4-1.6-1-3.1-1.6-4.5v-0.1q-0.2-0.5-0.4-0.9-0.2-0.6-0.5-1.1-0.1-0.5-0.3-1-0.2-0.5-0.4-1-0.4-0.9-0.8-1.9l-0.1-0.1-0.1-0.2q0.3-0.1 0.6-0.2 1-0.3 2-0.7c0.7-0.3 1.6-0.6 2.6-1q0.6-0.2 1.3-0.4 0.7-0.3 1.4-0.6l0.9-0.3q1-0.4 2-0.7c0.7-0.3 1.6-0.6 2.5-1q1.1-0.5 2.2-1c0.6-0.2 1.3-0.6 2.1-1 0.4-0.2 0.8-0.4 1.2-0.7q0.4-0.2 0.7-0.4l0.5-0.4c0.6-0.3 1.1-0.6 1.7-1 0.6-0.5 1.3-1 1.7-1.4 0.6-0.5 1.2-1 1.8-1.6 0.7-0.5 1.2-1 1.8-1.6 0.5-0.6 1.1-1.2 1.7-2.1 0.9-1.1 1.8-2.4 2.6-3.7q0.7-1.1 1.3-2.5c0.3-0.5 0.5-0.9 0.7-1.5l0.1-0.2 0.1-0.1v-0.1q0-0.1 0.1-0.2c0.5-1.3 1.1-2.8 1.6-4.3 0.5-1.5 0.9-2.9 1.3-4.5q0.5-2.4 0.8-4.8c0.1-1.7 0-3.3 0-4.8-0.1-1.6-0.3-3.2-0.5-4.8-0.3-1.9-0.6-3.4-0.9-4.7q-0.2-0.7-0.4-1.4-0.1-0.4-0.2-0.9c-0.3-1-0.5-1.8-0.8-2.5-0.5-1.3-1.2-2.7-2-4.4q-0.3-0.4-0.5-0.8v-0.1l-0.1-0.2-0.2-0.2q-0.1-0.3-0.3-0.6l-0.2-0.4c-0.2-0.5-0.5-1.1-0.9-1.6-0.6-0.9-1.1-1.6-1.6-2.2q-0.8-1-1.4-1.8-0.4-0.6-0.7-1.1 0-0.4 0.1-0.8 0-0.3 0-0.5 0.2-0.9 0.4-1.7v-0.3l0.1-0.4 0.1-0.9 0.2-0.9v-0.1l0.2-1v0.1q0.1-0.8 0.3-1.6v-0.3l0.1-0.3q0.1-0.7 0.2-1.4 0.3-1.7 0.7-3.5 0.7-3.4 1.2-6.7l0.4-1.9v-0.2q0.4-2.3 0.9-4.6l0.2-1.3 0.1-0.2c0.2-1 0.4-2.3 0.7-3.4q0.1-0.5 0.2-1v-0.1-0.1q0.2-1 0.4-2.1l0.1-0.3q0-0.2 0-0.5c0-0.2 0-0.5-0.1-0.7q0-0.2 0-0.4-0.1-0.2-0.2-0.5-0.1-0.2-0.3-0.4c-0.3-0.5-0.6-1-0.9-1.4l-0.4-0.4q-0.7-0.9-1.3-1.8-0.3-0.3-0.5-0.7l-0.2-0.3-0.2-0.4-0.5-0.8-0.1-0.1c-0.2-0.3-0.5-0.7-0.8-1-0.4-0.4-0.7-0.6-1.1-0.8q-0.5-0.2-1-0.2c-0.4 0-0.8 0.1-1.2 0.1h-0.5q-0.6 0.1-1.1 0.1-0.8 0.1-1.6 0.1-1.2 0.1-2.5 0.3c-1.1 0.1-2.2 0.3-3.3 0.5l-0.4 0.1c-0.4 0-0.9 0.2-1.3 0.2q-0.7 0.1-1.5 0.2h-0.3c-0.9 0.1-1.9 0.3-2.7 0.4h-0.1l-0.7 0.1-0.8 0.2c-0.7 0.1-1.8 0.2-2.8 0.5-1.1 0.2-2.5 0.5-3.8 1-0.6 0.2-1.1 0.5-1.6 0.7l-0.2 0.1q-0.4 0.2-0.8 0.3-0.4 0.2-0.9 0.5c-1.2 0.5-2.3 1.2-3.3 1.8l-0.3 0.2c-0.5 0.2-1 0.5-1.5 0.9q-0.8 0.5-1.4 1.1l-0.3 0.4h-0.1q-0.4 0.4-0.9 0.8l-0.2 0.2-0.1 0.1q-0.5 0.4-1 0.9c-0.5 0.5-0.9 1-1.3 1.5q-0.5 0.9-0.8 1.6c-0.3 0.6-0.6 1.2-0.8 1.8-0.2 0.4-0.4 0.9-0.6 1.6l-0.1 0.1q-0.1 0.6-0.3 1.2c-0.1 0.3-0.2 0.5-0.3 0.9h-0.1l-0.1-0.1-0.1-0.2-0.4-0.4-0.2-0.3q0-0.2-0.1-0.4c-0.2-0.4-0.4-0.7-0.5-0.9q-0.7-1-1.5-1.9l-0.1-0.1c-1-1.1-2-2.2-3.1-3.1-0.7-0.5-1.5-1.1-2.2-1.6l-0.6-0.4c-0.4-0.3-0.9-0.5-1.3-0.8h-0.1q-0.9-0.5-1.7-0.8-1.3-0.5-2.6-1l-0.6-0.2-0.4-0.2q-0.6-0.2-1.2-0.5l-0.5-0.2q-0.5-0.3-1.1-0.5-2.6-1.1-5.5-1.8-0.3 0-0.6-0.1l-0.4-0.1q-0.7-0.2-1.3-0.3c-1.4-0.3-2.6-0.5-3.7-0.7-1.1-0.2-2.2-0.3-3.4-0.4l-0.5-0.1q-1.1-0.2-2.2-0.3h-0.1-0.1c-0.6-0.1-1.4-0.2-2.1-0.3q-0.9 0-1.9-0.1h-0.2-0.4c-0.8-0.1-1.7-0.1-2.5-0.1q-0.3 0-0.6 0-1.2 0-2.4 0.1l-0.2 0.1q-0.5 0-0.9 0-1.2 0.1-2.3 0.3l-0.9 0.1q-0.4 0-0.8 0l-0.2 0.1q-1.2 0-2.3 0.2-0.8 0.1-1.6 0.2l-0.3 0.1-0.5 0.1-0.8 0.1c-0.7 0.1-1.3 0.2-1.8 0.3h-0.2q-0.6 0.2-1.2 0.3-0.4 0-0.9 0.1c-0.7 0.1-1.4 0.3-2.1 0.4q-1.3 0.3-2.7 0.4-0.1 0-0.2 0h-0.1-0.1q-0.9 0.1-1.5 0.8-0.1 0.2-0.2 0.5-0.4 0.2-0.7 0.6c-0.2 0.2-0.2 0.4-0.3 0.7v0.1c0 0.2 0.1 0.6 0.2 0.8 0.1 0.2 0.2 0.3 0.3 0.4q-0.1 0.6-0.1 1.1c-0.1 1.6-0.2 3-0.3 4.2q-0.5-0.8-1-1.4-0.5-0.5-0.9-1l-0.3-0.3q-0.5-0.6-1-1.2l-0.1-0.1-0.2-0.2q-0.6-0.7-1.2-1.5c-0.3-0.4-0.7-0.8-1.1-1.3-0.9-0.8-1.9-1.6-2.7-2.4l-0.4-0.3q-0.3-0.2-0.5-0.5l-0.5-0.5-0.2-0.1-0.1-0.1q-0.3-0.3-0.6-0.6l-0.1-0.1c-0.5-0.4-1-0.9-1.5-1.2-0.7-0.6-1.5-1.1-2.2-1.5l-0.2-0.1h-0.1l-0.8-0.5q-0.5-0.3-1-0.7c-0.6-0.4-1.4-0.9-2.2-1.3-0.9-0.5-1.9-0.9-2.8-1.4l-0.2-0.1h-0.1l-0.4-0.2h0.1c-1-0.5-2.2-1-3.5-1.5l-0.5-0.3q-1.6-0.6-3.1-1.2c-0.7-0.3-1.3-0.5-1.8-0.7q-0.5-0.2-1.1-0.3l-0.2-0.1-0.5-0.1q-0.8-0.3-1.7-0.5l-0.4-0.1-0.5-0.1q-0.5-0.2-1-0.4c-1.4-0.4-2.8-0.6-4.3-0.9h-0.1c-0.8-0.2-1.4-0.3-2.1-0.3q-0.8 0-1.5 0h-0.7-0.2q-0.2 0-0.4 0h-0.3-0.2q-0.4 0-0.8 0h-0.6q-0.8 0-1.6-0.1-1.6 0-3.3 0h-1-0.4q-0.4 0-0.8 0-0.4 0-0.8 0h-0.3q-0.6 0-1.2 0h-0.4-0.4-0.1q-0.2 0-0.3 0h-0.2-0.1q-0.3 0-0.7 0-0.5 0-0.9 0c-0.7 0.1-1.2 0.4-1.5 0.9q-0.2 0.2-0.2 0.3l-0.1 0.1h-0.1l-0.3-0.6q0-0.2-0.1-0.5c-0.3-0.8-0.5-1.4-0.6-2q-0.1-0.3-0.1-0.5c-0.2-0.7-0.3-1.5-0.4-2.3 0-0.6 0-1.1 0-1.7q0.1-0.9 0.1-1.7 0.1-1.8 0.4-3.3l0.1-0.2c0.2-1.1 0.5-2.3 1-3.3q0.2-0.5 0.5-1 0.3-0.5 0.6-0.9 0.3-0.3 0.8-0.6 0.4-0.3 0.7-0.4 0.5-0.2 0.9-0.3h0.2l0.2-0.1q0.9-0.2 1.7-0.5c0.4-0.2 0.7-0.4 1.1-0.6 0.5-0.3 0.9-0.7 1.2-1 0.4-0.4 0.8-0.8 1-1.3q0.2-0.7 0.2-1.6 0-0.9-0.2-1.6c-0.1-0.5-0.4-1-0.5-1.4v-0.1q-0.3-0.5-0.5-0.9v-0.1c-0.2-0.4-0.4-0.7-0.5-1.1q-0.2-0.6-0.3-1.2c0-0.1 0-0.3 0.1-0.5q0.3 0 0.6 0 0.3 0.1 0.5 0.2 0.4 0.2 0.8 0.5 0.2 0.1 0.5 0.3 0.8 0.5 1.7 0.9 0.3 0.2 0.6 0.3c0.6 0.3 1.1 0.6 1.8 0.8q0.7 0.1 1.5 0.1 0.2 0 0.4 0 1 0 1.6-0.4 0.4-0.2 0.7-0.5 0.2-0.3 0.5-0.7l0.3-0.3q0.3-0.3 0.6-0.7 0.1-0.3 0.3-0.6 0.2-0.2 0.4-0.5 0.2-0.2 0.4-0.5v-0.1q0.2-0.2 0.4-0.4 0.1-0.3 0.3-0.5v-0.1l0.1-0.1 0.2 0.1c0.4 0.3 0.9 0.7 1.4 1q0.4 0.3 0.7 0.6l0.2 0.1 0.1 0.1 0.1 0.1q0.1 0.1 0.2 0.2l0.1 0.1c0.6 0.5 1.1 0.8 1.5 1.1q0.4 0.3 0.9 0.6l0.1 0.1 0.1 0.1 0.4 0.2 0.4 0.2c0.9 0.6 1.8 1.2 2.8 1.5q0.5 0.2 1 0.3h0.1q0.2 0 0.5 0 0.3 0 0.7 0c0.6-0.1 1.3-0.4 1.8-0.9 0.6-0.5 1.1-1.3 1.2-2.1 0.1-0.6 0.1-1.3-0.1-1.9-0.2-1-0.8-1.9-1.3-2.8l-0.1-0.3-0.2-0.2-0.3-0.7-0.1-0.2-0.1-0.1-0.1-0.2q-0.1-0.2-0.2-0.4c-0.4-0.6-0.8-1.2-1.2-1.8-0.2-0.3-0.6-0.8-0.8-1.3-0.3-0.5-0.5-1-0.8-1.6q-0.3-1.1-0.4-2.2c-0.1-0.7 0-1.4 0.1-2.3q0.3-1.3 0.9-2.9c0.3-0.9 0.6-1.9 1.1-2.9l0.2-0.4q0.2-0.4 0.4-0.8c0.4-0.7 0.7-1.3 1.1-1.9q0.6-1.1 1.1-2.2l0.5-1.5 0.2-0.4 0.6-1.7q1.5 0.4 2.9 0.7c2.4 0.6 4.9 0.9 7.3 1.1l0.6 0.1q0.6 0.1 1.2 0.1c0.5 0.1 1.1 0.1 1.8 0.1h0.2 0.1 0.1c0.7 0.1 1.6 0.1 2.4 0.1q0.5 0 0.9 0h0.5c1 0 2.2-0.1 3.3-0.3h0.4q0.6-0.1 1.3-0.2 0.9-0.2 2-0.6 0.7-0.3 1.5-0.8c0.6-0.3 1.2-0.7 1.9-1.2q0.4-0.3 0.7-0.7 0.2-0.2 0.3-0.5l0.1-0.1q0.1-0.2 0.2-0.6 0.1-0.3 0.1-0.6c0.1-0.3 0.1-0.5 0-0.7q0-0.5-0.1-0.8c-0.2-0.6-0.5-1.1-1-1.5l-0.1-0.1-0.1-0.1c-0.2-0.1-0.4-0.4-0.7-0.6-0.3-0.2-0.6-0.4-1-0.7l-0.2-0.1-0.4-0.2q-0.7-0.5-1.7-0.9c-0.6-0.2-1.2-0.4-1.6-0.6h-0.2c-0.7-0.3-1.3-0.5-1.9-0.6q-0.6-0.2-1.1-0.2 0.7-0.4 1.3-0.9c0.5-0.4 1-0.9 1.2-1.5q0.2-0.5 0.1-1 0-0.7-0.2-1.2-0.2-0.5-0.5-0.9c-0.4-0.5-1-0.9-1.5-1.3q-1.8-1.2-3.6-1.9c-0.6-0.2-1.2-0.5-1.9-0.6-0.5-0.2-1.1-0.4-1.8-0.5l-0.1-0.1c-0.8-0.1-2-0.4-3.2-0.4q0.3-0.2 0.6-0.5c1.1-0.9 1.6-1.8 1.7-2.8q0-0.5-0.2-1.2-0.2-0.8-1-1.5c-0.6-0.5-1.4-0.9-2.1-1.2q-0.9-0.4-1.9-0.7-0.4-0.2-0.9-0.3h-0.2q-0.5-0.1-0.9-0.1-2.4-0.3-4.6-0.3-1.7 0-3.4 0.2c-0.6 0-0.9 0.1-1.2 0.2l0.1-0.1c0.5-0.4 0.9-0.9 1.3-1.4q1.1-1.6 0.9-2.9c-0.1-1.3-1.3-2-2-2.3-0.5-0.3-1-0.4-1.7-0.6q-1-0.3-2.1-0.4c-1.1-0.2-2.3-0.2-3.5-0.2h-0.4zm9.2 38.1q-0.3 0.5-0.6 1.1l-0.2 0.5c-0.3 0.5-0.5 0.9-0.9 1.4l-0.2 0.3c-0.4 0.7-0.8 1.4-1.1 2l-0.1 0.1c-0.5 0.9-0.9 1.6-1.3 2.4-0.3 0.8-0.6 1.5-0.8 2.1-0.4 1.3-0.7 2.4-0.9 3.4q-0.2 0.9-0.2 1.8 0 1 0.2 1.9c0.2 1.2 0.6 2.3 1.2 3.5 0.5 0.8 1 1.6 1.5 2.2q0.3 0.4 0.6 0.9 0.4 0.5 0.7 1.1l0.1 0.2 0.2 0.2q0.2 0.4 0.4 0.7l0.3 0.5c0.4 0.5 0.8 1.1 1 1.8q0.1 0.4 0.2 0.8 0 0.2 0 0.4 0 0.1-0.1 0.3-0.1 0.1-0.2 0.3-0.1 0.1-0.3 0.2-0.1 0.1-0.2 0.1-0.1 0.1-0.3 0.1h-0.1q-0.2 0-0.4-0.1c-0.4 0-0.7-0.1-1.1-0.3-0.7-0.4-1.3-0.8-1.9-1.2l-0.2-0.1-0.3-0.2q-0.7-0.5-1.4-1c-1.3-1.4-3-2.6-4.7-3.9q-0.1-0.2-0.3-0.3c-0.3-0.1-0.5-0.3-0.8-0.3h-0.1c-0.3 0-0.6 0.1-0.9 0.4-0.2 0.1-0.3 0.3-0.4 0.4l-0.2 0.4-0.2 0.3-0.2 0.3q-0.2 0.3-0.5 0.6l-0.2 0.3q-0.2 0.4-0.5 0.7-0.2 0.3-0.3 0.6-0.2 0.2-0.3 0.4-0.3 0.5-0.6 1l-0.2 0.2q-0.2 0.3-0.4 0.5 0 0.1-0.1 0.1-0.1 0.1-0.2 0.2-0.2 0-0.5 0-0.2 0-0.4 0-0.4 0-0.7 0c-0.4-0.1-0.8-0.3-1.3-0.5l-0.3-0.2h-0.1l-0.2-0.1q-0.3-0.1-0.6-0.3h-0.2l-0.1-0.1-0.1-0.1q-0.7-0.3-1.3-0.7c-0.3-0.2-0.8-0.4-1.3-0.6-0.4 0-0.8-0.1-1.3-0.1q-0.2 0-0.4 0c-0.8 0.1-1.3 0.7-1.5 1.4q-0.3 0.9-0.1 1.8 0.1 0.6 0.3 1.3c0.2 0.4 0.3 0.9 0.5 1.4l0.1 0.1 0.1 0.2q0.1 0.3 0.2 0.7 0.3 0.8 0.4 1.4c0 0.4 0 0.8-0.1 1.1q0 0.1 0 0.2-0.2 0.2-0.3 0.4-0.4 0.4-0.8 0.7c-0.4 0.3-0.8 0.5-1.4 0.7q-0.5 0.1-1.1 0.3h-0.1-0.1q-0.2 0.1-0.4 0.1c-0.4 0.1-0.9 0.3-1.4 0.5q-0.4 0.2-0.7 0.4-0.1 0-0.3 0.2-0.2 0.1-0.3 0.3-0.7 0.5-1.1 1.1l-0.2 0.3v0.1q-0.3 0.4-0.6 0.9-0.8 1.4-1.3 3.2c-0.3 1.4-0.5 2.5-0.6 3.5-0.2 1.2-0.3 2.4-0.3 3.4v0.2c-0.1 1.3 0 2.6 0.2 3.6q0.3 1.7 0.8 3.2 0.2 0.8 0.5 1.5 0 0.2 0.1 0.4c0.1 0.7 0.3 1.3 0.9 1.7-0.2 0.5-0.4 1-0.7 1.5-0.2 0.4-0.4 0.7-0.6 1.1q-0.4 0.5-0.8 1c-0.4 0.4-0.7 0.7-1.1 1q-0.7 0.6-1.3 1.1c-0.8 0.5-1.6 0.9-2.5 1.4q-1.5 0.7-2.8 1.2c-2.9 0.9-6.2 1.6-10.1 2q-0.6 0-1.2 0c-0.6 0-1.2 0-1.9-0.1-1 0-2.2-0.1-3.4-0.3-1.5-0.3-3.1-0.6-4.6-1.1-1.3-0.4-2.7-0.9-4.2-1.6-0.4-0.2-0.9-0.5-1.4-0.8-0.4-0.3-0.9-0.7-1.3-1l-0.5-0.5-0.6-0.5c-1.1-0.9-2.1-1.9-3-3.1-0.3-0.4-0.6-0.9-0.7-1.3q-0.3-0.6-0.6-1.3-0.2-0.7-0.4-1.3l-0.1-0.3q-0.2-0.9-0.5-1.8-0.5-1.9-0.7-3.7v-0.1q0.3-0.2 0.5-0.6v-0.2-0.1q0.1-0.1 0.1-0.2v-0.1c0.3-0.1 0.5-0.3 0.7-0.6q0.3-0.3 0.3-0.8c0-0.3-0.1-0.7-0.3-1v-0.2q0.2-0.6 0.3-1.2 0.1-0.4 0.2-0.9 0.1-0.5 0.3-1.1 0.5-2.1 1-4.2l0.1-0.6v-0.1c0.1-0.4 0.2-0.9 0.4-1.4q0.1-0.5 0.3-1l0.1-0.4 0.1-0.3 0.1-0.3c0.4-1.3 0.8-2.6 1.4-4.1q0.2-0.6 0.4-1.1 0.2-0.5 0.4-1 0.3-0.6 0.5-1.3 0.1-0.3 0.2-0.6 0.1-0.6 0.3-1.1l0.2-0.7 0.2-0.5q0.2-1 0.5-1.9l0.2-0.6c0.4-1.1 0.7-2.3 1.2-3.3q0.3-1 0.7-1.9v-0.1c0.3-0.6 0.6-1.3 0.8-2 0.3-0.9 0.6-1.7 0.9-2.7q0.4-0.1 0.7-0.3c0.7-0.2 1.2-0.4 1.8-0.7 0.4-0.2 0.8-0.4 1.3-0.7l0.3-0.2q0.7-0.4 1.5-0.9l0.5-0.4c0.9-0.5 1.9-1.1 2.7-1.8 2.1-1.7 3.5-3.8 4.8-5.8 0.4-0.5 0.7-1.1 1-1.7q0.3-0.8 0.5-1.6c0.1-0.6 0.2-1.2 0.3-1.9q0.1-0.4 0.1-0.8 0.1-0.4 0.2-0.8c0.1-0.6 0.2-1.1 0.4-1.6q0.2-0.4 0.6-0.9c0.3-0.3 0.6-0.6 1-0.9q0.7-0.5 1.4-0.7 0.4-0.1 0.7-0.2h0.1c0.5 0 1 0.1 1.6 0.2h0.1l0.5 0.1h0.1q1.8 0.4 3.2 0.9l0.5 0.2q0.6 0.2 1.2 0.4c0.8 0.1 1.4 0.3 2 0.3q0.3 0 0.5 0 0.2 0 0.4 0h0.3q0.4 0 0.9-0.1c0.6-0.1 1.2-0.4 1.7-0.6h0.2c0.7-0.3 1.1-0.5 1.6-0.8q0.4-0.3 0.8-0.6h0.1q0.2-0.2 0.5-0.4 0.2-0.1 0.4-0.3l0.2-0.1q0.4-0.2 0.8-0.5 0.5-0.3 0.9-0.6l0.6-0.4q0.4-0.3 0.8-0.6 0.6-0.2 1.2-0.5c0.8-0.3 1.5-0.6 2.2-0.9q1.2-0.4 2.4-0.5 0.2 0 0.5 0c0.4 0 0.8 0 1.5 0 0.6 0.1 1.3 0.1 2.1 0.3 1.3 0.2 2.6 0.7 3.8 1.1l0.1 0.1q0.6 0.2 1.2 0.4c1 0.3 2 0.7 2.9 1.1l1 0.5 0.4 0.2q0.5 0.2 1.1 0.5 0.4 0.2 0.9 0.4l0.1 0.1 0.2 0.1h0.1l0.2 0.1q0.6 0.4 1.2 0.6 0.7 0.4 1.5 0.8l0.4 0.2q0.4 0.2 0.9 0.4 0.8 0.3 1.5 0.6 0.2 0.4 0.7 0.6l0.2 0.1q0.1 0.1 0.3 0.2 0.1 0.1 0.2 0.1-0.3 0.9-0.8 2zm142.7 76.5q-0.4-0.1-0.8-0.1h-0.2l-0.2-0.1q-0.3 0-0.5 0c-1.3-0.2-2.7-0.3-4.2-0.3h-1.1-0.5q-0.5 0-1 0-0.8 0-1.5 0-2.3 0.1-4.7 0.4c-0.4 0-0.8 0.1-1.2 0.2q-0.4 0-0.8 0.1h-0.2-0.1q-0.9 0.2-1.8 0.3-0.8 0.2-1.6 0.4l-0.3 0.1q-1.1 0.2-2.1 0.5-0.6 0.2-1.3 0.4l-0.3 0.1-0.4 0.1-0.6 0.2q-0.8 0.2-1.5 0.4c-1.6 0.6-2.9 1-4.2 1.6-0.7 0.3-1.3 0.6-2 1q-0.5 0.3-1.1 0.7-0.3 0.2-0.7 0.4-0.4 0.3-0.9 0.5-0.4 0.2-0.8 0.5-0.9 0.6-1.9 1.3-0.4 0.4-0.9 0.7l-0.1 0.1-0.6 0.5-0.4 0.3-0.2 0.2-0.2 0.1q-0.5 0.4-1 0.8l-0.2 0.2c0.3-0.7 0.6-1.3 0.8-1.9 0.6-1.1 1.2-2.2 1.9-3.1 0.5-0.5 1-1 1.5-1.4q0.4-0.3 0.7-0.6 0.4-0.3 0.8-0.7l0.4-0.3q0.5-0.4 1.1-0.9 0.6-0.4 1.3-0.7l0.1-0.1 0.1-0.1 0.5-0.2 0.3-0.2c0.5-0.3 1.1-0.6 1.7-0.9 0.6-0.3 1.2-0.6 2.2-1l0.5-0.2c0.4-0.2 1-0.5 1.5-0.7 0.9-0.2 1.8-0.4 2.7-0.6 1.2-0.2 2.1-0.4 2.9-0.5l0.8-0.1 0.8-0.1q0.4 0 0.7-0.1h0.1 0.2q0.4-0.1 0.8-0.1 0.5-0.1 1-0.1l0.2-0.1c0.7 0 1.5-0.1 2.4-0.2l0.6-0.1 0.2-0.1c0.9-0.2 1.7-0.3 2.5-0.4q1.5-0.2 2.9-0.3 0.1 0 0.1 0h0.1q0.4 0 0.7-0.1h-0.1 0.2q0.8 0 1.6-0.1l0.6-0.1q0.5 0 1-0.1 0.1 0 0.2 0h0.1c0.4 0.4 0.6 0.7 0.9 1.1v0.1l0.1 0.1c0.8 1.2 1.5 2.2 2.3 3.1v0.1zm-51 9.1c-1.2-0.6-2.2-1.1-3.1-1.4-0.7-0.4-1.3-0.6-1.9-0.8q-0.7-0.3-1.3-0.5h-0.1-0.2l-0.4-0.2q-2.2-0.7-4.1-1.2l-0.5-0.2q-0.8-0.2-1.6-0.5-0.5-0.1-1-0.2l-0.2-0.1h-0.1-0.2q-0.3-0.1-0.7-0.2-0.5-0.2-1.1-0.3l-0.2-0.1c-1.2-0.3-2.1-0.6-3-0.8q-1.1-0.2-2.3-0.5c-0.6-0.1-1.2-0.2-1.9-0.3l-0.5-0.1c-1.3-0.2-2.8-0.5-4.3-0.7h-0.2c-1.3-0.1-2.8-0.3-4.3-0.4l-0.9-0.1q-1.6-0.1-3.3-0.2-1.6 0-3 0-0.7 0-1.4 0c-1.4 0-2.9 0.1-4.6 0.3-0.5 0-1.3 0.1-2 0.3-0.7 0.1-1.3 0.2-2.1 0.4q-1 0.3-2 0.6-0.7 0.2-1.4 0.4l-0.1 0.1h-0.1l-0.3 0.1q-0.5 0.1-0.9 0.3h-0.2c-0.3 0.1-0.6 0.2-0.8 0.3l-0.1 0.1h-0.1q-0.4-0.4-1-0.9l-0.3-0.3-0.1-0.1q-0.2-0.2-0.4-0.3 0.5-0.1 1-0.1l0.2-0.1 0.6-0.1h0.3c1.2-0.2 2.5-0.3 3.7-0.6l1-0.2q1.1-0.2 2.2-0.5 0.7-0.2 1.5-0.4l0.3-0.1q0.7-0.2 1.4-0.3c1.2-0.4 2.1-0.5 3-0.7q1.3-0.1 2.7-0.3h0.3-0.1l0.7-0.1-0.1 0.1c0.2 0 0.5-0.1 0.9-0.1q1 0 1.9 0 0.7 0 1.5 0 1.7 0.1 3.4 0.2 0.8 0.1 1.6 0.1 0.9 0.1 1.8 0.2c1.1 0 2.3 0.1 3.4 0.3l0.6 0.1q1.4 0.2 2.8 0.4c1.5 0.4 2.8 0.6 4.2 1 1 0.3 2 0.6 3 1q0.8 0.3 1.6 0.7l0.4 0.1h0.1l0.1 0.1q0.4 0.2 0.9 0.3 0.6 0.3 1.2 0.5h0.2l0.1 0.1q0.8 0.3 1.7 0.6 0.7 0.3 1.5 0.6h0.2q0.6 0.3 1.3 0.6c0.4 0.2 0.6 0.3 0.9 0.5q0.5 0.4 1.1 0.8 1 0.8 1.9 1.6 0.4 0.3 0.7 0.7l0.2 0.1 0.1 0.1zm49.6 10.4q-0.1 0.2-0.1 0.3-0.3 1.5-0.6 2.9-0.5 2.5-0.9 4.8v0.1q-0.1 0.9-0.3 1.7v0.1 0.1 0.1q-0.2 1.2-0.5 2.5-0.2 0.9-0.3 1.9-0.2 0.8-0.3 1.6l-0.1 0.3v0.3l-0.4-0.4-0.1-0.1q-0.3-0.2-0.5-0.4l-0.1-0.1q-0.6-0.5-1.2-1-0.7-0.5-1.3-0.9c-0.4-0.2-1-0.6-1.6-0.7q-0.6-0.2-1.2-0.2-0.6 0-1.2 0.3c-1 0.6-1.3 1.8-1.2 2.7 0 0.3 0 0.5 0.1 0.7q-0.6-0.3-1.2-0.5c-0.5-0.2-1.2-0.5-1.8-0.5q-0.6 0-1.1 0.3c-0.8 0.3-1.3 1-1.5 1.8-0.1 0.5-0.1 1 0 1.5 0 0.8 0.3 1.5 0.6 2.2 0.2 0.6 0.3 1 0.5 1.3q-0.4-0.4-0.9-0.7l-0.2-0.2h-0.1c-0.4-0.4-0.9-0.8-1.4-1.1q-1.2-0.7-2.3-0.7-0.6 0-1 0.2c-0.3 0.2-0.5 0.4-0.8 0.7q-0.4 0.5-0.5 1.4-0.1 1.2 0.6 2.6 0.2 0.5 0.4 1c0.2 0.4 0.4 0.7 0.6 1.2 0.2 0.5 0.5 1.3 0.9 1.9q0.7 1.1 1.3 2.1 0.3 0.3 0.5 0.6l0.2 0.2q0.3 0.4 0.6 0.9 0.3 0.5 0.6 1l0.3 0.4-0.2-0.1-0.1-0.1q-0.5-0.2-0.9-0.4l-0.2-0.1-0.1-0.1q-0.7-0.4-1.4-0.7c-0.8-0.4-1.7-0.7-2.4-1l-0.2-0.1c-0.7-0.3-1.4-0.6-2.3-0.9-0.9-0.2-1.9-0.3-2.8-0.4q-0.2 0-0.5 0-0.4 0-0.8 0.1c-0.4 0-0.8 0.1-1.1 0.3-1 0.3-1.8 1-2.1 1.8-0.3 0.9-0.2 1.8 0.3 2.5 0.3 0.5 0.7 1 1.3 1.6 0.5 0.5 1.1 1.1 1.8 1.6q0.4 0.2 0.7 0.4l0.1 0.1q0.5 0.3 1 0.7l0.2 0.1q0.8 0.6 1.6 1c0.6 0.4 1.3 0.7 1.8 0.9q0.6 0.3 1.2 0.7 0.6 0.4 1.2 0.8c0.6 0.3 1.3 0.6 1.9 0.8v0.1h0.2q0.3 0.2 0.5 0.3 0.4 0.2 0.8 0.4l0.1 0.1q0.3 0.2 0.7 0.4 0.1 0.1 0.2 0.1l0.1 0.1h0.1q0.2 0.1 0.4 0.2 0.2 0.3 0.3 0.6v0.1q0.3 0.7 0.6 1.5v0.1q0.3 0.6 0.6 1.3 0 0.1 0 0.1c0.2 0.6 0.3 1.1 0.4 1.5 0 0.6 0 1.3-0.1 2.1q-0.2 1.2-0.4 2.3-0.5 2.5-1.2 4.8l-0.1 0.3q-0.6 2-1.2 3.9c-0.2 0.8-0.3 1.6-0.5 2.4v0.1q-0.2 0.8-0.4 1.5l-0.1 0.6q-0.2 0.7-0.4 1.5l-0.1 0.6-0.1 0.4v0.3q-0.1 0.3-0.2 0.7l-0.1 0.4q-0.1 0.7-0.3 1.4v0.2h-0.1q-0.2 0.8-0.3 1.5v0.1h-0.2-0.2q-0.8 0.1-1.5 0.1-0.3 0-0.6-0.1-0.6 0-1.3 0-0.5 0-0.9-0.1h-0.2q-0.8 0-1.5 0-0.4 0-0.7 0-1 0-2 0.1h-0.1l-0.2 0.1q-1.6 0.1-3.2 0.1h-0.4q-1.3 0.1-2.2 0.2-0.4 0-0.7 0-0.2 0-0.3 0 0 0-0.1 0-0.3 0-0.6 0.1l-0.1 0.1h-0.2c-1.1 0.2-2.3 0.4-3.8 0.6q-0.6 0.1-1.1 0.2l-0.3 0.1h-0.1-0.2q-1.1 0.2-2.2 0.5c-1.4 0.3-2.7 0.6-4 0.9l-0.4 0.2h-0.2l-0.3 0.1q-0.6 0.2-1.2 0.4l-0.3 0.1q-0.8 0.2-1.6 0.4c-1.2 0.4-2.3 0.9-3.4 1.3l-0.9 0.4-0.6 0.3-0.3 0.1h-0.1l-0.1 0.1q-0.4 0.1-0.7 0.3 0.3-1.5 0.6-2.9 0.2-0.7 0.3-1.4l0.1-0.3v-0.3l0.1-0.3 0.1-0.9q0.2-0.8 0.3-1.6l0.1-0.2 0.1-0.7v-0.1-0.1-0.1q0.4-1.9 0.8-3.8 0.1-0.8 0.3-1.5 0.2-0.7 0.4-1.4 0.3-1.6 0.6-2.9l0.1-0.1v-0.1c0.5-1.9 0.9-3.7 1.4-5.4 0.6-2.2 1.1-3.9 1.4-5.6 0.5-2 0.9-4 1.2-5.9v-0.1q0.1-0.4 0.2-0.9l0.1-0.3 0.1-0.4 0.2-0.9 0.4-2.1 0.2-0.7 0.1-0.5q0.3-1.3 0.5-2.5 0.4-1.7 0.7-3.5 0.2-1.1 0.4-2.2l0.4-2q0.4-1.9 0.8-3.8l0.1-0.4q0.6-2.6 1.1-5.3 0.5-2.1 0.9-4.3v-0.4l0.3-1.5q0.2-1 0.3-1.9l0.1-0.2 0.1-0.7q0.1-0.6 0.2-1.2v-0.1l0.1-0.3q0.1-0.5 0.2-1.1c0.3-1.9 0.6-3.9 1-5.9q0.2-1 0.4-2 0.1-0.6 0.3-1.2 0-0.5 0.1-1l0.2-0.6q0.2-0.9 0.4-1.8v-0.1-0.1q0.2-0.1 0.4-0.3c0.3-0.2 0.6-0.6 0.8-0.8l0.1-0.2c0.9-0.9 1.9-1.7 2.7-2.3l0.6-0.4 0.3-0.3 0.2-0.1h0.1q0.8-0.7 1.7-1.3c0.6-0.4 1.2-0.7 1.8-1l0.1-0.1c0.4-0.2 0.9-0.5 1.4-0.8l0.1-0.1 0.4-0.3c1.4-0.8 2.8-1.3 4.2-1.8 1.1-0.4 2.3-0.8 3.5-1.1l0.2-0.1h0.3c1.3-0.4 2.5-0.7 3.7-1l0.4-0.1q0.8-0.2 1.6-0.4 1-0.2 2-0.3 0.4-0.1 0.9-0.2h0.1q0.4-0.1 1-0.1c0.7-0.1 1.3-0.2 1.9-0.2 1-0.1 2.3-0.2 3.5-0.2q0.6 0 1.2 0 1 0 2 0h0.5c1.5 0 2.7 0 3.9 0.2q0.5 0 1.1 0.1h0.1q0.8 0 1.6 0.1l-0.1 0.2v0.2q0 0.3-0.1 0.5v0.2q-0.2 0.6-0.3 1.2 0 0.1 0 0.2-0.2 0.8-0.3 1.7-0.3 1.3-0.6 2.7c-0.2 0.9-0.4 1.9-0.5 2.7v0.1l-0.1 0.5q-0.2 1-0.4 2l-0.1 0.5q-0.3 1.9-0.6 3.7zm-54.3 50v-0.1l-0.1 0.2c-0.3 1.5-0.7 3.3-1.1 5.2q-0.3 0.9-0.5 1.9l-0.2 0.5q-0.3 1.4-0.7 2.7l-0.3 1.2q-0.2 0.8-0.4 1.6c-0.3 0.9-0.5 1.9-0.6 2.7q-0.2 0.8-0.4 1.5v0.2q-0.2 0.6-0.3 1.3-0.1 0.6-0.2 1.2l-0.1 0.5q-0.1 0.5-0.2 1c-0.4 1.9-0.7 3.7-1 5.3l-0.1 0.4-0.2 1.2-0.1 0.2c-0.1 0.9-0.4 2.1-0.7 3.4v0.2 0.2q-0.4-0.1-0.7-0.2l-0.1-0.1h-0.1l-0.2-0.1q-0.5-0.2-1.1-0.3c-1.1-0.4-2.2-0.6-3.3-0.9h-0.1-0.1-0.1v-0.1q-0.7-0.1-1.4-0.3l-0.9-0.1-0.5-0.1-0.2-0.1h-0.2l-0.3-0.1q-0.3 0-0.6-0.1-1.6-0.3-3.2-0.6l-0.9-0.1h0.1c-1.5-0.3-3.1-0.6-4.8-0.8-1.5-0.2-2.8-0.4-4.1-0.5-1.1 0-2.3-0.2-3.4-0.3l-0.7-0.1h-0.4-0.2c-1.2-0.2-2.4-0.3-3.6-0.4q-1.8-0.1-3.7-0.2l-0.5-0.1q-1.3 0-2.6-0.1l-1.2-0.1h-0.2-0.2l-0.5-0.1q-0.7 0-1.5-0.1-0.7 0-1.4 0h-0.6-0.2c-1.1 0-2.1 0.1-3 0.1h-0.4q-0.4 0-0.8 0.1-0.2 0-0.4 0-0.2 0-0.2 0 0-0.3 0-0.6v-0.2-0.2q0-0.5 0-0.9c-0.1-0.7 0-1.4 0-2.1v-0.1q0.1-0.8 0.1-1.5v-0.8c0-0.9 0-1.9 0.1-2.8v-0.6q0-0.6 0.1-1.3 0-0.4 0-0.8 0-0.2 0-0.4 0.5-0.4 1-0.8c0.6-0.4 1.2-0.8 2-1.2 0.5-0.3 0.9-0.5 1.4-0.7q0.4-0.2 0.8-0.4 0.5-0.3 1.1-0.6l0.1-0.1q0.5-0.3 1-0.5 1.1-0.6 2.3-1.2c1.4-0.8 2.7-1.6 4.3-2.7l0.4-0.2c1.3-0.9 2.7-1.8 3.5-3.2 0.3-0.7 0.5-1.3 0.5-1.9 0-0.6 0-1.4-0.6-2-0.7-0.9-1.9-1.1-2.9-1.3q-1-0.1-2-0.1-1.2 0-2.5 0.2 0.4-0.2 0.7-0.5 0.5-0.4 1.1-0.9 0.5-0.5 1-0.9 0.3-0.2 0.6-0.4l0.2-0.1 0.3-0.2q0.5-0.4 1-0.8 1.1-0.9 2-1.8c0.5-0.5 1.2-1.3 1.4-2.3 0.1-0.5 0.1-1 0-1.4-0.1-0.3-0.3-0.7-0.5-1-0.4-0.3-0.7-0.5-1-0.6q-0.3-0.1-0.7-0.2-0.5-0.1-1-0.1-0.7 0.1-1.5 0.1l-0.1 0.1h-0.3q-1.4 0.1-2.6 0.4l-0.6 0.1-0.6 0.2q0.8-0.4 1.5-0.9c0.6-0.4 1-0.6 1.3-0.9 0.4-0.2 0.7-0.5 1-0.8 0.6-0.5 1.2-1 1.8-1.5l0.1-0.1c0.5-0.4 1.2-1 1.7-1.6q0.3-0.4 0.5-0.8c0.2-0.2 0.4-0.6 0.5-1q0.4-1.5 0-2.7c-0.2-0.4-0.5-0.8-0.9-1.1q-0.3-0.3-0.8-0.5-0.5-0.2-1.3-0.3-0.4-0.1-0.9-0.1-0.2 0-0.5 0.1-0.9 0-1.7 0.2c-0.7 0.1-1.6 0.3-2.5 0.6q-0.8 0.2-1.5 0.5-0.6 0.3-1.2 0.6l-0.6 0.3h-0.1q-0.8 0.4-1.6 0.8-0.3 0.1-0.5 0.2l-0.2 0.1-0.2 0.1h0.1q1-0.8 2-1.6l0.4-0.3c0.4-0.3 0.9-0.6 1.4-1q0.7-0.8 1.3-1.5l0.4-0.5q0.3-0.4 0.6-0.8l0.2-0.2c0.3-0.3 0.6-0.6 0.8-1 0.4-0.7 0.6-1.4 0.6-2 0-0.5 0-1-0.3-1.4-0.2-0.4-0.6-0.9-1.2-1.1q-0.7-0.2-1.4-0.2-0.6 0-1.2 0.1c-0.7 0.2-1.4 0.4-1.9 0.7l-0.3 0.1-0.3 0.1-0.3 0.1c-0.5 0.2-1.1 0.4-1.7 0.7l-0.1 0.1q0-0.9 0.1-1.7 0-0.6 0-1.3v-0.2q0.1-0.2 0.1-0.4 0-0.7 0-1.4v-0.1-0.1l0.1-0.4q0-0.5 0-1v-0.2-0.2q0-0.3 0.1-0.6c0-1.9 0.2-3.6 0.3-5.8l0.1-1.2 0.1-1.2c0-1 0.1-1.9 0.3-2.9v-0.2-0.1-0.2l0.1-0.8c0.1-0.7 0.1-1.6 0.2-2.2q0.1-1 0.2-2.1 0-0.8 0.1-1.5v-0.2c0.2-1.9 0.4-4.1 0.8-6.2l0.1-0.2v-0.2q0.2-0.1 0.4-0.2 0.7-0.2 1.5-0.5h0.1l0.1-0.1c1.1-0.3 2.4-0.7 4.1-1.1 1.4-0.3 2.8-0.4 4.2-0.6h0.3q2.1-0.1 4-0.1h0.4c3.1 0 5.8 0.1 8.2 0.3 2.8 0.3 5.7 0.7 8.5 1.2l0.8 0.2h0.1c1.2 0.2 2.4 0.5 3.7 0.9q1.1 0.3 2.1 0.6h0.2l0.2 0.1q0.9 0.2 1.7 0.4 0.8 0.3 1.5 0.5 1.4 0.4 2.7 0.8 0.5 0.1 1 0.3l0.3 0.1q0.4 0.1 0.8 0.2c0.7 0.2 1.4 0.5 2.1 0.7 1.3 0.5 2.5 1 3.6 1.6q1.1 0.5 2.2 1.2h0.1q0.5 0.3 0.9 0.5c0.7 0.4 1.2 0.6 1.6 0.9q0.5 0.3 1 0.7 0.2 0.1 0.4 0.3l0.3 0.2 0.1 0.1q0.5 0.3 1 0.7c0.3 0.1 0.6 0.4 1 0.5q-0.3 1-0.6 2.1-0.3 1.4-0.7 2.7c-0.2 0.9-0.5 1.9-0.7 2.8q-0.2 1.5-0.5 3-0.1 0.5-0.3 1l-0.1 0.5v0.2 0.1q-0.2 0.9-0.4 1.8-0.2 1.1-0.4 2.2l-0.3 1.3q-0.2 1.2-0.5 2.5v0.2q-0.3 1.5-0.7 3-0.4 2.3-1 4.6l-0.2 1.1q-0.4 1.8-0.8 3.7l-0.1 0.5-0.4 1.7q-0.2 1.3-0.5 2.6v0.1 0.1 0.2q-0.2 1.2-0.5 2.4v0.2q-0.5 2.5-1.1 5-0.2 1.2-0.5 2.4-0.2 1-0.4 2.1l-0.1 0.4c-0.2 0.9-0.4 1.8-0.5 2.8zm-57.1-28.3v-0.6l0.1-0.8v-0.8l0.1-1.2c0.2-2 0.3-4.1 0.3-6.2q0-0.5 0.1-1v-0.2q0-0.3 0-0.6 0-1 0-1.9c0.1-1.5 0.1-2.7 0.2-3.8q0.2-3.8 0.4-7.5v-0.1l0.1-1.4q0.2-3.2 0.3-6.3 0.1-1.9 0.2-3.9l0.1-0.4q0-0.6 0-1.2 0.2 0.2 0.5 0.4l0.1 0.1 0.1 0.1 0.4 0.3c0.4 0.4 0.8 0.8 1.1 1.3h0.1l-0.1 0.1q0 0.2 0 0.3c-0.2 1.2-0.4 2.5-0.5 3.8q-0.2 1.2-0.3 2.5v0.3q0 0.7-0.1 1.4-0.1 1-0.1 2-0.1 1.2-0.2 2.3l-0.1 1.1v0.2c-0.1 0.9-0.2 1.9-0.2 2.8l-0.1 1.5q-0.1 1.5-0.2 2.9v0.2c0 1.2-0.1 2.6-0.1 4v0.3q0 0.9 0 1.8-0.1 1.1-0.1 2.2 0 0.5 0 1.1c0 1-0.1 2 0.1 3q0 0.2 0.1 0.4l-0.4 0.2-0.3 0.2-0.3 0.2q-0.3 0.3-0.7 0.6l-0.4 0.2-0.2 0.1zm-139.5 59.3l-0.5-1.5-0.3-0.8q-0.2-0.9-0.5-1.7v-0.1l-0.1-0.3-0.2-0.8-0.1-0.2c-0.2-0.8-0.5-1.8-0.6-2.7-0.3-1.5-0.7-3.3-0.9-5.2-0.2-1.8-0.4-3.5-0.5-5.1l-0.1-1.5c-0.1-1.7-0.2-3.1-0.3-4.6q0 0.1 0 0.1v-0.7l-0.1-0.6q0 0 0 0v-0.1-0.1q0-0.1 0-0.1-0.2-2.7-0.4-5.4c-0.1-0.9-0.2-2.1-0.3-3.2q0 0 0.1 0.1c-0.3-2.9-0.5-5.7-0.7-7.8q-0.1-0.9-0.2-1.7v-0.3q-0.1-0.9-0.2-1.8-0.2-1.8-0.3-3.6l-0.1-0.3q-0.1-2-0.2-4 0-0.7 0-1.4v-0.4-0.5q0-1.1 0-2.2 0.1-2.2 0.3-4.4v-0.4c0.1-1.3 0.2-2.5 0.4-3.8q0.2-1.1 0.6-2 0.2-0.3 0.3-0.5 0.2 0 0.3 0.1 0.2 0.1 0.3 0.2 0.3 0.3 0.6 0.7c0.4 0.6 0.6 1.3 0.9 2q0.3 0.8 0.6 1.7l0.1 0.3 0.2 0.4q1 3.1 1.7 6.3c0.5 2.1 0.6 4.2 0.8 6.2v0.1q0 0.6 0 1.3l0.1 0.6c0 0.9 0.1 2.1 0.1 3.2 0.1 1.4 0.2 2.9 0.2 4l0.1 0.8c0 1.6 0 3.2 0 4.6v0.2 1.2c0 1.8 0 3.7 0 5.3v0.2 0.3 0.4q0 0.5-0.1 1v0.3 0.2q0 0.8 0 1.6 0 0.7 0 1.5v0.1q0 0.7 0 1.4c0 1.5-0.1 3.1-0.2 4.6l-0.1 1.2q-0.2 4.1-0.3 8.2l-0.1 0.7-0.1 3v1.3 0.2 0.3q-0.1 2-0.2 3.9zm109-35.1v-0.1-0.1q0.1-0.3 0.1-0.7l0.1-0.3q0-0.3 0.1-0.6 0.1-1.1 0.3-2.1v-0.3l0.1-0.2 0.1-0.8q0.1-1.1 0.2-2.1c0.1-0.5 0.1-1 0.2-1.5v-0.1l0.1-0.5c0.2-1.5 0.3-2.8 0.5-4.2q0-0.4 0-0.8 0.1-0.7 0.1-1.4c0.1-0.8 0.2-1.6 0.3-2.2 0.2-1.1 0.4-2.2 0.7-3.8q0.4-1.9 1-3.6l0.1-0.3c0.3-1 0.7-2 1.1-2.9q0.2-0.4 0.4-0.6 0.2-0.2 0.4-0.4 0.2-0.1 0.4-0.2 0.3-0.1 0.6-0.1h0.1q0.5 0 1.1 0.1 0.5 0.1 0.8 0.3c0.5 0.2 1 0.6 1.4 1l0.2 0.1q0.7 0.6 1.5 1.2 0.7 0.7 1.4 1.6c0.3 0.4 0.5 0.9 0.7 1.2l0.1 0.1v0.2q0.2 0.3 0.3 0.5 0.5 0.8 0.9 1.6l0.3 0.5 0.2 0.4q0.2 0.4 0.5 0.7 0.3 0.6 0.7 1.4c0.4 0.7 0.8 1.5 1.1 2.2q0.2 0.6 0.3 1.4 0 0 0 0.1-0.3 0.2-0.7 0.5c-0.8 0.6-1.5 1.2-2.1 1.7l-0.6 0.5-0.2 0.2-0.1 0.1-0.2 0.1q-0.6 0.5-1.2 1l-0.5 0.4-0.1 0.1q-0.8 0.7-1.5 1.3l-0.9 0.7-0.4 0.3c-1.1 1-2.2 1.8-3.2 2.7-0.8 0.7-1.5 1.3-2.1 1.8l-0.9 0.7q-0.7 0.5-1.4 1.1c-0.7 0.5-1.4 1.1-2.1 1.8l-0.1 0.1zm113.4 40.6c-0.2-0.4-0.3-0.8-0.5-1.2q-0.3-0.5-0.6-1c-0.1-0.3-0.4-0.6-0.5-0.8l-0.2-0.2q-0.3-0.5-0.7-0.9l-0.1-0.1q-0.2-0.3-0.4-0.6c-0.4-0.5-0.8-1-1.2-1.7l-0.2-0.3q-0.1-0.2-0.3-0.4v-0.1q-0.1-0.3-0.3-0.5h0.1 0.1l0.4-0.1h0.2q1.5-0.1 3-0.2l0.7-0.1h0.4q1-0.2 1.9-0.2 0.6-0.1 1.1-0.1 0.8 0 1.5 0.1h0.1 0.2q0.6 0 1.3 0h0.2c0.7 0 1.4-0.1 2.3-0.2q0.3 0 0.7-0.1 0.5 0 1.1-0.1h0.1c0.4 0 0.6-0.1 0.9-0.3 0.2-0.2 0.3-0.5 0.3-0.8q0.1-0.3-0.1-0.6c0.1-0.4 0.2-0.9 0.3-1.3q0.1-0.2 0.1-0.4 0.2-0.8 0.4-1.7 0.2-0.7 0.3-1.4l0.2-0.8q0.1-0.6 0.3-1.2v-0.2l0.1-0.3 0.1-0.2v-0.2l0.2-1 0.1-0.1v-0.2q0.3-1.3 0.7-2.6v-0.2-0.1q0.3-0.9 0.6-1.8 0.1-0.3 0.2-0.7l0.1-0.2q0.1-0.5 0.3-1.1 0.6-2 1-4c0.3-1.4 0.6-2.9 0.7-4.4 0.1-0.7 0.1-1.4 0-2.1q-0.1-0.6-0.3-1.4-0.2-0.8-0.6-1.7-0.1-0.4-0.3-0.7-0.1-0.3-0.2-0.6l-0.1-0.2q-0.1-0.5-0.3-1-0.1-0.4-0.3-0.7-0.4-0.6-1.1-1-0.3-0.2-0.6-0.3h-0.1v-0.1h-0.1l-0.3-0.1-0.4-0.3-0.3-0.1c-0.4-0.2-0.8-0.4-1.2-0.6q-0.4-0.2-0.8-0.3l-0.1-0.1q-0.5-0.2-1-0.4-0.2-0.1-0.5-0.3l-0.2-0.1-0.1-0.1h-0.1l-0.1-0.1q-0.6-0.3-1.2-0.7-0.5-0.2-1-0.4l-0.1-0.1h-0.2l-0.3-0.2-0.3-0.1-0.3-0.1q-0.6-0.3-1.3-0.8l-0.1-0.1c-0.5-0.3-1-0.6-1.5-0.8l-0.1-0.1c-0.5-0.3-1-0.6-1.5-0.9q-0.6-0.5-1.2-1-0.3-0.3-0.7-0.7 0 0 0-0.2v-0.1q0.1-0.1 0.2-0.2 0.3-0.2 0.5-0.3 0.2 0 0.5-0.1h0.2c0.8 0 1.6 0.2 2.2 0.3q0.5 0.1 1.1 0.3 0.6 0.2 1.1 0.4h0.1l0.1 0.1q1.2 0.5 2.4 1.1 0.7 0.3 1.4 0.7l0.1 0.1q0.3 0.2 0.7 0.3 0.4 0.3 0.9 0.5c0.4 0.2 1 0.5 1.5 0.8 0.4 0.3 0.8 0.5 1.3 0.9q0.4 0.3 0.9 0.6 0.1 0.1 0.2 0.2h0.1l0.1 0.1q0.4 0.2 0.7 0.5 0.1 0.1 0.3 0.3c0.3 0.3 0.7 0.5 1.2 0.5q0.2 0 0.3-0.1c0.5-0.1 1-0.5 1.2-1 0.2-0.8-0.1-1.4-0.4-1.9q-0.4-0.5-0.8-1l-0.1-0.2-0.1-0.2q-0.7-1-1.4-1.9l-0.6-0.7q-0.4-0.6-0.8-1.2-0.5-0.7-1.1-1.4-0.3-0.4-0.6-0.8l-0.1-0.1-0.1-0.1-0.1-0.1q-0.4-0.6-0.9-1.2-0.8-1.3-1.4-2.5c-0.2-0.4-0.4-0.7-0.6-1.1-0.2-0.5-0.5-1-0.7-1.5q-0.1-0.3-0.2-0.6v-0.2q0.1 0.1 0.2 0.1c0.4 0.3 0.9 0.5 1.3 0.9q0.8 0.5 1.6 1.2c0.8 0.7 1.7 1.6 2.4 2.4l0.1 0.1c0.8 0.8 1.6 1.6 2.3 2.6q0.4 0.6 0.7 1.3c0.4 0.8 0.7 1.5 1.1 2.2 0.3 0.6 0.6 1.2 1 2l0.2 0.3q0.1 0.2 0.3 0.5 0.1 0.3 0.3 0.5c0.3 0.3 0.7 0.5 1.1 0.5q0.2 0 0.3-0.1 0.6-0.1 0.9-0.6c0.2-0.3 0.3-0.6 0.2-1 0-0.3-0.1-0.5-0.3-0.8l-0.1-0.1q-0.1-0.2-0.2-0.4l-0.1-0.1-0.2-0.3q-0.4-0.7-0.7-1.4h-0.1v-0.1q-0.2-0.4-0.4-0.7v-0.1c-0.4-0.8-0.6-1.3-0.9-1.9q-0.1-0.3-0.3-0.6v-0.1q-0.3-0.6-0.6-1.3c-0.3-0.7-0.6-1.3-1-1.9l-0.2-0.4c-0.2-0.4-0.5-0.9-0.8-1.4-0.5-1-1-2.2-1.6-3.7-0.1-0.4-0.3-0.9-0.3-1.3v-0.3-0.1c0.4 0.1 0.8 0.3 1.2 0.5 0.4 0.2 1 0.5 1.5 0.9 0.4 0.4 0.8 0.8 1.2 1.2l0.1 0.1q0.3 0.4 0.6 0.8l0.4 0.3c0.5 0.5 1.1 1.1 1.6 1.8q0.2 0.3 0.5 0.8v0.1l0.1 0.1v0.1l0.1 0.1q0.2 0.3 0.3 0.6l0.3 0.3v0.1q0.3 0.5 0.6 1 0.3 0.5 0.5 0.9c0.3 0.5 0.7 1.1 1 1.8l0.1 0.3c0.1 0.1 0.2 0.4 0.3 0.6l0.1 0.1c0.1 0.1 0.2 0.3 0.3 0.4 0.2 0.2 0.4 0.4 0.7 0.5q0.2 0 0.5 0 0.1 0 0.4 0c0.5-0.1 1-0.6 1.2-1q0-0.2 0.1-0.5c0-0.5-0.2-1-0.5-1.4l-0.1-0.2q-0.3-0.7-0.7-1.4c-0.3-0.6-0.7-1.2-1.1-1.8l-0.1-0.2-0.1-0.2-0.2-0.3-0.2-0.3q-0.4-0.7-0.8-1.5-0.2-0.3-0.3-0.5-0.2-0.4-0.5-0.9c-0.4-0.8-1-1.5-1.5-2.2l-0.4-0.6q-0.6-1-1.1-2.2-0.1-0.2-0.2-0.5l-0.1-0.2q0.2 0.1 0.4 0.2c0.8 0.4 1.5 1 2.3 1.7l0.3 0.3 0.4 0.3 0.3 0.2 0.3 0.3c0.5 0.4 0.9 0.8 1.2 1.1q0.4 0.5 0.7 1c0.6 0.8 1 1.5 1.5 2.1l0.3 0.4q0.5 0.6 1 1.3c0.7 1.1 1.3 2.3 1.9 3.5l0.4 0.9q0.5 0.9 0.9 1.9l0.2 0.3c0.2 0.5 0.6 1.3 0.9 2.1 0.2 0.9 0.5 1.9 0.7 2.8v0.1c0.2 0.8 0.4 1.8 0.6 2.7l0.1 0.6q0.2 1.2 0.4 2.4c0.1 0.8 0.2 1.6 0.3 2.5v0.1q0.1 1.2 0.1 2.3v0.6q0.1 1 0 1.9c0 1.4-0.2 2.8-0.5 4.6-0.1 0.8-0.4 1.9-0.7 3-0.2 0.9-0.5 1.8-0.8 2.6v0.1l-0.1 0.1-0.1 0.3c-0.3 1-0.7 2-1.2 3.1l-0.2 0.4q-0.5 1.2-1 2.3c-0.7 1.3-1.5 2.5-2.2 3.5-0.8 1.2-1.6 2.2-2.3 3.1q-0.6 0.6-1.2 1.2-0.4 0.3-0.8 0.6-0.3 0.2-0.6 0.5-0.4 0.3-0.8 0.7l-0.5 0.5q-0.7 0.6-1.3 1-0.7 0.4-1.3 0.8-0.5 0.3-1 0.6l-0.2 0.1q-0.5 0.4-1.1 0.7c-0.4 0.2-0.8 0.4-1.3 0.6l-0.5 0.2q-0.8 0.4-1.7 0.8l-0.6 0.2-0.1 0.1q-0.7 0.3-1.3 0.6-0.5 0.2-1 0.3-0.6 0.3-1.2 0.5-0.5 0.2-1 0.4-0.5 0.2-1.1 0.4-2.1 0.9-4.2 1.7-1.1 0.5-2.3 1zm-78.5-60.2l0.1-0.1-0.3 0.2c-0.4 0.3-0.9 0.6-1.4 1q-0.7 0.5-1.3 1.1c-0.6 0.5-1 0.8-1.4 1.2l-0.4 0.2-0.1 0.1-0.1 0.1q-0.4 0.2-0.7 0.5c-1 0.7-2 1.6-2.9 2.4l-0.2 0.3-0.2 0.1c-0.1 0.1-0.3 0.3-0.5 0.5-0.2 0.2-0.4 0.3-0.5 0.6q-0.3 0.4-0.3 0.8c-0.1 0.5 0.1 0.8 0.3 1.1 0.3 0.3 0.7 0.5 1.2 0.5q0.2 0 0.3 0c0.3-0.1 0.6-0.3 0.9-0.4 0.6-0.4 1.3-0.8 2-1.2q0.6-0.3 1.1-0.6 0.6-0.3 1.1-0.6 0.5-0.2 0.9-0.4 0.6-0.3 1.1-0.7h0.1q0.4-0.2 0.7-0.4 1-0.6 2-1.1c0.3-0.1 0.6-0.3 0.9-0.4h0.1q0.6-0.3 1.2-0.6 0.4-0.2 0.9-0.5c0.9-0.5 1.8-1 2.7-1.3 1.6-0.6 3-1 4.4-1.1q0.1 0 0.2 0 0.5 0 0.9 0 0.3 0.1 0.6 0.2 0 0 0.1 0.1 0.1 0.3 0.2 0.6 0 0.3-0.1 0.6-0.1 0.3-0.2 0.5-0.2 0.4-0.4 0.7c-0.5 0.5-1.2 1-1.8 1.4v0.1h-0.1q-0.3 0.2-0.5 0.4l-0.3 0.2-0.5 0.4q-0.2 0.1-0.4 0.3h-0.1q-0.3 0.3-0.6 0.5c-0.8 0.5-1.6 0.9-2.4 1.3l-0.2 0.1-0.5 0.3-0.5 0.3h-0.2v0.1q-0.5 0.2-1 0.5c-0.5 0.3-1 0.6-1.4 0.9-1.1 0.7-2.2 1.4-3.1 1.9-1.1 0.7-2.1 1.4-3 2l-0.2 0.1c-0.5 0.3-1 0.7-1.4 1l-0.2 0.1q-0.2 0.2-0.4 0.4c-0.2 0.2-0.5 0.5-0.6 0.8q-0.2 0.9 0.3 1.6c0.3 0.3 0.8 0.5 1.2 0.5q0.4 0 0.7-0.2 0.1-0.1 0.2-0.2 0.5-0.3 1-0.6l0.4-0.2 0.3-0.2c0.7-0.4 1.5-0.8 2.2-1.2q0.4-0.1 0.9-0.3 1.1-0.4 2.1-0.9c0.9-0.5 1.9-0.9 2.9-1.3 1-0.4 2.1-0.6 3.5-0.9q1.4-0.4 3.2-0.5 0.3 0 0.6 0c0.3 0 0.5 0 0.8 0.1q0 0 0 0.1v0.1q-0.1 0.1-0.1 0.3-0.2 0.4-0.5 0.7-0.7 0.7-1.7 1.4-0.9 0.6-1.8 1.2l-0.4 0.3q-0.8 0.5-1.6 1.1-0.4 0.3-0.8 0.6c-0.5 0.3-0.9 0.5-1.3 0.7q-0.2 0.1-0.4 0.2h-0.1l-0.2 0.1-0.1 0.1q-0.4 0.1-0.7 0.3-0.6 0.3-1.2 0.6l-0.1 0.1c-0.6 0.3-1.2 0.6-1.8 0.8q-0.5 0.3-1 0.4l-0.2 0.1c-0.5 0.2-1.2 0.4-1.7 0.7q-1.1 0.6-2.3 1.4l-0.2 0.1c-0.1 0.1-0.3 0.2-0.4 0.4-0.2 0.1-0.7 0.7-0.6 1.2q-0.1 0.5 0.1 0.9 0.2 0.4 0.6 0.7h0.2c0.2 0.2 0.4 0.2 0.7 0.3 0.1 0 0.4-0.1 0.5-0.1 0.2 0 0.4-0.1 0.7-0.2q0.1-0.1 0.3-0.2 0.2-0.1 0.3-0.1c0.6-0.3 1.2-0.5 2-0.8h0.1c0.5-0.2 1.1-0.4 1.6-0.6l0.3-0.2h0.2q0.4-0.2 0.8-0.3c1-0.4 2.1-0.6 3.5-0.9h0.4q1.4-0.3 2.8-0.5c0.4 0 0.9 0 1.4 0q1 0 1.7 0.1 0.3 0.1 0.6 0.2l0.1 0.1q0 0.2 0 0.3 0 0.2 0 0.4-0.1 0.3-0.2 0.5-0.2 0.4-0.4 0.7c-0.4 0.3-0.8 0.7-1.3 1.1-1.4 0.8-2.7 1.6-4.1 2.3-0.7 0.4-1.4 0.7-2 1l-0.2 0.1q-0.4 0.2-0.9 0.4-0.7 0.3-1.4 0.6-1 0.5-2.1 1l-0.3 0.2c-0.7 0.3-1.3 0.5-1.8 0.8l-0.1 0.1c-0.6 0.3-1.4 0.7-2.1 1.2-0.5 0.3-1 0.7-1.4 1l-0.6 0.4c-0.8 0.5-1.7 1-2.4 1.4l-0.5 0.3q-1.6 0.9-3 2.1c-0.9 0.7-1.8 1.4-2.7 2.1l-0.7 0.5c-0.6 0.4-1.4 1-2.2 1.6q-0.5 0.5-1.1 1l-0.2 0.1-0.1 0.2q-0.4 0.3-0.9 0.7-0.8 0.6-1.6 1.2v0.1h-0.1l-0.5 0.4c-1.6 1.3-3.2 2.6-4.5 3.7q-1.1 0.9-2.2 1.9-0.9 0.8-2 1.9-1.1 1.1-2.2 2.2-0.8 0.9-1.8 1.8h-0.1l-0.1 0.1-0.1 0.1c-0.8 0.7-1.5 1.5-2.2 2.3l-0.1 0.1h-0.1c-0.6 0.7-1.3 1.4-2 2-0.6 0.6-1.2 1.1-1.8 1.6l-0.6 0.5c-0.6 0.6-1.3 1.2-1.8 1.7l-0.1 0.1v0.1l-0.3 0.2c-0.6 0.6-1.2 1.1-1.8 1.7l-0.4 0.4q-0.5 0.4-1.1 0.9-0.6 0.5-1.1 0.9c-0.8 0.7-1.5 1.5-2.1 2.1l-0.1 0.1c-0.7 0.7-1.4 1.4-2.1 2.1l-0.6 0.5c-0.6 0.5-1.2 1-1.8 1.6q-0.4 0.4-0.8 0.9c-0.5 0.4-0.9 0.9-1.4 1.3q-1.1 1-2.4 2.1l-0.3 0.2c-0.6 0.5-1.4 1.2-2.1 1.9q-0.3 0.3-0.6 0.6c-0.5 0.5-1 1-1.6 1.5l-0.1 0.1q-0.6 0.4-1.1 0.9-0.4 0.3-0.8 0.5l-0.1 0.1q-0.1 0.2-0.3 0.3-0.7 0.5-1.4 1.1-0.3 0.2-0.6 0.5l-0.1 0.1q-0.1 0.1-0.3 0.3-0.7 0.6-1.4 1.1-0.5 0.4-0.9 0.7l-0.1 0.1h-0.1l-0.1 0.1q-0.9 0.6-1.9 1.2l-0.1 0.1-0.7 0.4-1 0.6q-0.8 0.5-1.7 1c-2 1.3-3.8 2.3-5.4 3.1q-1 0.4-2.1 0.9h-0.1l-0.6 0.3q-0.8 0.4-1.6 0.7-0.7 0.3-1.4 0.7c-1.7 0.7-3.4 1.3-5.4 2.1-1.5 0.5-3.1 0.9-5.2 1.5q-1 0.3-2 0.5l-0.6 0.2c-1.1 0.2-1.8 0.4-2.5 0.6l-0.5 0.1h-0.1q-1 0.3-2.1 0.5-1.1 0.3-2.3 0.5c-1.9 0.3-3.7 0.5-5.3 0.7h-0.4-0.2q-1.5 0.1-3 0.2-0.9 0-1.9 0-1.1 0-2.4 0c-2.7-0.1-5.4-0.4-8-0.9-1.4-0.3-2.6-0.6-3.8-0.9q-0.7-0.2-1.3-0.4l-0.4-0.2q-0.6-0.2-1.2-0.4-0.3 0-0.6-0.1c-1.2-0.4-2.4-0.9-3.5-1.4l-0.1-0.1c-1-0.4-2.1-0.9-3.3-1.5-1.2-0.6-2.4-1.3-3.3-1.9q-0.9-0.6-1.7-1.2c-0.5-0.3-0.9-0.6-1.3-1q-0.5-0.5-1-1h-0.1q-0.4-0.4-0.8-0.8c-0.5-0.5-1.1-1-1.6-1.4l-0.1-0.1-0.5-0.4c-0.6-0.5-1.1-1-1.6-1.5-0.4-0.5-0.8-1.1-1.2-1.6v-0.1l-0.3-0.3q-0.7-1-1.5-2-0.6-0.8-1.3-1.7c-0.7-1.1-1.4-2.2-1.9-3.2q-0.6-1.1-1.1-2.1v-0.1-0.1q-0.5-0.9-0.9-1.8-0.2-0.3-0.3-0.6l-0.2-0.2-0.1-0.3q-0.2-0.4-0.4-0.7-0.1-0.3-0.3-0.5v-0.1-0.1c-0.3-0.4-0.5-0.8-0.6-1.2-0.5-1.2-1-2.3-1.4-3.4q-0.3-0.8-0.5-1.6l-0.1-0.3-0.1-0.2c-0.3-0.9-0.5-1.6-0.8-2.3v-0.1-0.1q-0.6-1.7-1.3-3.3l-0.1-0.3q-0.5-1.3-1-2.7l-0.1-0.3c-0.3-0.9-0.7-2-0.9-3-0.4-1.4-0.7-2.8-1-4.1l-0.1-0.4q-0.1-0.6-0.3-1.2c-0.3-1.7-0.8-3.6-1.4-5.7-0.5-1.8-1-3.8-1.4-5.9-0.4-1.9-0.7-3.9-1-5.8q-0.2-1.3-0.4-2.5v-0.1-0.2q-0.2-1.6-0.4-3.1-0.1-0.7-0.3-1.4-0.1-0.6-0.2-1.3-0.2-1.5-0.5-2.9c-0.3-1.6-0.6-3.2-0.9-5.5h0.1 0.2 0.1 0.3 0.5q1.4 0 2.8 0c2.3-0.1 4.6-0.4 6.7-0.7q0.7-0.1 1.5-0.2 0.6-0.1 1.2-0.2c1.4-0.1 2.5-0.3 3.7-0.4q1 0 2.1-0.1 0.9 0 1.9-0.1c1.4-0.1 2.6-0.2 3.7-0.2 0.6-0.1 1.2-0.1 1.9-0.2q0.6-0.1 1.1-0.2 0 0.8 0.1 1.5c0.1 2.4 0.3 4.9 0.5 7.4l-0.1-0.4q0.1 1.4 0.2 2.8 0.1 1.1 0.2 2.3 0.1 1.4 0.1 2.8l0.1 0.4c0 1.3 0.1 2.7 0.2 4.1v0.4l0.1 0.4c0.1 1.5 0.2 2.8 0.3 4.1 0.2 1.2 0.4 2.4 0.7 3.8 0.1 0.6 0.2 1.3 0.4 2.2q0.3 0.8 0.5 1.7l0.1 0.3c0.4 1.5 0.8 2.9 1.2 4.1l0.1 0.2c0.2 0.8 0.5 1.6 0.7 2.4 0.4 1.2 0.7 2.1 1.1 3.1 0.7 1.9 1.9 3.7 2.9 5.1q0.5 0.7 1.1 1.5l0.2 0.2q0.2 0.3 0.4 0.5c0.6 0.9 1.2 1.6 1.7 2.1q1.3 1.2 2.6 2.3c0.9 0.7 1.7 1.3 2.5 1.8q1.1 0.8 2.5 1.5c1 0.5 1.9 0.9 2.8 1.2q1.6 0.7 2.9 1 1.1 0.4 2.2 0.7l0.8 0.2c0.9 0.2 2 0.5 3.1 0.6q1.7 0.3 3.2 0.3 0.6 0.1 1.2 0.1 0.9 0 1.7-0.1 1.9 0 3.4-0.2c0.9-0.1 1.8-0.3 2.6-0.4l0.5-0.1q0.8-0.1 1.5-0.3l0.4-0.1q0.5 0 1-0.2c0.8-0.2 1.6-0.5 2.3-0.7l0.4-0.2q1.6-0.5 3.1-1.2c0.9-0.4 1.8-0.9 2.6-1.3 0.7-0.5 1.6-1 2.6-1.5l0.4-0.2c0.7-0.3 1.5-0.8 2.2-1.2q1.3-0.9 2.7-1.9 0.6-0.4 1.3-0.8 0.8-0.5 1.5-1 0.9-0.6 1.7-1.2 0.7-0.5 1.3-0.9l1.1-0.8 0.6-0.4h0.1c0.4-0.3 1.1-0.7 1.6-1.1q1.1-0.8 2.1-1.7h0.1q0.8-0.7 1.7-1.4c0.9-0.6 2-1.5 3-2.4q0.4-0.4 0.8-0.7l0.2-0.2c0.4-0.4 0.8-0.8 1.3-1.2q0.4-0.3 0.9-0.7l0.1-0.1 0.2-0.1q0.6-0.5 1.2-1 1.2-1 2.3-2.1 0.4-0.4 0.8-0.8l0.1-0.1q0.6-0.7 1.2-1.2 0.5-0.4 0.9-0.8l0.3-0.2 0.1-0.2q0.5-0.4 0.9-0.8c0.9-0.7 1.7-1.6 2.3-2.2q1.2-1.2 2.3-2.2 0.3-0.3 0.6-0.6l0.1-0.1 0.2-0.2 0.2-0.2 0.2-0.1q0.4-0.4 0.8-0.7 1-1 2.2-2.3 1.1-1.1 2.3-2.2 0.6-0.7 1.3-1.3 0.5-0.4 1-0.9l0.1-0.1 0.1-0.1q1-0.9 1.9-1.8c0.4-0.5 0.9-0.9 1.3-1.3l0.2-0.1 0.7-0.7c0.6-0.6 1.3-1.2 2.2-2q0.7-0.6 1.3-1.2 0.4-0.4 0.9-0.8l0.5-0.5q0.9-0.8 1.7-1.5 0.7-0.6 1.5-1.2l0.1-0.1 0.7-0.5q0.6-0.6 1.2-1.1l0.1-0.1 0.1-0.1 0.2-0.2q0.3-0.2 0.5-0.4c1.2-1.1 2.5-2.1 3.6-3l0.8-0.6c0.6-0.5 1.1-1 1.8-1.6l0.3-0.2c0.6-0.6 1.4-1.2 2.3-1.9q0.4-0.4 0.8-0.7l0.2-0.2 0.2-0.2q0.5-0.3 1-0.7 0.5-0.4 1-0.9l0.1-0.1q0.5-0.4 0.9-0.8 2.2-1.8 4.4-3.6 0.7-0.5 1.4-1.1 0.4-0.4 0.8-0.7c1-0.8 1.7-1.4 2.5-1.9 0.6-0.5 1.3-1 2.2-1.7l0.3-0.3 0.3-0.2c0.4-0.4 0.9-0.8 1.5-1.2 0.4-0.3 0.8-0.5 1.4-0.8l0.1-0.1q0.7-0.4 1.4-0.9 1-0.6 1.8-1.2l0.4-0.3 0.1-0.1q0.3-0.3 0.7-0.5 0.6-0.4 1.2-0.8 0.7-0.3 1.3-0.6h0.2q0.3-0.2 0.6-0.3l0.3-0.2c0.6-0.3 1.2-0.5 1.7-0.7q0.4-0.1 0.8-0.2h0.1q0.1 0 0.3 0v0.1h0.1q0.1 0.2 0.1 0.3 0 0.2 0 0.4-0.1 0.2-0.2 0.4-0.2 0.3-0.4 0.6-0.5 0.6-1.1 1.1l-0.4 0.5q-0.9 0.9-1.7 1.5-0.7 0.4-1.4 0.8l-0.1 0.1c-0.5 0.3-1.1 0.7-1.7 1.1zm-5.9 49.2q-0.4-0.3-0.8-0.7l-0.1-0.1q-0.3-0.2-0.6-0.4v-0.1-0.3l0.1-0.3v-0.3q0-0.5 0-1.1 0-0.4 0.1-0.8v-0.4c0-1.2 0.1-2.4 0-3.6q0.6-0.4 1.1-0.7l0.3-0.2q0 0.4 0 0.8v0.5q0 0.9 0 1.7v0.1q0 1 0 2.1v0.4q-0.1 0.8-0.1 1.6 0 0.5 0 1v0.2q0 0.3 0 0.6zm-41 35.1q0-0.5 0-1v-0.5-0.1-0.1-0.2q0-0.7 0-1.4c0-0.7-0.1-1.3-0.1-2.1q-0.1-0.5-0.1-1.1v-0.2q0-0.3 0-0.6 0-0.3 0-0.5c0.5-0.6 1.3-1.3 2-2 0.8-0.7 1.6-1.3 2.4-2q0.9-0.9 1.8-1.8 1.3-1.2 2.6-2.3c0.7-0.7 1.6-1.4 2.4-2.2q0.7-0.7 1.4-1.5l0.2-0.1 0.2-0.2 0.3-0.4q0.9-1 2.1-2.1c0.9-0.7 1.6-1.5 2.3-2.1q0.9-1 1.9-2l0.1-0.1c0.6-0.7 1.3-1.3 2-1.9q2.2-1.9 4.3-3.7c0.7-0.6 1.5-1.2 2.1-1.7h0.1l0.1-0.1c0.8-0.6 1.5-1.2 2.3-1.8l0.3-0.3 0.3-0.3 0.2-0.2c0.5-0.4 0.9-0.8 1.5-1.2q0.9-0.7 1.9-1.4l0.4-0.4c0.8-0.5 1.6-1.2 2.3-1.8h0.1q-0.1 1.4-0.2 2.8v0.2 0.1q-0.1 0.9-0.2 1.8 0 0.1-0.1 0.2-0.2 0.2-0.4 0.4c-0.2 0.3-0.5 0.5-0.8 0.7q-0.2 0.2-0.4 0.3c-0.4 0.3-0.7 0.5-0.9 0.8l-0.5 0.3c-2.6 2.3-4.6 4.2-6.4 5.9q-0.4 0.4-0.8 0.8l-0.3 0.3q-0.3 0.3-0.6 0.5l-0.4 0.5-0.2 0.1-0.2 0.3q-0.4 0.4-0.8 0.8-1.4 1.4-2.7 2.8l-0.6 0.5c-0.9 1-2 2.1-3.1 3.2q-0.8 0.7-1.6 1.5-0.7 0.6-1.4 1.4v0.1l-0.2 0.2q-0.8 0.9-1.7 1.8c-0.5 0.5-1.1 1-1.6 1.4q-0.9 0.8-1.6 1.5c-0.6 0.6-1.1 1.1-1.6 1.7q-0.7 0.9-1.7 1.7-0.3 0.3-0.6 0.7l-0.3 0.2-0.1 0.1q-0.5 0.5-1 0.9-1.2 1-2.1 2.2l-0.4 0.5q-0.5 0.7-1.1 1.4-0.4 0.4-0.8 0.8zm100.1 52.7h-0.1q-0.4 0-0.9-0.1-1.1 0-2.1-0.1-1.7 0-3.4 0h-0.3-1.2q-0.8 0-1.6-0.1h-0.3c-0.7 0-1.4 0-2.2 0h-0.5-0.1q-0.9 0-1.7 0l-0.5 0.1q-1.2 0-2.4 0-1.2 0-2.5 0h-0.1q-1-0.1-2-0.1-0.5 0-1 0c-0.8 0-1.5 0.1-2.4 0.2h-0.5q-1.2 0.1-2.6 0.1-1.1 0-2.2-0.1h-0.4q-0.7-0.1-1.4-0.1-0.5 0-1 0c-1 0-2.1 0.1-3.2 0.1h-0.1c-1 0.1-2.1 0.1-3.5 0.1h-0.6q-0.5 0-1 0h-0.6-0.5q-0.8 0-1.7 0.1l0.1-0.1h-0.2-0.1q-1.2 0-2.3 0-0.9-0.1-1.7-0.1h-0.4l-0.4-0.1c-1.6 0-3.1-0.1-4.7-0.1h-0.6c-0.8 0-2 0-3.2-0.1h-0.7q-1.4-0.2-2.8-0.2-0.5 0-1.1 0-0.8 0-1.7 0h-1q-1 0-2.1 0h-0.4-0.5q-0.5 0-1.1 0h-0.1q-0.4-0.1-0.9-0.1-1.5-0.1-2.8-0.1-0.6 0-1.2 0.1h-0.2q-0.4 0-0.8 0-1 0-2 0c-0.7 0-1.4 0-1.9-0.1l-0.2 0.1c0.5-0.8 1.1-1.6 1.7-2.3l0.1-0.1 0.3-0.4q0.4-0.6 0.8-1.1l0.1-0.2 0.4-0.4 0.6-0.8q0.4-0.5 0.8-1.1 0.6-0.9 1.2-1.8 0.6-1 1.3-1.9 0.9-1.2 1.6-2l0.2-0.2q0.6-0.8 1.2-1.6 0.7-0.9 1.3-1.8 0.2-0.3 0.4-0.7l0.1-0.1v-0.1q0.4-0.6 0.8-1.2c0.8-1.2 1.7-2.4 2.8-3.8l0.3-0.4c0.8-1 1.7-2.2 2.5-3.4q0.2-0.3 0.4-0.7l0.1-0.1q0.4-0.6 0.8-1.2 0.6-0.8 1.3-1.6 0.5-0.6 0.9-1.1c0.7-0.7 1.3-1.4 1.8-2.1q0.5-0.7 0.9-1.4l0.1-0.1 0.2-0.3 0.1-0.1 0.1-0.1c0.9-1.5 2-2.8 2.8-3.8 1.1-1.3 2-2.4 2.8-3.5l0.7-1c0.7-0.9 1.4-2 2.1-2.9l0.2-0.2 0.2-0.2 0.6-0.7c0.8-0.9 1.8-1.9 2.6-3.1q0.3-0.4 0.6-0.9 0.3-0.5 0.6-1c0.4-0.6 0.9-1.2 1.3-1.7 1.2-1.3 2.6-2.6 3.9-3.7q0.5-0.5 1-1c0.9-0.8 1.8-1.5 2.7-2.2 0.7-0.5 1.4-1 2.4-1.7 0.5-0.3 1.1-0.7 1.7-0.9q0.5-0.2 0.9-0.2 0.1 0 0.3 0 0.7 0 1.7 0.1 0.6 0.1 1.1 0.4c1.2 0.6 2.3 1.3 3.4 2.2 0.8 0.7 1.4 1.5 1.9 2.2q0.3 0.3 0.5 0.7c1 1.1 1.6 2 2.2 2.9 0.7 1 1.2 2 1.6 2.8 0.4 0.9 0.8 1.8 1.2 2.7v0.1l0.1 0.2v0.1q0.4 1 0.9 2v0.1c0.5 1.2 1.1 2.7 1.7 4.1 0.5 1.6 0.9 3.2 1.2 4.5l0.1 0.1v0.3q0.2 0.5 0.3 1.1c0.7 2.3 1.4 4.4 2.1 6.4 0.5 1.5 1.1 3 1.8 4.8 0.4 1.4 0.8 2.8 1.1 4.1q0.1 0.6 0.2 1.1c0.4 1.3 0.8 2.8 1.2 4.5 0.5 1.6 0.9 3.1 1.2 4.5l0.2 1c0.3 1.2 0.7 2.5 0.9 3.8 0.3 1.7 0.5 3.2 0.6 4.5q0 0.4 0 1c-0.1 0.3-0.1 0.6-0.2 1zm33.8-15.8h0.1q0.1 0.5 0.2 1l0.1 1.2q0.1 1.4 0.2 2.7 0.1 0.6 0.2 1.2v0.2 0.3q0.1 0.7 0.2 1.4 0.1 1.1 0.2 2.2v0.8q0.1 0.9 0.2 1.8v0.6q0.1 0.6 0.1 1.1v0.2 0.1 0.1q0.1 0.5 0.1 0.9c0.1 0.4 0.1 0.8 0.3 1.1 0.1 0.3 0.4 0.6 0.7 0.7l-0.3-0.1h-0.4c-1.2 0-2.4-0.1-3.5-0.2q-0.7-0.1-1.3-0.2h-0.1q-0.9-0.1-1.8-0.2c-1.1-0.1-2.2-0.2-3.5-0.2h-1.1q-1.2 0-2.5-0.1-0.8 0-1.6-0.1h-0.1q-0.8-0.1-1.6-0.2c-1.5-0.1-2.9-0.1-4.1-0.1h-1.3-1-0.5c-0.7 0-1.5-0.1-2.4-0.1l-0.3-0.1h-0.2q-1-0.1-2.1-0.1c-0.7-0.1-1.5-0.1-2.5-0.1q-0.5 0-1 0.1v-0.2c0.1-0.4 0.2-0.8 0.2-1.2 0-0.5 0-1 0-1.6-0.1-0.8-0.2-1.6-0.3-2.6v-0.1c-0.2-1-0.3-1.8-0.4-2.7-0.2-0.8-0.4-1.5-0.6-2.5q-0.1-0.4-0.2-0.8v-0.2l-0.1-0.5c-0.2-0.7-0.4-1.5-0.6-2.3h0.1 0.1c0.6-0.1 1.2-0.1 1.6-0.1h0.4 0.6q0.6 0.1 1.3 0.1h0.2q0.3 0 0.7 0c0.6 0 1.1 0 1.5-0.1q0.6-0.1 1.2-0.1l0.6-0.1q0.9-0.1 1.8-0.2c1.2-0.1 2.4-0.1 3.5-0.1h0.1 0.3c1.3 0 2.6-0.1 4.2-0.2 1.1-0.1 2.4-0.1 3.7-0.1h0.3 0.3q0.7 0 1.4 0h0.1c0.6 0 1.2 0 1.9-0.1h0.3l0.4-0.1h0.3q1.2-0.1 2.4-0.1 0.8 0 1.6 0 0.8 0 1.6 0zm119.1 84.5l-0.1-0.1q-0.4-0.1-0.7-0.2l-0.2-0.1-0.2-0.1q-0.3-0.1-0.6-0.1 0.2-0.3 0.3-0.6l0.3-0.6 0.1-0.1q0.1-0.2 0.2-0.4 0.6-0.9 1.2-1.9c0.2-0.5 0.5-1 0.7-1.6q0.6-1.6 1.3-3l0.3-0.7 0.1-0.3c0.4-0.9 0.8-1.7 1-2.4 0.3-0.7 0.5-1.3 0.7-1.8q0.1-0.5 0.2-1l0.1-0.4 0.1-0.2 0.1-0.2q0.4-1.6 1.1-3.2l0.1-0.3v-0.1c0.3-0.8 0.7-1.8 1-2.8 0.2-0.8 0.4-1.4 0.5-2q0.1-0.9 0.3-1.7c0.2-1 0.4-2.2 0.7-3.4l0.2-0.8v-0.1c0.3-0.8 0.5-1.8 0.7-2.7 0.3-1.3 0.6-2.7 0.8-4q0.1-0.8 0.2-1.5l0.1-0.6q0.2-0.9 0.4-1.8c0.2-1.4 0.4-2.6 0.5-3.9v-0.7c0.1-1.1 0.2-2.2 0.3-3.3 0.2-1.3 0.3-2.7 0.5-3.9 0.1-0.8 0.2-1.4 0.3-2 0-0.7 0-1.4 0-2.1v-0.1c0-0.4 0-0.9 0-1.3v-0.1q-0.1-0.3-0.1-0.5c0-0.8-0.1-1.4-0.1-2q-0.1-0.6-0.2-1.2 0-0.4-0.1-0.8-0.1-0.8-0.2-1.2 0 0 0.1 0 0.6 0.3 1.1 0.7 0.3 0.3 0.6 0.7c0.4 0.6 0.7 1.2 1 2.1 0.5 1.3 0.9 2.5 1 3.8 0.1 1.2 0 2.3-0.1 3.3v0.2 0.1c-0.1 1.2-0.2 2.2-0.3 3.2l-0.1 0.8v0.1c-0.1 0.9-0.2 1.9-0.3 2.8l-0.1 0.4q-0.2 1.3-0.5 2.7c-0.3 1.4-0.6 2.6-0.8 3.7q-0.1 0.4-0.3 0.9v0.3c-0.3 0.9-0.5 1.6-0.6 2.3-0.3 1.2-0.5 2.4-0.8 3.6l-0.3 0.9q-0.3 1.3-0.7 2.6c-0.5 2.1-1.4 4.2-2.1 6.1q-0.4 1-0.8 2l-0.4 1.3-0.2 0.5q-0.5 1.1-0.9 2.2-0.2 0.7-0.5 1.4v0.3q-0.3 1-0.7 2l-0.2 0.4c-0.3 1-0.8 2-1.2 3.1q-0.3 0.7-0.6 1.3l-0.1 0.1v0.1l-0.1 0.2c-0.3 0.7-0.6 1.3-0.9 2-0.7 1.5-1.1 2.7-1.5 3.9l-0.2 0.6q-0.2 0.6-0.4 1.2zm-27.1-9q-0.5-0.1-1-0.3c-1.9-0.5-3.5-0.9-4.9-1.3-1.4-0.4-2.9-0.9-4.8-1.4q-0.6-0.2-1.2-0.4h-0.1l-0.2-0.1q-0.5-0.1-0.9-0.2-0.9-0.3-1.7-0.5l-0.7-0.2c-1.8-0.4-3.5-0.8-4.9-1.1-1.5-0.4-3.1-0.6-4.5-0.9l-0.7-0.2-0.9-0.2 0.1-0.3q0.2-0.5 0.3-0.9 0.3-0.9 0.5-1.9v0.2l0.3-0.9q0.4-1.4 0.8-2.9c0.2-0.8 0.3-1.7 0.5-2.4q0.1-0.6 0.2-1.3c0.1-0.6 0.3-1.2 0.4-1.9l0.2-0.5v-0.1l0.1-0.2q0.1-0.5 0.2-1c0.3-1.2 0.5-2.4 0.7-3.9 0.1-1.2 0.4-2.3 0.7-3.4l0.2-0.6v-0.1c0.3-1.2 0.7-2.5 1-3.8q0.2-1 0.3-2.2v-0.4l0.1-0.3q0-0.1 0-0.2v-0.1q0.1-0.6 0.2-1.1 0.2-0.5 0.4-1.1l0.1-0.1 0.1-0.5q0.1-0.1 0.1-0.2 0.6 0.1 1.3 0.3 1.1 0.3 2.4 0.8 0.6 0.2 1.1 0.5 0.7 0.3 1.4 0.5c1.8 0.7 3.8 1.2 5.3 1.6 1.1 0.3 2 0.6 3 0.9q1.5 0.5 3.1 1.1l1 0.4 0.1 0.1h0.1c1.6 0.6 3.2 1.3 4.8 1.9 0.6 0.2 1.2 0.4 2 0.6q0.4 0.1 0.9 0.2c-0.2 0.4-0.3 0.9-0.4 1.4q-0.2 0.7-0.3 1.4c-0.5 0.9-0.8 1.9-1 2.8l-0.2 0.5c-0.4 1.1-0.8 2.2-1.2 3.5-0.5 1.4-0.9 2.8-1.2 4.1q-0.1 0.5-0.1 1.1l-0.1 0.1v0.1 0.1l-0.1 0.5q-0.1 0.9-0.3 1.7-0.3 0.9-0.6 1.9v0.1c-0.4 1.3-0.8 2.8-1.1 4.2-0.2 0.9-0.3 1.8-0.3 2.8v0.1c-0.1 1.1-0.2 2.1-0.5 2.9q-0.1 0.4-0.1 0.7zm11.4 3.6q-0.8-0.3-1.6-0.6h-0.1-0.1q-0.9-0.3-1.7-0.6-1-0.3-2.1-0.6-1.2-0.4-2.4-0.8-0.3-0.1-0.5-0.1 0.1-0.5 0.2-0.9c0.2-0.8 0.3-1.4 0.3-2l0.1-0.3c0.2-1.4 0.4-2.8 0.8-4.5 0.2-0.6 0.5-1.5 0.8-2.4q0.5-1.3 0.9-2.7c0.3-1.1 0.6-2.3 0.9-3.5q0.3-1 0.5-2.1l0.2-0.5c0.1-0.6 0.4-1.5 0.6-2.3 0.1-0.8 0.3-1.7 0.4-2.8l0.1-0.6 0.1-0.4v-0.2q0-0.3 0.1-0.6 0.3-0.9 0.7-1.6c0.1-0.2 0.3-0.5 0.5-0.8q0.1-0.1 0.2-0.1 0.3-0.2 0.6-0.3c0.3-0.1 0.6-0.4 0.7-0.7l0.5 0.3q0.6 0.2 1.1 0.5 0.5 0.2 1 0.4 0.5 0.1 1 0.2c0.2 0.6 0.7 1.1 1.3 1.2q0.1 0.4 0.1 0.8 0.1 1.1 0.1 2.3 0 1.6-0.3 2.9-0.1 0.4-0.3 0.9c-0.1 0.7-0.3 1.5-0.5 2.2v0.5q-0.3 1.5-0.4 3v0.2c-0.1 0.5-0.1 1-0.2 1.5q-0.2 0.6-0.3 1.2l-0.1 0.1v0.1l-0.2 0.7c-0.2 0.6-0.4 1.4-0.6 2.2-0.2 0.8-0.4 1.8-0.5 2.9q-0.1 0.7-0.2 1.5-0.1 0.7-0.2 1.4-0.2 1.1-0.5 2.2-0.3 1.1-0.8 2.3l-0.1 0.2z"/><path class="a" d="m391.3 413.5q0.9 0.7 1.7 1.5c0.6 0.5 1.3 1 1.7 1.6 0.2 0.3 0.1 0.7-0.1 1q-0.2 0.2-0.5 0.2c-0.2 0-0.4-0.1-0.6-0.2-0.4-0.5-1-1-1.5-1.5q-0.9-0.7-1.8-1.5c-0.3-0.3-0.3-0.8 0-1.1q0.2-0.3 0.5-0.3 0.3 0 0.6 0.3z"/><path class="a" d="m388.5 417.7c0.4 0.4 0.9 0.8 1.4 1.2q0.2 0.1 0.4 0.2 0.3 0.2 0.6 0.4c0.3 0.2 0.5 0.5 0.4 0.8q-0.1 0.3-0.3 0.4c-0.2 0.1-0.4 0.2-0.6 0.1q-0.4-0.2-0.8-0.4-0.4-0.3-0.8-0.6c-0.4-0.3-0.8-0.7-1.3-1.1-0.3-0.3-0.3-0.7 0-1q0.2-0.2 0.5-0.2 0.3 0 0.5 0.2z"/><path class="a" d="m386.2 420.5q0.5 0.7 1 1.3 0.2 0.2 0.4 0.5 0.3 0.4 0.5 0.7c0.2 0.3 0.1 0.7-0.2 0.9q-0.2 0.1-0.5 0.1c-0.2-0.1-0.3-0.2-0.4-0.3q-0.5-0.6-0.9-1.2-0.5-0.7-1-1.3c-0.2-0.3-0.1-0.7 0.2-0.9q0.2-0.1 0.3-0.1c0.3 0 0.5 0.1 0.6 0.3z"/><path fill-rule="evenodd" class="b" d="m57.2 373.4q0.1 0.5 0.1 1 0 0.6 0 1.2 0 0.6 0 1.2 0 1.1 0.1 2.3c0.1 0.8 0.2 1.5 0.3 2.3q0.2 1.1 0.5 2.1 0.2 0.7 0.4 1.3 0.2 0.5 0.4 1.1 0.3 1.1 0.7 2.1 0.4 1.3 1 2.5 0-0.1-0.1-0.1c0.4 0.8 0.8 1.7 1.2 2.5q0.4 0.7 0.8 1.3 0.5 0.8 1 1.5 0.7 1.1 1.4 2.1 0.9 1.3 1.8 2.4 0.6 0.7 1.2 1.4 0.8 0.7 1.6 1.5 0.6 0.6 1.3 1.2 0.8 0.7 1.5 1.5 0.6 0.6 1.2 1.3 0.5 0.7 1.1 1.4 0.7 0.7 1.4 1.3 0.4 0.3 0.8 0.7 0.4 0.3 0.8 0.6 0.6 0.4 1.3 0.9 0.7 0.4 1.5 0.8 0.7 0.4 1.5 0.8 0.8 0.3 1.6 0.7 1.6 0.8 3.3 1.6 0.8 0.4 1.5 0.7 0.8 0.4 1.7 0.7 0.3 0.1 0.6 0.3 0.4 0.1 0.8 0.2 0.7 0.2 1.5 0.4 1.6 0.5 3.2 1 1.5 0.4 2.9 1 0.9 0.3 1.7 0.6 0.4 0.1 0.7 0.2 0.4 0.2 0.7 0.3 0.8 0.2 1.6 0.4 0.3 0.1 0.7 0.2 0.5 0.1 1 0.2 0.7 0.2 1.5 0.3 1 0.1 1.9 0.3 0.8 0.1 1.6 0.2 0.8 0.1 1.6 0.2 1.7 0.3 3.4 0.5c1.9 0.2 3.7 0.3 5.5 0.6q1.4 0.2 2.7 0.3 1.6 0.2 3.2 0.4 0 0-0.1 0 1 0.1 2 0.2 1.1 0.1 2.3 0.2c1.5 0.1 2.9 0.2 4.4 0.3q1.1 0.1 2.2 0.1 1.1 0 2.3 0 2.3 0.1 4.6 0.1 1.1 0 2.2 0 1.2 0 2.5-0.1 1.1 0 2.2 0 1.1 0 2.3 0 1.1 0 2.1 0.1 1.1 0 2.1 0 2.3-0.1 4.5-0.1 1.2 0 2.3 0 0.5-0.1 1-0.1 0.6 0 1.2-0.1 2.2-0.1 4.4-0.2c1.6-0.1 3.2-0.2 4.7-0.3q1.1-0.1 2.2-0.2 1.3-0.2 2.5-0.3 4.7-0.3 9.3-0.6 2.2-0.1 4.3-0.2 2.2-0.1 4.4-0.1c3.1-0.2 6.3-0.2 9.5-0.3q1.1 0 2.2-0.1 1.1-0.1 2.2-0.1 2.1-0.1 4.2-0.3 4.8-0.2 9.5-0.3c1.4-0.1 2.8-0.1 4.1 0q0.4 0 0.7 0 0.8 0 1.6 0 1.4 0 2.8 0c1.4 0 2.8 0.1 4.2 0.1q1 0 2 0 1.3 0 2.6 0 1.2 0 2.4 0 1.1-0.1 2.2-0.1 2.2-0.1 4.3-0.1 2.5-0.1 4.9-0.2 1.1 0 2.3 0 1.1-0.1 2.3-0.1 1 0 2.1 0.1 1.1 0 2.2 0.1 2.3 0.1 4.5 0.2 1.3 0 2.5 0 1.2 0.1 2.5 0.1 1 0.1 2 0.1 1.2 0.1 2.3 0.1 2.2 0 4.4 0 1.1 0 2.1 0 0.7 0 1.3 0 0.6 0 1.1 0 2.4 0.1 4.8 0.3 1 0.1 2 0.2 0.5 0.1 0.9 0.1 0.8 0.1 1.5 0.2c0.6 0.1 1.3 0.3 1.9 0.4q1.1 0.2 2.3 0.3 1 0.2 2 0.3 1.2 0.2 2.3 0.4 1 0.1 2 0.2 1 0.2 2 0.3 1.9 0.3 3.9 0.6 0.6 0.1 1.2 0.2 0.4 0 0.8 0.1 1 0.2 2 0.4 0.4 0.1 0.8 0.2 0.6 0.1 1.1 0.2 1 0.3 2 0.5 0.9 0.2 1.8 0.5 1 0.2 2 0.4 2.1 0.4 4.2 0.8c1.2 0.2 2.4 0.5 3.6 0.7 1.4 0.3 2.7 0.5 4.1 0.7 0.1 0 0.3 0.1 0.3 0.3q0.2 0.2 0.1 0.4 0 0.3-0.3 0.4-0.2 0.2-0.4 0.1-1.1-0.2-2.2-0.3-1.1-0.2-2.2-0.4-1-0.2-2-0.4-1.1-0.3-2.2-0.5c-1.3-0.2-2.7-0.5-4.1-0.8q-1.1-0.2-2.1-0.4-1.3-0.3-2.5-0.7-1.1-0.2-2.1-0.5c-0.8-0.1-1.5-0.3-2.2-0.4q-0.4-0.1-0.8-0.1-0.7-0.1-1.3-0.2-1-0.2-2-0.3-1-0.2-2-0.3-1.1-0.2-2.3-0.4-1-0.1-2.1-0.2-1.2-0.2-2.3-0.4-2.3-0.3-4.5-0.7-0.5-0.1-1.1-0.2-0.7-0.1-1.5-0.2-0.4 0-0.9-0.1-0.6-0.1-1.2-0.1-2.1-0.2-4.3-0.3-0.7 0-1.5-0.1-0.3 0-0.7 0-1.2 0-2.3 0-1.2 0-2.3 0-1.2 0-2.3 0-1.1 0-2.3 0-0.5 0-1-0.1-0.7 0-1.5 0-1.1-0.1-2.3-0.1-1.1-0.1-2.2-0.1-2.1 0-4.2-0.1-1.1-0.1-2.2-0.2-1.3 0-2.7 0-0.5 0-1 0-0.6 0-1.3 0-1.2 0-2.5 0-2 0-4.1 0.1-2.3 0.1-4.5 0.1c-3 0.1-6 0.2-9 0.2q-1.2 0-2.3 0-1.4-0.1-2.7-0.1-2.2-0.1-4.3-0.1-1 0-2 0-0.7 0-1.5 0-0.5 0-1 0-1.2 0-2.5 0.1-1.2 0-2.4 0-2.1 0.1-4.3 0.2-2.2 0.1-4.3 0.2-2.5 0.2-5 0.3-1.1 0-2.2 0-1.1 0.1-2.2 0.1-2.2 0-4.4 0.1-2.2 0.1-4.4 0.2-4.6 0.2-9.1 0.4-2.3 0.2-4.5 0.3-1.1 0.1-2.2 0.2-1.2 0.1-2.4 0.2-1.1 0.1-2.2 0.2-1.2 0.1-2.5 0.2-2.3 0.1-4.7 0.3-1.1 0-2.2 0.1-1.2 0-2.5 0.1-2.2 0-4.5 0-1.1 0-2.1 0-1.2 0-2.3 0-1.1 0-2.2 0-1.2 0-2.3 0-0.9 0-1.9 0-0.9 0.1-1.9 0.1-1.9 0-3.8 0-1.7 0-3.4-0.1-1.8 0-3.7-0.1-0.9 0-1.9-0.1-1.1-0.1-2.1-0.2l-1.9-0.1q-1-0.1-1.9-0.2c-2.5-0.2-4.9-0.6-7.3-0.9q-1.2-0.1-2.4-0.3-1.2-0.1-2.5-0.2-1.3-0.2-2.7-0.4-1.3-0.2-2.6-0.4-1.2-0.1-2.5-0.3-0.7-0.1-1.3-0.2-0.8-0.2-1.5-0.3c-0.8-0.2-1.6-0.4-2.4-0.7q-0.6-0.2-1.1-0.4-0.6-0.2-1.1-0.4-1-0.4-2.1-0.7-1-0.4-2-0.7c-1.4-0.4-2.8-0.8-4.1-1.2q-0.5-0.1-1-0.3-0.4-0.1-0.8-0.3-0.5-0.2-1-0.4-0.6-0.2-1.1-0.5-2-0.9-3.9-1.8-0.8-0.5-1.7-0.9-1-0.5-2-1-0.8-0.5-1.6-0.9-0.4-0.3-0.7-0.5-0.5-0.3-1-0.7c-1-0.8-2-1.7-2.9-2.7q-1.3-1.5-2.6-2.9-0.7-0.7-1.4-1.4-0.8-0.7-1.6-1.5-0.7-0.7-1.4-1.4-0.7-0.7-1.3-1.5c-0.8-1-1.5-2.1-2.3-3.2q-0.5-0.7-1-1.5-0.3-0.4-0.6-0.8-0.3-0.5-0.5-1.1-0.5-0.8-0.9-1.6-0.4-0.9-0.8-1.9c-0.5-1.2-1-2.5-1.4-3.7q-0.3-0.9-0.5-1.7c-0.2-0.7-0.4-1.3-0.6-2q-0.3-1.8-0.5-3.7-0.1-0.9-0.1-1.8c0-0.5 0-1.1 0-1.7q-0.1-0.8-0.1-1.7 0-0.3 0-0.7-0.1-0.3 0-0.7c0-0.2 0.3-0.4 0.5-0.4 0.2 0 0.5 0.2 0.4 0.5q0 0.4 0 0.8zm42.6 48.2q-0.1 0-0.1 0 0 0 0.1 0zm20.2 3.6h-0.1q0.1 0 0.1 0z"/><path fill-rule="evenodd" class="b" d="m64 367.9q-0.1-0.1-0.1-0.1-0.2 0-0.4 0.1-1 0.5-1.9 1 0-0.1 0.1-0.1-0.4 0.2-0.8 0.4 0.1-0.1 0.1-0.1-1.5 0.6-3 1.1-0.9 0.3-1.6 0.7c-0.5 0.2-0.9 0.6-1.4 0.9q-0.2 0.2-0.3 0.4 0 0.3 0.1 0.5c0.2 0.4 0.6 0.4 1 0.3q0.4-0.3 0.8-0.6 0.4-0.2 0.8-0.4 0.7-0.3 1.5-0.5 0.9-0.4 1.8-0.7c1.2-0.5 2.4-1.1 3.5-1.6 0.4-0.2 0.5-0.7 0.3-1q-0.2-0.3-0.5-0.3zm-2.5 1q0 0 0.1 0-0.1 0-0.1 0z"/><path fill-rule="evenodd" class="b" d="m107 389.6q-0.1 0-0.1 0c-0.3 0-0.5 0.1-0.6 0.4q0 0.2 0.1 0.4c0.1 0.2 0.2 0.2 0.3 0.3 0.3 0.1 0.5 0.1 0.7 0.1q0.3 0 0.5 0 0.4 0 0.8 0 0.9 0.1 1.7 0.1 1.1 0.2 2.2 0.3 1.1 0.1 2.2 0.1 1 0 1.9 0.1 1 0 2 0.1 0.9 0 1.8 0.1 1 0.1 2 0.2-0.1 0-0.1 0 0.9 0.1 1.9 0.2 0.9 0.1 1.8 0.2 1.8 0.2 3.6 0.3 1.2 0.2 2.3 0.4 0.9 0.1 1.9 0.3 1 0.1 2 0.2 0.4 0 0.9 0 0.5 0 0.9 0 1 0 2 0 0.9 0.1 1.9 0.1 0.9 0 1.8 0 2 0 3.9-0.2 1 0 1.9-0.1 1 0 1.9 0 1 0.1 2 0.1 1 0.1 2 0.2c0.2 0 0.3-0.2 0.3-0.3 0-0.2-0.1-0.3-0.3-0.3q-1.1-0.1-2.3-0.1-1-0.1-2.1-0.2-0.9 0-1.8 0-1 0-2 0.1-0.9 0-1.8 0-1 0.1-1.9 0-1 0-2.1 0-0.9-0.1-1.9-0.1-0.9 0-1.9 0-0.4-0.1-0.8-0.1-0.5 0-1 0-0.6-0.1-1.2-0.2-0.9-0.1-1.8-0.3-1-0.2-1.9-0.3-0.9-0.2-1.9-0.3-1-0.1-2-0.2 0 0 0.1 0-0.9-0.1-1.7-0.2 0.1 0.1 0.1 0.1-1.3-0.2-2.6-0.4-1.4-0.1-2.8-0.2-1.9-0.2-3.8-0.3-1.8 0-3.7-0.2 0 0 0 0-0.1 0-0.1 0 0 0 0.1 0-0.6-0.1-1.2-0.2-0.7 0-1.4-0.1-0.7-0.1-1.4-0.1-0.3 0-0.6 0-0.3 0-0.6 0 0 0-0.1 0zm3.3 1.3q0.1 0 0.1 0 0 0-0.1 0zm2-0.9q0 0 0 0z"/><path fill-rule="evenodd" class="b" d="m111.2 356.7q0 0.3 0.1 0.5 0.1 0.3 0.1 0.5c0 0.3 0 0.6 0 1q0 0.4 0 0.9 0 0.9 0 1.9 0.1 0.9 0.2 1.9 0 0.9 0.1 1.9 0 0.8 0 1.7c-0.1 1.2-0.4 2.4-0.5 3.7q-0.1 0.9-0.1 1.8 0 0.9 0 1.9-0.1 0.9-0.1 1.8 0 0.9 0 1.8c0 0.7 0 1.3-0.1 2q0 0.5-0.1 1-0.2 0.4-0.3 0.9 0 0.2-0.1 0.4 0 0.2 0 0.4-0.1 0.5-0.2 1c-0.1 0.3-0.3 0.6-0.4 0.9q-0.2 0.4-0.4 0.8-0.1 0.1-0.1 0.3 0 0-0.1 0.1 0 0.1-0.1 0.2v0.1q0.1-0.1 0.1-0.1-0.1 0-0.1 0.1c-0.2 0.5-0.4 1.1-0.7 1.6q-0.1 0.2-0.2 0.4-0.1 0.1-0.2 0.2-0.1 0.2-0.2 0.3-0.1 0.1-0.3 0.2c-0.1 0-0.2 0-0.3 0-0.2-0.1-0.3-0.3-0.4-0.4q-0.1-0.1-0.1-0.2-0.1-0.2-0.1-0.3-0.1-0.2-0.1-0.3-0.3-0.9-0.5-1.8-0.2-0.9-0.3-1.9-0.1-1-0.3-1.9-0.1-0.9-0.2-1.9-0.3-1.9-0.6-3.8-0.2-1-0.3-2-0.1-1-0.2-2c-0.4-2.5-0.9-5-1.4-7.5q-0.2-1.3-0.4-2.6 0-0.7-0.1-1.3-0.1-0.6-0.1-1.2-0.1-0.2-0.1-0.3l-0.1-0.1q-0.1-0.1-0.1-0.3 0-0.3 0.2-0.5 0.2-0.2 0.5-0.2c0.2 0 0.4 0.1 0.5 0.2q0.1 0.1 0.1 0.2 0.1 0.1 0.2 0.2 0 0.2 0.1 0.5 0 0.2 0 0.4 0 0.4 0 0.8 0 0.7 0 1.5 0.1 1.6 0.3 3.1 0.2 0.8 0.3 1.7 0.2 0.8 0.3 1.7 0 0 0 0 0.2 1.3 0.4 2.6 0-0.1 0-0.1 0.2 0.9 0.3 1.9 0.1 0.9 0.2 1.9 0.1 0.9 0.2 1.8 0.2 1 0.3 1.9 0.2 1.6 0.4 3.2 0.1 0.8 0.2 1.5 0.1 0.7 0.2 1.5 0-0.1 0-0.1c0.2 0.9 0.4 1.8 0.7 2.6q0-0.1 0-0.1 0 0.1 0.1 0.2 0.1-0.1 0.1-0.3 0.2-0.4 0.4-0.8 0.2-0.7 0.5-1.5c0.2-0.4 0.5-0.9 0.7-1.4q0-0.1 0.1-0.3 0-0.2 0.1-0.5 0-0.4 0.1-0.8 0.1-0.5 0.2-1 0.1-0.4 0.2-0.8 0.1-0.9 0.1-1.8 0-1 0-1.9 0.1-0.9 0.2-1.9 0-0.9 0-1.8 0.1-0.7 0.2-1.5 0-0.7 0.2-1.5 0.1-0.6 0.2-1.3 0.1-0.7 0.2-1.4 0 0 0 0 0 0 0-0.1 0.1-0.8 0-1.7 0-1 0-1.9-0.1-1-0.2-2.1 0-0.4 0-0.8 0-0.5 0.1-1 0-0.4 0-0.9 0-0.4 0-0.8c-0.2-0.6-0.4-1.1-0.5-1.7-0.1-0.2 0-0.4 0.2-0.4q0 0 0.1 0c0.1 0 0.3 0.1 0.3 0.2q0.2 0.5 0.4 1zm-4.7 28.1q0 0 0 0 0 0 0 0zm-2.2-16.2q0 0 0 0 0 0 0 0zm4.9 17.3q0 0 0 0 0 0 0 0zm0 0q0 0 0-0.1 0 0 0 0.1zm-7.2-26.4q0 0 0 0zm2.1 12.7q0 0 0 0.1 0-0.1 0-0.1zm3.2 15.1q0 0 0 0.1 0-0.1 0-0.1zm-0.3 0.7zm-2.7-19.4q0 0 0 0 0 0 0 0zm6.5-1.7q0 0 0 0 0 0 0 0z"/><path fill-rule="evenodd" class="b" d="m237.4 316.9q-0.1-0.1-0.3-0.1c-0.2 0-0.4 0.1-0.5 0.3-0.1 0.3 0 0.6 0.3 0.8q0.1 0.1 0.2 0.2 0.3 0.2 0.7 0.4h-0.1q0.1 0 0.1 0.1h0.1q-0.1 0-0.1 0 0.3 0.2 0.6 0.4 0.7 0.5 1.4 1.1 0.4 0.4 0.8 0.7 0.3 0.3 0.7 0.6 0.7 0.6 1.4 1.3 0.3 0.3 0.7 0.6 0.1 0.1 0.3 0.3 0.2 0.2 0.3 0.3 0.2 0.4 0.5 0.7c0.7 1.1 1.3 2.2 1.9 3.3q0.4 0.8 0.9 1.7 0.2 0.4 0.4 0.8 0.2 0.5 0.4 0.9 0 0 0 0 0.2 0.3 0.4 0.7 0.1 0.4 0.3 0.8 0.3 0.8 0.6 1.6 0.3 0.9 0.7 1.9 0.3 0.8 0.6 1.8 0.5 1.8 1.1 3.7 1.2 3.7 2.3 7.5 0.6 1.8 1.1 3.6 0.2 0.9 0.5 1.8 0.1 0.5 0.2 1 0.1 0.5 0.2 1.1 0.2 0.9 0.3 1.7 0.2 1 0.4 2.1 0.2 1 0.4 1.9 0.1 0.9 0.3 1.8 0 0 0 0 0 0.5 0.1 1 0.1 0.5 0.1 1 0.1 1 0.2 1.9 0.1 0.9 0.1 1.9 0 0.9 0 1.9-0.1 0.9-0.1 1.9-0.1 1-0.1 2c0 0.1 0.1 0.2 0.2 0.2 0.1 0 0.1-0.1 0.1-0.2q0-1 0.1-2.1 0-0.9 0.1-1.8 0-1 0-1.9 0-0.9-0.1-1.8-0.1-1-0.2-1.9 0-0.5-0.1-1.1-0.1-0.5-0.1-1-0.3-1.9-0.6-3.8-0.3-1.4-0.5-2.8-0.1-0.5-0.2-1-0.1-0.5-0.2-1.1-0.2-0.9-0.4-1.8-0.4-1.8-1-3.7-1-3.8-2.1-7.6-0.6-1.8-1.1-3.6-0.2-0.9-0.5-1.9-0.3-0.9-0.6-1.8c-0.4-1.2-0.8-2.5-1.3-3.7-0.5-1.2-1.1-2.3-1.7-3.4-0.6-1.2-1.2-2.3-1.8-3.4q-0.5-0.9-1.1-1.6c-0.4-0.5-0.9-0.9-1.4-1.4q-0.3-0.3-0.7-0.6-0.3-0.3-0.7-0.6-0.3-0.3-0.7-0.7-0.3-0.3-0.7-0.5-0.4-0.4-0.7-0.7-0.4-0.3-0.8-0.5-0.3-0.3-0.7-0.6c-0.3-0.2-0.6-0.4-0.9-0.6zm19.8 43.6zm-19.4-41.9v-0.1q0 0 0 0.1 0 0 0 0z"/><path fill-rule="evenodd" class="b" d="m204 312.2q-0.7 0.2-1.3 0.5-0.5 0.1-1.1 0.3-1.1 0.6-2.1 1.2-0.6 0.3-1.2 0.6-0.5 0.3-1.1 0.5c-0.7 0.4-1.5 0.7-2.2 1.1q-1.1 0.6-2.1 1.2-1.5 1-2.9 2-1.5 1-2.9 2.1-0.9 0.8-1.9 1.7-0.9 0.9-1.8 1.8-0.8 0.9-1.7 1.8-1 1-2 1.9-1.8 1.8-3.6 3.7-0.3 0.4-0.7 0.8-0.5 0.5-1 1c-0.5 0.6-1 1.3-1.5 2q-0.8 1-1.4 2c-0.5 0.7-1 1.4-1.5 2.2q-0.2 0.3-0.4 0.6-0.2 0.3-0.5 0.6-0.1 0.2-0.2 0.4-0.3 0.2-0.5 0.5-0.4 0.5-0.9 0.9-0.5 0.5-1 1-0.5 0.5-1 1-0.5 0.4-0.9 0.9-0.5 0.5-0.9 1-0.3 0.4-0.7 0.9-0.7 1.1-1.4 2.1-0.4 0.6-0.8 1.2-0.1 0.2-0.3 0.4-0.3 0.4-0.6 0.8c-0.5 0.6-1.1 1.3-1.6 1.9-0.6 0.6-1.2 1.2-1.8 1.8q-0.9 1-1.7 1.9-0.9 0.9-1.7 1.9-0.4 0.4-0.8 0.9-0.4 0.5-0.8 1-0.5 0.6-0.9 1.1-0.4 0.5-0.7 1-0.2 0.2-0.4 0.5-0.1 0.2-0.3 0.5-0.4 0.5-0.7 1.1-0.7 1.2-1.4 2.3-0.7 1.2-1.5 2.3c-0.4 0.7-1 1.4-1.5 2.1q-0.8 1.2-1.7 2.4-0.3 0.5-0.7 1-0.3 0.5-0.6 1.1-0.4 0.5-0.7 1.1-0.3 0.6-0.5 1.1c-0.8 1.6-1.7 3-2.7 4.4q-0.9 1.2-1.8 2.4-0.8 1-1.6 2.1-0.7 0.9-1.3 1.9-0.3 0.5-0.5 1.1c-0.1 0.2-0.2 0.4-0.3 0.6-0.1 0.2-0.3 0.4-0.5 0.5-0.2 0-0.5 0-0.7-0.1q-0.1-0.1-0.2-0.2-0.1-0.2-0.1-0.4 0.1-0.2 0.3-0.3 0.1-0.1 0.3-0.1 0-0.2 0.1-0.3 0 0 0 0.1 0.1-0.5 0.3-0.9 0.2-0.5 0.4-0.8 0.5-0.9 1-1.6c0.8-1.1 1.6-2.1 2.4-3.2 1-1.3 2-2.7 2.8-4.1q0.3-0.7 0.7-1.3 0.3-0.5 0.5-1.1 0.3-0.6 0.7-1.2 0.3-0.6 0.6-1.1 0.3-0.5 0.7-1 0.3-0.6 0.7-1.1 1-1.4 2-2.8 0.7-1 1.4-2 0.7-1.2 1.4-2.4 0.4-0.6 0.7-1.1 0.4-0.6 0.7-1.2 0.4-0.5 0.8-1 0.4-0.6 0.9-1.2 0.4-0.6 0.8-1.1 0.4-0.5 0.8-1c0.6-0.7 1.1-1.3 1.7-1.9q0.9-1 1.8-2 1-0.9 1.9-1.9 0.4-0.4 0.7-0.7 0.4-0.5 0.8-0.9 0.4-0.5 0.7-0.9 0.4-0.6 0.9-1.1 0.7-1.1 1.4-2.2 0.4-0.5 0.8-1.1c0.2-0.3 0.5-0.7 0.8-1.1q0.2-0.2 0.4-0.4 0.2-0.2 0.4-0.5 0.4-0.4 0.9-0.9 1-0.9 2-1.8 0.2-0.3 0.5-0.6 0.3-0.3 0.6-0.7 0.6-0.7 1.1-1.4 0.3-0.4 0.6-0.9 0.4-0.6 0.8-1.2 0.7-1.1 1.5-2.1 0.4-0.6 0.9-1.2 0.4-0.5 0.8-1.1 0.4-0.4 0.8-0.8 0.5-0.5 1-1 0.8-0.9 1.7-1.8 1-1 2-2 0.9-0.9 1.9-1.8 0.9-0.9 1.8-1.8 1-0.9 1.9-1.8 0.9-0.9 2-1.7c0.6-0.6 1.4-1.1 2.1-1.6q1.1-0.7 2.2-1.5 0.6-0.4 1.3-0.8 0.7-0.5 1.4-0.8 0.6-0.4 1.3-0.7 0.7-0.4 1.5-0.7 0 0 0.1 0v-0.1q0.9-0.4 1.8-0.8c0.6-0.3 1.2-0.7 1.8-1q0.4-0.2 0.9-0.4 0.5-0.3 1-0.5 1-0.3 2.1-0.7 0 0 0.1 0c0.1 0 0.3 0.1 0.3 0.3 0.1 0.2 0 0.4-0.2 0.4zm-73.2 79.6q0 0 0-0.1 0 0.1 0 0.1zm65.4-76.9q-0.1 0.1-0.1 0.1h0.1q0 0 0 0zm-46.3 49.4q-0.1 0.1-0.1 0.1 0 0 0.1-0.1z"/><path fill-rule="evenodd" class="b" d="m34.4 368.1q0.4 0.3 0.8 0.4c0.6 0.3 1.3 0.4 1.9 0.5q1 0.2 1.9 0.3 0.9 0.1 1.9 0.3 0.9 0.2 1.8 0.5c0.4 0.1 0.9 0.2 1.2 0.5 0.2 0.2 0.3 0.6 0.3 0.9q0 0.2 0 0.5 0 0.4 0 0.8-0.1 0.4-0.1 0.9c-0.1 1.2 0 2.4 0 3.7q0 0.9 0 1.8 0 1-0.1 1.9 0 1 0 1.9-0.1 0.9 0 1.9 0.1 1.9 0.2 3.7 0.1 1 0.2 1.9 0.1 1 0.2 1.9 0.2 1.3 0.4 2.7v-0.1q0.1 0.7 0.2 1.5 0-0.1 0-0.2 0.1 0.8 0.2 1.6 0.1 0.8 0.2 1.5 0.1 0.8 0.2 1.5 0.1 0.7 0.2 1.4c0.1 0.6 0.2 1.2 0.2 1.9q-0.1 0.2-0.1 0.4-0.1 0.4-0.4 0.6-0.3 0.2-0.6 0.3-0.5 0.2-0.9 0.3-0.4 0.1-0.9 0.3-0.5 0.1-0.9 0.2-1 0.3-2 0.4-0.5 0-1.1 0-0.5 0-1.1 0c-0.4 0-0.7 0-1.1 0q-0.3 0-0.6 0c-0.2 0-0.5 0-0.8-0.1-0.3 0-0.5-0.4-0.4-0.7q0.1-0.2 0.3-0.3 0.2-0.2 0.4-0.1 0.6 0 1.2 0 0.3 0 0.5 0 0.4 0 0.7 0c0.8-0.1 1.6-0.1 2.4-0.2q1-0.2 2-0.4c0.7-0.2 1.4-0.3 2-0.6q0.1 0 0.1-0.1 0-0.2 0-0.5-0.1-0.3-0.1-0.6 0 0.1 0 0.2-0.1-0.6-0.2-1.1 0-0.5-0.1-0.9-0.1-1-0.2-1.9-0.3-1.9-0.5-3.8-0.2-0.9-0.3-1.9-0.1-0.9-0.2-1.8-0.2-1.9-0.3-3.8-0.2-1.9-0.2-3.8c-0.1-1.2 0-2.4 0.1-3.7q0-0.9 0-1.8 0-0.9 0-1.8c0-1.3 0-2.6 0.2-3.9q0-0.2 0-0.4 0-0.3 0-0.6 0.1-0.4 0-0.8 0 0 0 0-0.1-0.1-0.2-0.1-0.4-0.2-0.8-0.3-0.5-0.1-1-0.2-0.9-0.3-1.8-0.4-1-0.1-1.9-0.3-0.5 0-1-0.1-0.4-0.1-0.9-0.2-0.6-0.2-1.2-0.5-0.5-0.3-0.9-0.6c-0.2-0.2-0.2-0.5 0-0.7q0.1-0.2 0.4-0.2 0.2 0 0.3 0.2 0.2 0.1 0.3 0.2zm10.5 36.2q0 0 0 0 0 0 0 0zm-1.8-33.1zm0.1 0.2q0 0 0 0 0 0 0 0zm0.6 24.2q0 0 0 0zm1.2 8.6q0 0.1 0 0.1z"/><path fill-rule="evenodd" class="b" d="m94.9 253.3c0.6 0.1 1.2 0.3 1.8 0.5q1 0.4 2 0.8c0.4 0.2 0.9 0.5 1.3 0.8q0.5 0.2 0.9 0.6c1 0.7 1.8 1.4 2.7 2.2q1.2 1.2 2.5 2.3c0.8 0.7 1.7 1.4 2.5 2.1q1.3 0.8 2.7 1.4 1.5 0.5 3.1 0.7c1.2 0 2.3-0.1 3.5-0.2q0.3 0 0.5 0 0.8-0.2 1.5-0.5 0.8-0.2 1.6-0.5c1-0.5 1.9-1 2.9-1.5q1.6-0.8 3.3-1.6c1.1-0.6 2.2-1.2 3.5-1.6 1.1-0.4 2.4-0.6 3.6-0.8q1-0.2 2-0.3 0.4 0 0.8-0.1c0.6 0 1.2 0.1 1.9 0.1 1.2 0.2 2.4 0.7 3.6 1.1q1.7 0.7 3.2 1.5c1 0.6 1.9 1.4 2.9 2.1q0.3 0.3 0.7 0.6 0.3 0.2 0.5 0.4c0.2 0.1 0.4 0.3 0.5 0.5q0.1 0.4-0.1 0.7c-0.1 0.2-0.3 0.4-0.6 0.5-0.2 0-0.5 0-0.7-0.1q-0.9-0.6-1.8-1.3-0.6-0.5-1.2-0.9-0.4-0.3-0.8-0.6-0.5-0.3-1.1-0.5-1-0.5-2.1-1-0.9-0.3-1.7-0.5-0.8-0.3-1.7-0.4-0.3 0-0.6 0-0.6 0-1.2 0.1-0.6 0-1.1 0.1c-1.7 0.3-3.3 0.6-4.9 1.3q-0.7 0.3-1.3 0.7-0.8 0.4-1.6 0.8-1.7 0.8-3.3 1.7-0.7 0.4-1.5 0.8-1 0.5-2 0.9c-0.8 0.4-1.7 0.6-2.5 0.8-0.7 0.1-1.4 0.2-2.2 0.3q-0.9 0-1.9 0.1c-0.7 0-1.4-0.1-2.1-0.2q-0.9-0.2-1.8-0.4c-0.7-0.2-1.3-0.5-2-0.8q-0.7-0.4-1.4-0.8-0.9-0.6-1.7-1.3-1.5-1.1-2.9-2.4c-0.7-0.6-1.3-1.2-2-1.8q-0.9-0.9-1.9-1.7-0.4-0.2-0.9-0.5c-0.4-0.3-1-0.5-1.5-0.8-0.7-0.2-1.4-0.5-2.2-0.7q-1.1-0.2-2.3-0.3-0.8-0.1-1.6-0.1-0.8 0.1-1.6 0.2-1.9 0.4-3.8 0.9c-1.2 0.3-2.4 0.6-3.6 1.1q-1.5 0.8-3 1.7-0.7 0.4-1.3 1-0.4 0.2-0.7 0.5-0.1 0.1-0.2 0.2-0.4 0.3-0.7 0.5c-0.4 0.4-0.8 0.7-1.2 1q-0.8 0.6-1.5 1-1.4 1-2.9 1.8-0.9 0.6-1.9 1-0.4 0.1-0.7 0.2-1.1 0.3-2.2 0.3-1.1-0.1-2.1-0.5c-0.7-0.2-1.4-0.5-2-0.8-1.1-0.6-2.1-1.2-3.2-1.9q-0.7-0.4-1.5-0.8-0.7-0.5-1.5-0.8-0.2-0.1-0.4-0.2c-0.9-0.3-1.7-0.6-2.7-0.7q-1.1-0.1-2.3 0c-0.8 0.1-1.6 0.2-2.4 0.2-0.4 0-0.7-0.2-0.9-0.5-0.3-0.4-0.3-1 0.1-1.4 0.2-0.2 0.4-0.3 0.7-0.4q0.2-0.1 0.4-0.1 0.4-0.1 0.8-0.2 0.9-0.2 1.9-0.2 0.9 0 1.8 0 1 0.1 1.9 0.4 1 0.2 1.9 0.6 0.9 0.4 1.7 0.8 0.7 0.4 1.5 0.9 0.7 0.4 1.5 0.9 1.4 0.9 3 1.5 0.9 0.3 1.8 0.5 0.4 0 0.9 0 0.6-0.1 1.1-0.4c1.1-0.5 2.2-1.2 3.3-1.8q0.8-0.5 1.5-1 0.8-0.6 1.6-1.2 0.2-0.1 0.4-0.3 0.1-0.1 0.3-0.3 0.2-0.2 0.4-0.3 0.1-0.1 0.2-0.2 0.1-0.1 0.2-0.2v0.1c0.9-0.8 1.8-1.5 2.9-2.1 1.1-0.6 2.3-1.2 3.5-1.7 0.6-0.2 1.2-0.4 1.7-0.5q0.9-0.3 1.8-0.5 2-0.5 4-0.8 1-0.2 1.9-0.2 1 0 1.9 0.1 1 0.2 1.9 0.3zm-6.2 2.5q0.1 0 0.2 0-0.1 0-0.2 0z"/><path fill-rule="evenodd" class="b" d="m93.2 262.6c0.7 0.3 1.3 0.6 1.9 1q0.8 0.6 1.6 1.2 1 0.7 2 1.4 0.8 0.6 1.5 1.2 0.8 0.7 1.6 1.4 1.6 1.5 3.4 2.8 0.5 0.4 1.1 0.8 0.7 0.4 1.5 0.7c0.5 0.2 1 0.3 1.5 0.4q0.8 0.2 1.6 0.3 1.1 0.1 2.1 0.1 1.2 0 2.3-0.2c0.9-0.2 1.9-0.5 2.8-0.8q1.2-0.4 2.3-0.9 0.8-0.4 1.6-0.8 0.9-0.5 1.7-1 1.9-1.2 4-2c2.6-1.2 5.4-1.6 8.3-2q1.6-0.2 3.2-0.3 0.9-0.1 1.7 0c0.9 0.1 1.7 0.3 2.4 0.7q0.8 0.3 1.6 0.7c0.5 0.3 1.1 0.5 1.6 0.8 0.6 0.4 1.3 0.8 1.9 1.4 0.4 0.4 0.8 0.9 1.2 1.4 0.2 0.3 0.2 0.7 0.2 1-0.1 0.3-0.3 0.6-0.6 0.8-0.3 0.2-0.6 0.2-1 0.2-0.3-0.1-0.6-0.3-0.8-0.6q-0.2-0.3-0.4-0.5-0.4-0.5-1-1c-0.6-0.4-1.3-0.7-1.9-1q-1-0.5-2-0.9-0.6-0.2-1.1-0.4c-1.2 0-2.4 0.1-3.5 0.3q-1.6 0.2-3.3 0.4-1.4 0.3-2.8 0.6c-0.9 0.3-1.7 0.6-2.5 0.9q-1.8 0.8-3.4 1.9c-0.5 0.3-1.1 0.6-1.6 0.9q-1 0.6-2 1c-1.3 0.7-2.7 1.2-4.1 1.6q-1.6 0.5-3.3 0.7c-0.7 0-1.4 0.1-2.1 0q-1.3 0-2.5-0.2c-0.7-0.1-1.4-0.2-2-0.4q-1.2-0.4-2.3-0.9c-0.7-0.3-1.2-0.8-1.8-1.2-2.4-1.7-4.5-3.8-6.8-5.6-0.7-0.7-1.6-1.3-2.4-1.9-0.6-0.4-1.1-0.8-1.7-1.1q-0.9-0.5-1.8-0.9-0.5-0.2-1.1-0.3-1.3 0-2.6 0.2-1.1 0.2-2 0.5c-1.1 0.5-2.1 1.2-3 1.9-0.4 0.3-0.7 0.6-1.1 1q-0.6 0.7-1.1 1.4c-0.8 1.1-1.6 2.3-2.4 3.4q-0.6 0.8-1.3 1.5-0.7 0.8-1.5 1.5c-0.6 0.5-1.2 1-1.9 1.4-0.6 0.4-1.3 0.7-2.1 1q-0.4 0.2-0.9 0.3c-0.6 0.2-1.2 0.3-1.9 0.4q-1 0.1-2.1 0.1c-1 0.1-2.1 0-3.2-0.2q-0.6-0.1-1.1-0.2c-0.4-0.1-0.8-0.2-1.2-0.4q-0.8-0.3-1.6-0.7c-1.9-0.9-3.9-1.9-5.9-2.6-0.8-0.4-1.7-0.7-2.6-0.8q-0.1 0-0.2 0c-0.2 0.3-0.5 0.5-1 0.5-0.6 0.1-1.1-0.5-1.2-1.1 0-0.3 0.1-0.6 0.2-0.9 0.1-0.3 0.4-0.5 0.7-0.8q0.2-0.1 0.4-0.2 0.4-0.1 0.7-0.1 0.3 0 0.6 0 0.9 0.1 1.8 0.3 1.6 0.5 3.1 1.2 1.6 0.7 3.2 1.5c0.9 0.4 1.7 0.9 2.7 1.3q0.7 0.2 1.6 0.4 0.5 0.1 1.1 0.2 1 0.1 2 0 1.1-0.1 2.2-0.2c0.8-0.1 1.6-0.4 2.3-0.7 0.7-0.4 1.3-0.7 2-1.2q1.9-1.7 3.5-3.7c0.8-1.2 1.6-2.4 2.5-3.6 0.9-1.2 2-2.1 3.3-3 1.2-0.8 2.5-1.5 3.9-1.8 0.8-0.3 1.6-0.3 2.4-0.4q0.5-0.1 1-0.1 0.8 0 1.6 0.2c0.8 0.1 1.6 0.4 2.3 0.8zm1.5 4.1h-0.1q0.1 0 0.1 0zm39.2 2.6q0.1-0.1 0.3-0.1-0.2 0-0.3 0.1z"/><path fill-rule="evenodd" class="b" d="m68.2 188.6q0 0.4 0 0.7 0.1 0.3 0.1 0.7c0 0.4 0.1 0.8 0.2 1.3 0 0.8 0.1 1.7 0.2 2.5 0.1 0.7 0.4 1.4 0.6 2.1q0.1 0.5 0.2 1 0.2 0.6 0.5 1.1-0.1-0.1-0.1-0.2 0.3 0.7 0.6 1.4 0.4 0.8 0.8 1.5 0.5 0.8 1 1.7 0.5 0.8 1 1.5 0.5 0.8 1.1 1.5 0.2 0.2 0.3 0.5 0.4 0.4 0.7 0.8 0.4 0.4 0.8 0.7 0.8 0.7 1.6 1.3 0.5 0.3 0.9 0.6 0.5 0.3 1.1 0.5 0.3 0.1 0.7 0.2 0.5 0.2 0.9 0.3 0.9 0.3 1.8 0.6 0.4 0.1 0.9 0.3 0.4 0.1 0.9 0.2 0.9 0.3 1.8 0.7 0.4 0.2 0.7 0.3 0.4 0.2 0.7 0.3 0.5 0.2 1.1 0.3 0.5 0.2 1 0.2 0.9 0.1 1.8 0.1 1 0 2-0.1c0.7 0 1.3-0.1 1.9-0.2q1 0 1.9 0.1 1 0.1 2 0.1 0.9-0.1 1.8-0.2 0.8-0.2 1.6-0.3 0.9-0.2 1.7-0.3 0.8-0.2 1.6-0.4 0.4-0.2 0.8-0.3 0.5-0.2 0.9-0.4 0.7-0.3 1.4-0.6 0.8-0.4 1.6-0.7 0.8-0.3 1.6-0.6 0.8-0.3 1.5-0.6 0 0 0 0 0.1 0 0.1 0 0.6-0.3 1.1-0.6 0.5-0.3 1-0.7 0.9-0.9 1.8-1.8 0.5-0.5 0.9-1 0.4-0.4 0.8-0.9c0.5-0.8 0.9-1.6 1.4-2.3q0.4-0.6 0.8-1.2 0.2-0.3 0.4-0.5 0.1-0.3 0.3-0.5 0.1-0.2 0.2-0.4 0.1-0.5 0.3-0.9c0-0.2 0.2-0.3 0.4-0.3 0.2 0 0.3 0.3 0.3 0.4q-0.2 0.6-0.4 1.1-0.1 0.3-0.3 0.7-0.2 0.2-0.3 0.4-0.5 0.8-1 1.6-0.5 0.9-1 1.7-0.2 0.4-0.5 0.8-0.3 0.4-0.5 0.8-0.6 0.7-1.3 1.4-0.7 0.7-1.4 1.4-0.7 0.7-1.6 1.2c-0.5 0.4-1.1 0.7-1.7 0.9-0.6 0.3-1.2 0.5-1.8 0.7q-1 0.4-1.9 0.8 0 0 0.1 0-0.9 0.4-1.8 0.8-0.9 0.4-1.8 0.7-0.5 0.2-1 0.3-0.5 0.1-1 0.2c-0.6 0.2-1.2 0.3-1.8 0.4q-1 0.2-2 0.3-1 0.1-1.9 0.1c-0.7 0-1.3-0.1-2-0.1-0.6 0-1.2 0-1.8 0q-1 0.1-1.9 0.2c-0.7 0-1.3 0.1-2 0.1q-1-0.1-2-0.2c-0.6-0.1-1.2-0.3-1.8-0.5-0.7-0.2-1.3-0.6-2-0.8q0.1 0 0.2 0-0.9-0.3-1.8-0.5-0.9-0.3-1.7-0.5-0.9-0.3-1.9-0.6-0.9-0.2-1.9-0.6-0.4-0.2-0.9-0.5-0.5-0.3-0.9-0.6-0.8-0.6-1.5-1.2-0.7-0.6-1.3-1.2-0.7-0.8-1.2-1.6-0.5-0.8-1-1.5-0.9-1.3-1.6-2.6-0.4-0.6-0.7-1.3-0.4-0.7-0.7-1.4l0.1 0.2c-0.3-0.7-0.6-1.3-0.8-1.9q-0.1-0.5-0.2-0.9-0.1-0.5-0.2-0.9-0.1-0.4-0.2-0.9-0.1-0.5-0.2-1-0.1-0.9-0.2-1.9 0-0.2 0-0.4-0.1-0.6-0.3-1.2 0-0.3-0.1-0.6c0-0.3-0.1-0.5-0.1-0.8 0-0.4 0.3-0.8 0.7-0.8h0.1q0.3 0 0.5 0.2c0.1 0.1 0.2 0.3 0.2 0.5zm46.1 20.3q0 0 0 0 0 0 0 0zm0.1-0.1q0 0.1-0.1 0.1 0.1 0 0.1-0.1zm-6.2 2.6q0 0 0 0 0 0 0 0zm-31.3-1.6q0 0-0.1-0.1 0 0 0.1 0.1 0 0 0 0zm-9.7-18.6q0 0.1 0 0.1 0 0 0-0.1zm0 0.2zm1.5 2.5q0 0.1 0 0.1 0 0 0-0.1zm54.5 5z"/><path class="a" d="m168 238.4q1 0.2 1.9 0.4c0.4 0.1 0.6 0.5 0.5 0.9-0.1 0.3-0.5 0.6-0.9 0.5q-0.9-0.2-1.8-0.4c-0.6-0.2-1.1-0.4-1.7-0.4q-0.1-0.1-0.3-0.2-0.2-0.2-0.2-0.5c0-0.3 0.3-0.6 0.7-0.6q0-0.1 0.1-0.1c0.6 0 1.1 0.2 1.7 0.4z"/><path class="a" d="m162.7 240.6q0.2 0.3 0.1 0.5-0.1 0.3-0.3 0.5c-0.7 0.5-1.3 1-2.1 1.4-0.2 0-0.3 0.1-0.5 0q-0.3 0-0.4-0.3c-0.2-0.3-0.2-0.7 0.2-0.9q0.5-0.3 1-0.7 0.5-0.3 1-0.7 0.2-0.1 0.4-0.1c0.2 0 0.5 0.1 0.6 0.3z"/><path fill-rule="evenodd" class="a" d="m36.8 230.5q-0.1-0.1-0.3-0.1c-0.1 0-0.3 0.1-0.4 0.3-0.1 0.2 0 0.5 0.2 0.6q0.8 0.5 1.5 0.9 0.7 0.4 1.3 0.8 0.3 0.3 0.7 0.5-0.1 0-0.1 0 0.1 0 0.2 0.1 0.1 0.2 0.3 0.2 0.2 0.1 0.4 0 0.2-0.2 0.2-0.4 0.1-0.2 0-0.3c-0.2-0.3-0.4-0.5-0.6-0.6q-0.2-0.2-0.4-0.3-0.5-0.3-1-0.6-1-0.6-2-1.1zm2.2 2.5h0.1z"/><path fill-rule="evenodd" class="a" d="m33.7 234.9q0.4 0.2 0.7 0.4 0.4 0.2 0.8 0.5c0.1 0.1 0.1 0.3 0 0.4q-0.1 0.1-0.2 0.1-0.1 0-0.2-0.1-0.1 0-0.2-0.1 0.1 0 0.1 0h-0.1q-0.2-0.2-0.5-0.4-0.3-0.2-0.7-0.4-0.7-0.4-1.4-0.9c-0.1 0-0.2-0.2-0.1-0.3q0.1-0.2 0.2-0.2 0.1 0 0.1 0.1 0.8 0.4 1.5 0.9zm0.9 1.2q0 0 0 0 0 0 0 0zm0 0z"/><path fill-rule="evenodd" class="a" d="m64.4 290.5c0.5 0.6 1 1.2 1.3 1.9 0.2 0.3 0.1 0.6-0.2 0.8q-0.2 0.2-0.4 0.1c-0.2 0-0.3-0.1-0.4-0.3q-0.1 0-0.1-0.1-0.6-0.7-1.2-1.4-0.7-0.8-1.4-1.6c-0.1-0.1-0.2-0.3-0.2-0.5q0-0.2 0.1-0.5 0.3-0.2 0.6-0.2c0.1 0 0.3 0.1 0.5 0.2q0.7 0.8 1.4 1.6zm0.3 2.5q-0.1 0-0.1-0.1 0 0.1 0.1 0.1z"/><path class="a" d="m58.4 290.2q0.9 1 1.9 2.1 0.4 0.4 0.8 0.9 0.2 0.3 0.4 0.6 0.3 0.3 0.5 0.6c0.1 0.3 0 0.7-0.2 0.8-0.3 0.2-0.7 0.1-0.8-0.1q-0.4-0.5-0.7-0.9-1.3-1.6-2.7-3.1-0.2-0.2-0.2-0.4 0-0.3 0.2-0.4c0.1-0.2 0.3-0.2 0.4-0.2q0.3 0 0.4 0.1z"/><path class="a" d="m58.2 300q0.4 0.7 0.9 1.3 0.2 0.3 0.4 0.6 0.1 0.2 0.2 0.3 0 0.2 0.1 0.3 0.1 0.1 0.1 0.3c0.1 0.1 0 0.2-0.1 0.2q-0.1 0.1-0.2 0.1-0.1 0-0.1-0.1-0.1-0.3-0.3-0.5 0-0.1-0.1-0.3-0.2-0.3-0.4-0.6-0.5-0.7-1-1.3c0-0.1 0-0.3 0.1-0.4q0.1 0 0.2 0 0.1 0 0.2 0.1z"/><path class="b" d="m77.3 381.3c0.1 0.4 0 0.7-0.4 0.8q-0.6 0.2-1.1 0.3-0.6 0.1-1.3 0.2c-0.3 0-0.6-0.3-0.6-0.6q0-0.3 0.2-0.5c0.1-0.1 0.2-0.1 0.4-0.2q0.2 0 0.3 0 0.9-0.2 1.7-0.4 0.1 0 0.2 0c0.3 0 0.6 0.1 0.6 0.4z"/><path class="b" d="m79.6 384c0.2 0.2 0.2 0.5 0 0.7-0.6 0.7-1.3 1.5-2 2.1q-0.2 0.2-0.4 0.2-0.2 0-0.3-0.1c-0.2-0.2-0.3-0.6-0.1-0.8q0.6-0.5 1.1-1 0.5-0.6 1-1.1 0.1-0.2 0.3-0.2 0.3 0 0.4 0.2z"/><path class="b" d="m97.5 391.4c0.4 0.1 0.6 0.4 0.5 0.8q-0.1 0.5-0.3 1.1-0.2 0.6-0.4 1.1c-0.2 0.8-0.6 1.6-0.9 2.3-0.2 0.3-0.6 0.4-0.8 0.2q-0.2-0.1-0.3-0.3c-0.1-0.2 0-0.3 0-0.5q0.4-0.7 0.7-1.5 0.2-0.6 0.4-1.3 0.2-0.7 0.4-1.4c0.1-0.3 0.3-0.5 0.6-0.5q0.1 0 0.1 0z"/><path class="b" d="m91.9 393.5q0.3 0.1 0.4 0.4c0 0.2 0 0.4-0.1 0.6q-0.4 1.1-1 2.1-0.3 0.4-0.5 0.8-0.4 0.5-0.7 1c-0.1 0.2-0.3 0.3-0.5 0.3q-0.3 0.1-0.5 0c-0.3-0.2-0.5-0.7-0.3-1q0.3-0.5 0.6-1 0.3-0.4 0.5-0.8 0.6-1 1.1-2.1c0-0.2 0.2-0.3 0.4-0.4q0.1 0 0.2 0 0.2 0 0.4 0.1z"/><path class="b" d="m234.7 400q0.1 0.6 0.3 1.3 0.1 0.7 0.2 1.3 0.1 1.4 0.3 2.8c0 0.2-0.2 0.5-0.4 0.6q-0.3 0-0.5-0.1c-0.2-0.1-0.3-0.2-0.3-0.4q-0.2-1.1-0.4-2.2c-0.1-0.5-0.1-1.1-0.2-1.6q-0.2-0.7-0.3-1.4c-0.1-0.3 0.1-0.7 0.4-0.8q0.1 0 0.2 0c0.3 0 0.6 0.2 0.7 0.5z"/><path class="b" d="m230.3 400.4q0.1 1.3 0.1 2.6c0 0.9-0.1 1.8-0.2 2.7q-0.1 0.1-0.2 0.3-0.2 0.2-0.5 0.2c-0.4 0-0.8-0.3-0.7-0.7q0.1-2.5-0.1-5.1c0-0.4 0.4-0.7 0.8-0.7q0 0 0 0c0.4 0 0.7 0.3 0.8 0.7z"/><path class="b" d="m221.4 400.1q0 0 0.1 0.1 0 0.1 0 0.1-0.3 0.5-0.5 1-0.1 0.3-0.3 0.7-0.2 0.4-0.3 0.8-0.3 0.4-0.5 0.9c0 0.1-0.1 0.1-0.2 0.1-0.1-0.1-0.1-0.1-0.1-0.2q0.3-0.5 0.5-0.9 0.1-0.4 0.3-0.8 0.2-0.4 0.4-0.8 0.2-0.4 0.4-0.9 0-0.1 0.1-0.1 0.1 0 0.1 0z"/><path class="b" d="m208.7 401.3c0 0.4 0 0.9 0 1.3q-0.1 0.5-0.2 1-0.1 0.4-0.3 0.8c0 0.2-0.2 0.3-0.4 0.3-0.2-0.1-0.4-0.3-0.3-0.5q0.1-0.4 0.2-0.7 0.2-0.5 0.2-0.9 0.1-0.7 0-1.3c0-0.2 0.2-0.4 0.4-0.4 0.2 0 0.4 0.2 0.4 0.4z"/><path class="b" d="m263.8 326.8c0 0.3-0.1 0.5-0.3 0.6q-0.9 0.2-1.8 0.6 0.1 0 0.1 0l-1 0.4q-0.3 0.2-0.6 0.3-0.4 0.2-0.9 0.3c-0.2 0.1-0.4 0-0.5-0.2-0.1-0.2 0.1-0.5 0.3-0.5q0.4-0.2 0.7-0.3 0.8-0.4 1.6-0.8c0.6-0.2 1.2-0.4 1.8-0.7q0.1 0 0.2 0c0.1 0 0.3 0.2 0.4 0.3z"/><path class="b" d="m264.6 331.7c0.1 0.2 0 0.4-0.2 0.6-0.7 0.4-1.4 0.9-2.2 1.2-0.5 0.3-1.1 0.5-1.7 0.7q-0.6 0.2-1.3 0.4c-0.2 0.1-0.4 0-0.5-0.2 0-0.3 0.1-0.5 0.3-0.5q0.6-0.2 1.1-0.4 0.7-0.3 1.4-0.5c0.4-0.3 0.9-0.5 1.3-0.8q0.6-0.3 1.2-0.7 0.1-0.1 0.2-0.1 0.2 0 0.4 0.3z"/><path class="b" d="m266.8 338.4c0.1 0.3-0.1 0.6-0.4 0.7-0.8 0.3-1.6 0.5-2.5 0.7q-1.5 0.2-3 0.5c-0.1 0-0.3 0-0.4 0q-0.2-0.2-0.3-0.4-0.1-0.2 0.1-0.4c0-0.2 0.2-0.3 0.3-0.3q1.5-0.3 2.9-0.5c0.9-0.2 1.7-0.5 2.6-0.7q0.1-0.1 0.2-0.1c0.2 0 0.5 0.2 0.5 0.5z"/><path class="c" d="m169.1 130.7c0 0.2-0.2 0.3-0.3 0.3-0.2 0-0.4-0.1-0.4-0.3 0-0.2 0.2-0.3 0.4-0.3 0.1 0 0.3 0.1 0.3 0.3z"/><path fill-rule="evenodd" class="c" d="m149.5 111.1q1.1 0.1 2.1 0.2 0.6 0 1.3 0.1 0.4 0.1 0.9 0.2 0.7 0.1 1.5 0.2 1 0.2 2 0.6 0.4 0.2 0.9 0.5 0.5 0.4 0.9 0.9c0.4 0.5 0.7 1.2 0.7 1.9 0 0.4-0.1 0.8-0.2 1.2q-0.2 0.4-0.6 0.8-0.2 0.3-0.5 0.5-0.1 0.1-0.2 0.2 0.2 0.1 0.4 0.1 0.5 0.1 1.1 0.1 0.9 0.2 1.9 0.3 0.4 0.1 0.9 0.3 0.5 0.1 0.9 0.3 0.4 0.1 0.8 0.3 0.3 0.1 0.6 0.3 0.4 0.2 0.6 0.5 0.2 0.3 0.3 0.5c0.1 0.2 0.1 0.4 0.1 0.6-0.1 0.4-0.2 0.8-0.4 1.2q-0.1 0.1-0.2 0.1 0.1 0 0.1 0 0.5 0.1 1 0.1 0.6 0.1 1.1 0.2 0.4 0 0.7 0.1 0.4 0.1 0.7 0.1 0.7 0.2 1.4 0.5 1.3 0.4 2.6 1.1 1.2 0.6 2.3 1.4 0.6 0.4 1 0.9c0.3 0.4 0.6 0.7 0.7 1.2q0.1 0.2 0.1 0.5c0 0.2 0 0.4-0.1 0.5q-0.1 0.1-0.2 0.3-0.1 0.1-0.2 0.1-0.3 0.3-0.6 0.4c-0.3 0.2-0.7 0.2-1.1 0.3q-0.5 0-0.9 0-0.3 0-0.6 0.1-0.2-0.1-0.5-0.1-0.5 0-1 0-1.5-0.2-3-0.4-0.4-0.1-0.8-0.1-0.5-0.1-0.9-0.2-0.5-0.1-1-0.2-0.6-0.1-1.1-0.3-0.6-0.2-1.2-0.4-0.1-0.1-0.1-0.2c0-0.1 0.1-0.1 0.2-0.1q0.9 0.4 1.9 0.6 0.6 0.2 1.2 0.3 0.7 0.1 1.5 0.3 1.5 0.2 3 0.3 0 0 0 0 0.3 0.1 0.7 0.1 0.3 0 0.6 0 0.4 0 0.7 0 0.5 0 1-0.1 0.5-0.1 1-0.3 0.2-0.1 0.3-0.2 0.3-0.2 0.4-0.4 0 0 0 0.1 0-0.1 0.1-0.2 0-0.1 0-0.1 0-0.1 0-0.1 0-0.2-0.1-0.3-0.1-0.3-0.4-0.6c-0.3-0.4-0.8-0.8-1.3-1.2q0 0 0 0-0.8-0.6-1.7-1-0.9-0.5-1.9-0.8-1.6-0.7-3.4-0.9-0.6-0.1-1.3-0.2-0.9-0.1-1.9-0.2-0.1 0-0.2 0 0 0-0.1 0-0.3 0.2-0.6 0.2-0.4 0.1-0.8 0.2-0.2 0-0.3 0-0.2 0-0.4 0-0.2-0.1-0.3-0.2-0.1 0-0.1 0-0.1-0.1-0.2-0.2-0.1-0.1-0.1-0.3c0-0.1 0.1-0.2 0.1-0.3 0.1-0.1 0.1-0.1 0.2-0.2q0.1 0 0.2-0.1 0 0 0.1 0 0.2-0.1 0.3-0.1 0.2 0 0.5 0 0.4 0 0.9 0 0 0 0.1 0 0.3-0.1 0.6-0.3 0.1-0.2 0.2-0.3 0.1-0.1 0.2-0.3 0-0.1 0-0.2 0-0.1 0-0.3 0 0 0 0 0-0.1 0-0.1-0.1-0.1-0.3-0.2-0.4-0.3-0.9-0.5-0.5-0.2-0.9-0.3-0.5-0.1-1-0.2-0.9-0.2-1.9-0.4c-0.6 0-1.2-0.1-1.9-0.2q-0.2 0-0.4-0.1-0.1 0-0.2-0.1-0.2-0.1-0.3-0.2c-0.1 0-0.2-0.2-0.2-0.3q0-0.1 0-0.2 0-0.1 0-0.3 0.1-0.3 0.3-0.5c0.2-0.3 0.5-0.5 0.8-0.8q0.1-0.2 0.3-0.4 0.1-0.2 0.2-0.3 0-0.2 0.1-0.4 0-0.2-0.1-0.4 0-0.2-0.1-0.4-0.1-0.2-0.3-0.4-0.2-0.3-0.4-0.4-0.4-0.3-0.9-0.5c-0.6-0.2-1.3-0.4-1.9-0.5q-0.5-0.1-1-0.1-0.5-0.1-1.1-0.2-0.5-0.1-1-0.1-1.4-0.1-2.8-0.3-0.7 0-1.5-0.1-0.3 0-0.7 0c-0.3 0-0.6-0.1-0.8 0-0.4 0-0.7-0.3-0.8-0.6q-0.1-0.3 0.1-0.6c0.1-0.1 0.2-0.3 0.4-0.3q0.2-0.1 0.4-0.1-0.1 0-0.1 0 0.3 0 0.6 0 0.2 0 0.4 0 0.1 0 0.1 0 0.4 0 0.9 0 0.9 0 1.8 0.1zm-3.8-0.1q0 0 0 0 0 0 0 0zm28.8 16q0 0 0 0 0 0 0 0zm-11.2-6.3q0 0 0 0 0 0 0 0zm0.3 2.2zm-1.6 0.3q0 0 0 0 0 0 0 0zm14.2 5.6v-0.1q0 0 0 0.1zm-1.8-1.9q0.1 0.1 0.1 0.1 0 0-0.1-0.1zm1.4 1.3q0.1 0 0.1 0 0 0-0.1 0zm0.5 0.9zm0 0z"/><path fill-rule="evenodd" class="c" d="m132.2 104.5q-0.4 0-0.8 0-0.1 0-0.2 0-0.3 0-0.6 0-0.2 0-0.4 0.1-0.5 0-0.9 0-0.6 0.1-1.1 0.2-0.2 0.1-0.4 0.2-0.5 0.1-0.9 0.4c-0.2 0.1-0.3 0.4-0.1 0.7 0.1 0.2 0.4 0.2 0.6 0.1q0.2-0.1 0.4-0.2 0.6-0.2 1.3-0.3 0.4-0.1 0.8-0.2 0.4 0 0.8 0 0.4 0 0.8 0 0.6 0 1.2 0 0.8 0.1 1.6 0.4 0.5 0.1 0.9 0.3 0 0 0 0 0.6 0.2 1 0.5 0.2 0.1 0.4 0.3 0 0.1 0.1 0.2 0 0.1 0.1 0.3 0 0.1 0 0.2 0 0.1-0.1 0.2 0 0.2-0.2 0.3-0.1 0.2-0.2 0.3-0.2 0.2-0.4 0.3-0.7 0.2-1.4 0.5-0.2 0.1-0.2 0.2-0.1 0.2-0.1 0.4c0.1 0.2 0.4 0.4 0.6 0.3q0.7-0.3 1.4-0.6 0.3-0.1 0.5-0.3 0.3-0.3 0.6-0.6 0-0.1 0.1-0.3 0.1-0.2 0.2-0.3 0-0.2 0-0.5 0-0.1 0-0.3c-0.1-0.3-0.2-0.5-0.3-0.7q-0.2-0.3-0.4-0.4-0.5-0.4-1.1-0.7-0.6-0.3-1.3-0.5-0.6-0.2-1.3-0.3-0.5-0.1-1-0.2zm3.1 1.7q0 0 0 0 0 0 0 0zm1.5 1.4q0 0 0 0 0 0 0 0zm-0.5 0.9q0 0 0 0 0 0 0 0z"/><path fill-rule="evenodd" class="c" d="m123.1 106.4q0 0.3-0.2 0.5c-0.2 0.2-0.3 0.2-0.5 0.2q-0.1 0-0.1 0 0 0 0 0c-0.4 0.1-0.9 0.2-1.3 0.3q-0.6 0.3-1 0.7c-0.3 0.2-0.8 0-1-0.3q-0.1-0.2 0-0.5c0-0.2 0.1-0.3 0.3-0.4q0.3-0.3 0.8-0.6 0.4-0.3 0.9-0.4c0.5-0.1 0.9-0.1 1.3-0.2q0.1 0 0.1 0c0.1 0 0.3 0.1 0.4 0.2q0.2 0.2 0.3 0.5zm-0.8 0.7q0 0-0.1 0.1 0.1-0.1 0.1-0.1z"/></g><g clip-path="url(#cp3)"><path fill-rule="evenodd" class="a" d="m20 452q0 0 0 0c0.3 0 0.5 0.1 0.7 0.3 0.8 0.6 1.5 1.3 2.3 2q0.6 0.4 1.2 0.9 0.5 0.3 0.9 0.7 0.3 0.2 0.5 0.5 0.2 0.3 0.4 0.6c0.2 0.4 0 0.9-0.4 1.2-0.4 0.2-0.8 0.1-1.1-0.2q-0.2-0.3-0.5-0.5c-0.8-0.6-1.7-1.1-2.4-1.8-0.8-0.7-1.6-1.4-2.3-2.1-0.2-0.1-0.3-0.4-0.3-0.7 0-0.2 0.1-0.5 0.3-0.7q0.3-0.2 0.7-0.2zm5.6 4.3q0 0.1 0.1 0.2-0.1-0.1-0.1-0.1 0 0 0-0.1zm0.1 0.2q0 0 0 0 0 0 0 0z"/><path class="a" d="m27.5 448.7c-0.5 0.3-0.7 0.9-0.5 1.4 0.5 0.8 0.9 1.5 1.2 2.3q0.2 0.5 0.4 1 0.2 0.6 0.3 1.2c0.1 0.4 0.4 0.6 0.8 0.6 0.5 0.1 0.9-0.3 0.9-0.8q0-0.3 0-0.7 0-0.3-0.1-0.7-0.2-0.7-0.4-1.4c-0.4-0.8-0.8-1.6-1.3-2.5-0.2-0.3-0.5-0.5-0.9-0.5q-0.2 0-0.4 0.1z"/><path class="a" d="m35.6 444.5c0 1 0.1 2.1 0 3.1-0.1 1-0.2 2.1-0.2 3.1 0 0.5 0.4 0.9 0.9 0.9q0.3 0 0.6-0.3c0.2-0.1 0.2-0.3 0.3-0.6 0.1-1 0-2 0-3q0-1.6 0-3.2c-0.1-0.4-0.4-0.8-0.8-0.8-0.4 0-0.8 0.3-0.8 0.8z"/><path fill-rule="evenodd" class="a" d="m44 447.1q0.2 0 0.3 0.1c0.5 0.1 0.8 0.7 0.7 1.2q-0.2 0.7-0.4 1.4-0.1 0.6-0.3 1.1-0.2 0.7-0.5 1.4-0.3 0.5-0.6 1 0 0 0 0.1c0 0.4-0.4 0.8-0.9 0.8-0.4 0-0.7-0.3-0.8-0.6q-0.1-0.6 0-1.1 0-0.1 0.1-0.3 0.1-0.3 0.3-0.6 0.2-0.6 0.5-1.2c0.3-0.8 0.5-1.7 0.7-2.6 0.1-0.4 0.5-0.7 0.9-0.7zm-0.8 6.2q0.1-0.1 0.1-0.1 0 0-0.1 0.1z"/><path fill-rule="evenodd" class="a" d="m51.8 454.8h0.1c0.2 0 0.4 0.1 0.6 0.3q0.2 0.2 0.2 0.6c0 0.2-0.1 0.5-0.2 0.6q-1 0.7-1.9 1.4-0.8 0.5-1.5 1.2c-0.4 0.3-1 0.3-1.4-0.1-0.3-0.4-0.4-1 0-1.3q0.3-0.3 0.6-0.5 0.1 0 0.1 0c0.7-0.5 1.5-1 2.2-1.6q0.3-0.2 0.6-0.4c0.2-0.1 0.4-0.2 0.6-0.2zm-1.4 3q0.1-0.1 0.2-0.1-0.1 0-0.2 0.1zm0 0q0 0 0 0 0 0 0 0zm-2.2-0.7q0.1 0 0.1-0.1 0.1 0 0.1 0-0.1 0-0.2 0.1zm0.2-0.1z"/></g><g clip-path="url(#cp4)"><path fill-rule="evenodd" class="a" d="m223.5 459.7q0 0 0 0c0.3 0 0.5 0.1 0.7 0.3 0.8 0.6 1.5 1.3 2.3 2q0.6 0.5 1.2 0.9 0.5 0.3 0.9 0.7 0.3 0.2 0.5 0.5 0.2 0.3 0.4 0.6c0.2 0.4 0 1-0.4 1.2-0.4 0.2-0.8 0.1-1.1-0.2q-0.2-0.2-0.5-0.5c-0.8-0.6-1.7-1.1-2.4-1.8-0.8-0.7-1.6-1.4-2.3-2.1-0.2-0.1-0.3-0.4-0.3-0.7 0-0.2 0.1-0.5 0.3-0.7q0.3-0.2 0.7-0.2zm5.6 4.4q0 0 0.1 0.1-0.1-0.1-0.1-0.1 0 0 0 0zm0.1 0.2q0-0.1 0-0.1 0 0 0 0.1z"/><path class="a" d="m231 456.4c-0.5 0.3-0.7 0.9-0.5 1.4 0.5 0.8 0.9 1.5 1.2 2.3q0.2 0.5 0.4 1 0.2 0.6 0.3 1.2c0.1 0.4 0.4 0.6 0.8 0.6 0.5 0.1 0.9-0.3 0.9-0.8q0-0.3 0-0.6 0-0.4-0.1-0.8-0.2-0.7-0.4-1.4c-0.4-0.8-0.8-1.6-1.3-2.5-0.2-0.3-0.5-0.5-0.9-0.5q-0.2 0-0.4 0.1z"/><path class="a" d="m239.1 452.2c0 1 0.1 2.1 0 3.1-0.1 1.1-0.2 2.1-0.2 3.1 0 0.5 0.4 0.9 0.9 0.9q0.3 0 0.6-0.2c0.2-0.2 0.2-0.4 0.3-0.6 0.1-1.1 0-2.1 0-3.1q0-1.6 0-3.2c-0.1-0.4-0.4-0.8-0.8-0.8-0.4 0-0.8 0.3-0.8 0.8z"/><path fill-rule="evenodd" class="a" d="m247.5 454.8q0.2 0 0.3 0.1c0.5 0.1 0.8 0.7 0.7 1.2q-0.2 0.7-0.4 1.4-0.1 0.6-0.3 1.1-0.2 0.7-0.5 1.4-0.3 0.5-0.6 1 0 0 0 0.1c0 0.5-0.4 0.8-0.9 0.8-0.4 0-0.7-0.3-0.8-0.6q-0.1-0.6 0-1.1 0-0.1 0.1-0.3 0.1-0.3 0.3-0.6 0.2-0.6 0.5-1.2c0.3-0.8 0.5-1.7 0.7-2.6 0.1-0.4 0.5-0.7 0.9-0.7zm-0.8 6.2q0.1-0.1 0.1-0.1 0 0-0.1 0.1z"/><path fill-rule="evenodd" class="a" d="m255.3 462.5h0.1c0.2 0 0.4 0.1 0.6 0.3q0.2 0.2 0.2 0.6c0 0.2-0.1 0.5-0.2 0.6q-1 0.7-1.9 1.4 0 0 0 0 0 0 0 0-0.1 0-0.2 0.1 0.1-0.1 0.2-0.1-0.8 0.5-1.5 1.2c-0.4 0.3-1 0.3-1.4-0.1-0.3-0.4-0.4-1 0-1.3q0.3-0.3 0.7-0.5c0.7-0.5 1.5-1 2.2-1.5q0.3-0.3 0.6-0.5c0.2-0.1 0.4-0.2 0.6-0.2zm-1.4 3q0 0 0 0 0 0 0 0zm0.2-0.1q0 0 0 0 0 0 0 0zm-2.2-0.7q-0.1 0.1-0.2 0.1 0.1 0 0.2-0.1zm0 0z"/></g><g clip-path="url(#cp5)"><path fill-rule="evenodd" class="a" d="m347 384.2q0 0 0 0c0.3 0 0.5 0.1 0.7 0.3 0.8 0.6 1.5 1.3 2.3 2q0.6 0.5 1.2 0.9 0.5 0.3 0.9 0.7 0.3 0.2 0.5 0.5 0.2 0.3 0.4 0.6c0.2 0.4 0 1-0.4 1.2-0.4 0.2-0.8 0.1-1.1-0.2q-0.2-0.2-0.5-0.5c-0.8-0.6-1.7-1.1-2.4-1.8-0.8-0.7-1.6-1.4-2.3-2.1-0.2-0.1-0.3-0.4-0.3-0.7 0-0.2 0.1-0.5 0.3-0.7q0.3-0.2 0.7-0.2zm5.6 4.4q0 0 0.1 0.1-0.1-0.1-0.1-0.1 0 0 0 0zm0.1 0.2q0-0.1 0-0.1 0 0 0 0.1z"/><path class="a" d="m354.5 380.9c-0.5 0.3-0.7 0.9-0.5 1.4 0.5 0.8 0.9 1.5 1.2 2.3q0.2 0.5 0.4 1 0.2 0.6 0.3 1.2c0.1 0.4 0.4 0.6 0.8 0.6 0.5 0.1 0.9-0.3 0.9-0.8q0-0.3 0-0.6 0-0.4-0.1-0.8-0.2-0.7-0.4-1.4c-0.4-0.8-0.8-1.6-1.3-2.5-0.2-0.3-0.5-0.5-0.9-0.5q-0.2 0-0.4 0.1z"/><path class="a" d="m362.6 376.7c0 1 0.1 2.1 0 3.1-0.1 1.1-0.2 2.1-0.2 3.1 0 0.5 0.4 0.9 0.9 0.9q0.3 0 0.6-0.2c0.2-0.2 0.2-0.4 0.3-0.6 0.1-1.1 0-2.1 0-3.1q0-1.6 0-3.2c-0.1-0.4-0.4-0.8-0.8-0.8-0.4 0-0.8 0.3-0.8 0.8z"/><path fill-rule="evenodd" class="a" d="m371 379.3q0.2 0 0.3 0.1c0.5 0.1 0.8 0.7 0.7 1.2q-0.2 0.7-0.4 1.4-0.1 0.6-0.3 1.1-0.2 0.7-0.5 1.4-0.3 0.5-0.6 1 0 0 0 0.1c0 0.5-0.4 0.8-0.9 0.8-0.4 0-0.7-0.3-0.8-0.6q-0.1-0.6 0-1.1 0-0.1 0.1-0.3 0.1-0.3 0.3-0.6 0.2-0.6 0.5-1.2c0.3-0.8 0.5-1.7 0.7-2.6 0.1-0.4 0.5-0.7 0.9-0.7zm-0.8 6.2q0.1-0.1 0.1-0.1 0 0-0.1 0.1z"/><path fill-rule="evenodd" class="a" d="m378.8 387h0.1c0.2 0 0.4 0.1 0.6 0.3q0.2 0.2 0.2 0.6c0 0.2-0.1 0.5-0.2 0.6q-1 0.7-1.9 1.4 0 0 0 0 0 0 0 0-0.1 0-0.2 0.1 0.1-0.1 0.2-0.1-0.8 0.5-1.5 1.2c-0.4 0.3-1 0.3-1.4-0.1-0.3-0.4-0.4-1 0-1.3q0.4-0.3 0.7-0.5c0.7-0.5 1.5-1 2.2-1.5q0.3-0.3 0.6-0.5c0.2-0.1 0.4-0.2 0.6-0.2zm-1.4 3q0 0 0 0 0 0 0 0zm0.2-0.1q0 0 0 0 0 0 0 0zm-2.2-0.7q-0.1 0.1-0.2 0.1 0.1 0 0.2-0.1zm0 0z"/></g><path fill-rule="evenodd" class="a" d="m430.5 442.4q1-0.4 1.8-0.3 0.7 0.2 1.3 0.5 0.5 0.3 0.9 0.8c0.3 0.3 0.5 0.7 0.8 1.2 0.4 0.4 0.6 0.9 0.9 1.5q0.3 0.7 0.5 1.4 0.4 1.5 0.6 3c0.1 0.9 0.3 2 0.3 3.1q0.1 1.4 0 3.2c-0.1 0.9-0.2 1.9-0.4 2.9q-0.4 1.5-1 3.1c-0.3 0.9-0.7 1.8-1.2 2.7q-0.2 0.5-0.5 0.9 0.8-0.8 1.5-1.7 0.4-0.4 0.8-0.8 0.5-0.6 1-1.1 1-1.1 2.1-2.1 0.3-0.2 0.6-0.4 0.8-0.7 1.5-1.4 0.7-0.6 1.2-1.3l0.5-0.5c0.3-0.4 0.7-0.8 1.1-1.2q0.4-0.3 1-0.6 0.7-0.3 1.2-0.3c0.3-0.1 0.7-0.1 1.1 0q0.3 0.1 0.6 0.1 0.6 0.2 0.9 0.5 0.6 0.5 0.8 1.1 0.2 0.3 0.2 0.6l0.1 0.1q0 0.3 0.1 0.7c0.1 0.5 0.1 1.1 0.1 1.7q-0.1 1.2-0.6 2.3c-0.5 1-1.3 2-2.2 2.9-0.9 0.8-1.8 1.5-2.7 2.2q-0.6 0.5-1.2 1c-0.8 0.6-1.6 1.2-2.5 1.6l-0.2 0.1c-1 0.5-2.1 0.9-3.3 1.1-0.6 0.2-1.1 0.2-1.7 0.3q-0.8 0-1.6 0.1-0.9 0-1.8-0.1-0.6-0.1-1.2-0.4-0.2-0.1-0.3-0.2 0 0-0.1 0c-0.8 0.2-1.6 0.5-2.4 0.6-0.5 0-1 0-1.6 0q-0.7 0-1.2-0.1c-0.8-0.1-1.5-0.2-2.1-0.3l-0.7-0.1c-1-0.2-2-0.3-2.9-0.4h-0.1-0.1q-0.6-0.1-1.2-0.2c-0.5-0.1-1-0.2-1.5-0.4q-0.7-0.2-1.4-0.4c-0.5-0.3-1-0.6-1.4-0.9-0.4-0.2-0.7-0.5-1.1-0.7q-0.3-0.3-0.7-0.7c-0.4-0.4-0.6-0.7-0.9-1.1q-0.4-0.8-0.6-1.9-0.2-0.8-0.3-1.5 0-0.7 0.1-1.4c0.1-0.4 0.2-0.8 0.5-1.2v-0.1c0.1-0.2 0.3-0.4 0.5-0.6q0.2-0.3 0.4-0.5 0.3-0.2 0.6-0.4 0.5-0.3 1.2-0.7h0.1q0.6-0.3 1.1-0.4c0.4-0.1 0.8-0.1 1.1-0.1q0.5 0.1 0.9 0.2c1 0.2 2 0.6 3.1 1.3q0.7 0.4 1.4 0.8c0.4 0.3 0.8 0.6 1.1 0.8 0.7 0.6 1.3 1.2 1.8 1.8l0.3 0.3q0.9 0.8 1.7 1.5 0.9 0.8 1.9 1.8-0.1-1-0.3-2-0.2-1.3-0.3-2.7l-0.1-0.3-0.1-0.8q-0.1-1.1-0.2-2.2v-0.1-0.1c-0.1-0.9-0.2-1.9-0.2-2.8q0-0.9 0-1.9v-0.1-0.1q0-0.5 0-1v-0.1-0.1-0.1-0.4c0-0.9 0-1.8 0.1-2.8q0.1-1.6 0.4-2.8 0.1-0.3 0.1-0.5l0.1-0.1q0-0.3 0.1-0.5 0.3-0.6 0.6-0.9 0.4-0.6 1-0.8 0.1-0.1 0.2-0.1zm-0.9 8.6v-0.6 0.1z"/><path class="c" d="m432.5 446.9q0.4 1.7 0.6 3.4 0.1 0.4 0.1 0.8 0.1 0.4 0.1 0.7 0.1 0.9 0.1 1.7 0 0.9 0 1.7 0 0.9 0 1.8 0 1.7 0 3.3 0 1.2-0.1 2.3 0 0.6-0.1 1.2 0 0.6-0.1 1.2-0.1 0-0.1 0.1 0 0 0 0c-0.1 0.2-0.1 0.4 0 0.5 0.1 0.2 0.4 0.3 0.6 0.1q0.1-0.1 0.2-0.2 0.1-0.1 0.1-0.2 0.1-0.2 0.1-0.4 0-0.3 0.1-0.5 0-0.4 0-0.8 0.1-0.8 0.1-1.7c0-1.1 0-2.3 0-3.4q0-1.1-0.1-2.1 0-0.4 0-0.8 0-0.5 0-1 0-0.8 0-1.7-0.1-0.9-0.2-1.8-0.1-0.8-0.2-1.6-0.3-1.4-0.5-2.7c-0.1-0.2-0.2-0.3-0.4-0.3q-0.1 0-0.1 0c-0.1 0.1-0.2 0.2-0.2 0.4z"/><path class="c" d="m416.2 462.1q-0.1 0.2 0 0.3c0 0.1 0 0.2 0.1 0.3q0.5 0.2 0.9 0.4 0 0.1 0 0.1 0.1 0 0.1 0 0.7 0.4 1.5 0.7 0.4 0.2 0.8 0.3 0.4 0.2 0.7 0.3c1.2 0.5 2.3 0.9 3.4 1.3q0.7 0.3 1.4 0.6 0.6 0.3 1.3 0.7 0.4 0.2 0.7 0.4 0.5 0.3 0.9 0.5c0.2 0.1 0.5-0.1 0.5-0.2q0.1-0.2 0-0.3-0.1-0.2-0.2-0.2 0 0 0 0-0.4-0.3-0.8-0.5-0.4-0.2-0.8-0.4-0.7-0.4-1.5-0.8-0.9-0.4-1.7-0.7-0.8-0.3-1.6-0.6-1.1-0.4-2.2-0.9-0.5-0.2-1-0.4-0.6-0.2-1.1-0.5 0 0 0 0-0.3-0.2-0.6-0.3 0 0 0 0-0.1-0.1-0.2-0.1-0.2-0.1-0.3-0.1-0.1 0-0.1 0-0.1 0.1-0.2 0.1z"/><path fill-rule="evenodd" class="c" d="m446.9 461.5q-0.2 0.2-0.4 0.3c-0.9 0.6-1.9 1-2.9 1.5q-1.5 0.8-3.1 1.6c-0.9 0.5-1.8 1-2.7 1.5q-0.7 0.3-1.5 0.7-0.4 0.2-0.9 0.4c-0.4 0.2-0.8 0.4-1.2 0.7-0.1 0-0.1 0.1-0.2 0.2q0 0.1 0.1 0.2 0.1 0.1 0.2 0.2 0.2 0 0.3-0.1 0.2-0.2 0.5-0.4 0 0.1-0.1 0.1 0.3-0.2 0.6-0.3 0.2-0.1 0.4-0.2 0.3-0.1 0.5-0.2 0.4-0.1 0.7-0.3 0.5-0.2 0.9-0.4 0.4-0.2 0.8-0.4 0.8-0.4 1.5-0.8 0.6-0.2 1.1-0.5 0.3-0.1 0.5-0.2 1.3-0.7 2.7-1.3 0.6-0.3 1.3-0.7 0.3-0.1 0.7-0.3 0.4-0.3 0.8-0.6c0.1-0.2 0.2-0.5 0-0.6-0.1-0.2-0.3-0.2-0.5-0.1q-0.1 0-0.1 0zm-0.3 0.2q-0.1 0.1-0.1 0.1 0 0 0.1-0.1z"/><path fill-rule="evenodd" class="d" d="m302.1 118.6c1.8-0.8 3.3-1.1 4.5-1.1 11.9 0 21.9 10.2 21.9 23.3 0 16.3-13 27.9-27.9 27.9-4.5 0-10.2-1.1-16.3-4v-61.7c0-6.9-0.2-7.6-7.3-8.2v-2.6c5.2-0.7 12-2.4 16.1-3.9v34.2zm-9 35.9c0 1.6 0.2 2.7 0.7 3.7 0.6 2.2 4 6.1 9.8 6.2 9.3 0 15.1-7.8 15.1-20.7 0-12.7-7.7-20-16.9-20-3.1 0-6.7 0.9-8.7 2.1z"/><path fill-rule="evenodd" class="d" d="m49.4 72.1c-2.4 0-5.7-1.4-7.4-2.9-2-2.2-3-4.4-3.8-7.1-6.2 4.3-13.7 10-18.4 10-11.1 0-18.8-9.2-18.8-19 0-7.7 4.1-12.6 12.7-15.5 9.4-3.2 20.8-7.4 24.2-10.2v-2.8c0-11.3-5.3-17.7-13.1-17.7-3.1 0-5.5 1.2-7.1 3.1-2 2.1-3.4 5.5-4.6 10.3-0.7 2.5-2.4 3.6-4.6 3.6-2.8 0-6.9-3.1-6.9-6.7 0-2.3 2.1-4.1 5-6.2 4.4-3.2 14.6-9.3 23.5-11 4.7 0 9.4 1.4 12.8 4.2 5.5 4.6 7.1 11 7.1 19.1v29.1c0 7.1 2.8 9.4 5.5 9.4 1.8 0 4-0.8 5.6-1.7l1.6 4.1zm-11.5-39.5c-3.3 1.7-10.8 5-14 6.6-6.2 2.8-9.6 5.8-9.6 11.4 0 8.2 6.3 12.1 11.1 12.1 4.1-0.2 9.6-2.8 12.5-5.7z"/><path class="d" d="m115.2 533.8c-1.1 3.1-2.4 5.3-3.5 6.7-1.6 1.8-4 2.2-7.8 2.2-2.9 0-5.2-0.2-6.6-0.9-1.2-0.7-1.6-2.1-1.6-5.8v-27.3c0-5.9 0.6-6.2 6.1-6.6v-2h-18v2c5.6 0.4 6 0.7 6 6.6v27.6c0 5.9-0.5 6.4-6.3 6.8v1.9h31.3c0.6-2.1 2-8.7 2.4-10.8z"/><path fill-rule="evenodd" class="d" d="m748.8 454.5c-1.2 2.1-3.8 5.6-5.9 6.8l-7.5-0.4c2.5 2.9 3.9 6.9 3.9 11.7 0 14.2-11.8 21-23 21-2.3 0-4.6-0.3-6.7-0.6-1.9 1.2-4 3.5-4 5.4 0 2.6 2.4 5.1 8.3 5.1 4.8 0 9.5-0.1 13.8-0.1 8.2 0 19 2.6 19 15.5 0 13.3-15.4 26.1-32.9 26.1-14.6 0-22.7-8.6-22.8-16.1 0-2.9 1.2-5.4 3.2-7.3 2.6-2.7 7.7-6.9 10.9-9.3-4.8-1.4-8-4.4-9.8-7.2-1.1-2-1.5-4.2-1.4-5.5 5.3-2 9.5-5.4 11.6-8.1-5.9-2.5-11.6-8.7-11.6-17.6 0-15 13.4-21.9 23.6-21.9 4.4 0 8.8 1.2 12.6 3.3 6.5-0.2 13.2-1 17.9-1.8zm-43.6 17.2c0 10.3 5 17.7 12.4 17.7 5.8-0.2 10.9-5.3 10.9-15.7 0-10.4-4.8-17.8-12.3-17.8-5.8 0-11 5.6-11 15.8zm2.3 43.8c-3.5 2.7-6.1 6.4-6.1 10.2 0 7.1 7.6 12.5 17.4 12.5 12.5 0 19-6.4 19-14.6 0-4.5-2.3-7.8-6.1-9.3-3.3-1.4-7.1-1.7-12.6-1.7-6.4 0-9.3 0.7-11.6 2.9z"/><path fill-rule="evenodd" class="d" d="m791.4 86c-1-1.1-1.5-2.2-1.9-3.5-3.1 2.1-6.7 4.9-9.1 4.9-5.4 0-9.2-4.5-9.2-9.4 0-3.7 2-6.1 6.2-7.6 4.7-1.5 10.3-3.6 12-5v-1.4c0-5.5-2.6-8.7-6.5-8.7-1.5 0-2.7 0.6-3.5 1.5-1 1.1-1.6 2.7-2.3 5.1-0.3 1.3-1.1 1.8-2.2 1.8-1.4 0-3.4-1.5-3.4-3.3 0-1.2 1-2 2.5-3.1 2.1-1.5 7.1-4.5 11.5-5.4 1.7 0 3.4 0.4 4.9 1.2v-41.1c0-4.8-0.2-5.2-5.1-5.7v-1.8c3.6-0.4 8.3-1.6 11.2-2.6v23.7l6.2-2.7c1.2-0.6 2.3-0.8 3.1-0.8 8.3 0 15.2 7.1 15.2 16.2 0 11.3-9 19.3-19.3 19.3-2.3 0-5-0.4-8-1.4 1.2 2 1.6 4.4 1.6 7.2v14.3c0 3.5 1.4 4.6 2.7 4.6 0.9 0 2-0.3 2.8-0.8l0.7 2-6.5 3.9c-1.2 0-2.8-0.7-3.6-1.4zm-9-14.7c-3 1.3-4.6 2.8-4.6 5.6 0 4 3 5.9 5.4 5.9 2-0.1 4.7-1.4 6.2-2.8v-12c-1.6 0.9-5.3 2.5-7 3.3zm14.1-43.4v19.9c0 1.1 0.1 1.9 0.4 2.6 0.5 1.5 2.8 4.2 6.9 4.3 6.4 0 10.4-5.5 10.4-14.4 0-8.8-5.4-13.9-11.7-13.9-2.2 0-4.7 0.6-6 1.5z"/></g></svg>